<?xml version="1.0" encoding="utf-8"?>
<!-- Generator: Adobe Illustrator 22.1.0, SVG Export Plug-In . SVG Version: 6.00 Build 0)  -->
<svg version="1.1" id="Warstwa_1" xmlns="http://www.w3.org/2000/svg" xmlns:xlink="http://www.w3.org/1999/xlink" x="0px" y="0px"
	 viewBox="0 0 274 274" style="enable-background:new 0 0 274 274;" xml:space="preserve">
<style type="text/css">
	.st0{fill:#F9F9F9;}
</style>
<path class="st0" d="M204.1,23.4C184.1,11.5,160.9,4.7,136,4.7c-36.8,0-70.1,14.9-94.3,39s-39,57.4-39,94.3
	c0,36.8,14.9,70.1,39,94.3c24.1,24.1,57.4,39,94.3,39c36.8,0,70.1-14.9,94.3-39c24.1-24.1,39-57.4,39-94.3c0-11.3-1.4-22.3-4.1-32.8
	c-2.7-10.8-6.8-21.1-12-30.7C241.7,53.3,224.7,35.6,204.1,23.4 M170,39.1l-0.4,1.3l-0.5-0.2l-0.5-0.2l-0.5-0.2l-0.5-0.2l-0.5-0.2
	l-0.5-0.2l-0.5-0.2l-0.5-0.2l-0.5-0.2l-0.5-0.2l-0.5-0.1l0.4-1.3l0.5,0.1l0.6,0.2l0.6,0.2l0.5,0.2l0.5,0.2l0.5,0.2l0.5,0.2l0.5,0.2
	l0.5,0.2l0.5,0.2L170,39.1z M179.2,42.8l-0.6,1.2l-0.2-0.1l-0.5-0.2l-0.5-0.2l-0.5-0.2l-0.5-0.2l-0.5-0.2l-0.5-0.2l-0.5-0.2
	l-0.5-0.2l-0.5-0.2l-0.5-0.2l-0.3-0.1l0.5-1.3l0.3,0.1l0.5,0.2l0.5,0.2l0.5,0.2l0.5,0.2l0.5,0.2l0.5,0.2l0.5,0.2l0.5,0.2l0.5,0.2
	l0.5,0.2L179.2,42.8z M188,47.3l-0.7,1.2l-0.4-0.2l-0.5-0.3l-0.5-0.3l-0.5-0.3l-0.5-0.3l-0.5-0.3l-0.5-0.3l-0.5-0.3l-0.5-0.3
	l-0.5-0.3l-0.5-0.3l-0.1,0l0.6-1.2l0.1,0l0.5,0.3l0.5,0.3l0.5,0.3l0.5,0.3l0.5,0.3l0.5,0.3l0.5,0.3l0.5,0.3l0.5,0.3l0.5,0.3
	L188,47.3z M196.3,52.6l-0.8,1.1l-0.2-0.1l-0.5-0.3l-0.5-0.3l-0.5-0.3l-0.5-0.3l-0.5-0.3l-0.5-0.3l-0.5-0.3l-0.5-0.3l-0.5-0.3
	l-0.5-0.3l-0.3-0.2l0.7-1.1l0.3,0.2l0.5,0.3l0.5,0.3l0.5,0.3l0.5,0.3l0.5,0.3l0.5,0.3l0.5,0.3l0.5,0.3l0.5,0.3l0.5,0.3L196.3,52.6z
	 M204.1,58.7l-0.9,1l-0.1,0l-0.4-0.4l-0.4-0.4l-0.4-0.4l-0.4-0.4l-0.4-0.3l-0.4-0.3l-0.4-0.3l-0.4-0.3l-0.4-0.3l-0.4-0.3l-0.4-0.3
	l0.8-1.1l0.4,0.3l0.4,0.3l0.4,0.3l0.4,0.3l0.4,0.3l0.4,0.4l0.4,0.4l0.4,0.4l0.4,0.4l0.4,0.4L204.1,58.7L204.1,58.7z M211.3,65.5
	l-1,0.9l-0.3-0.3l-0.4-0.4l-0.4-0.4l-0.4-0.4l-0.4-0.4l-0.4-0.4l-0.4-0.4l-0.4-0.4l-0.4-0.4l-0.4-0.4l-0.4-0.4l-0.1-0.1l0.9-1
	l0.1,0.1l0.4,0.4l0.4,0.4l0.4,0.4l0.4,0.4l0.4,0.4l0.4,0.4l0.4,0.4l0.4,0.4l0.4,0.4l0.4,0.4L211.3,65.5z M217.8,72.9l-1.1,0.8
	l-0.2-0.2l-0.3-0.4l-0.3-0.4l-0.4-0.4l-0.4-0.4l-0.4-0.4l-0.4-0.4l-0.4-0.4l-0.4-0.4l-0.4-0.4l-0.4-0.4l-0.2-0.2l1-0.9l0.2,0.2
	l0.4,0.4l0.4,0.4l0.4,0.4l0.4,0.4l0.4,0.4l0.4,0.4l0.4,0.4l0.4,0.4l0.4,0.4l0.4,0.4L217.8,72.9z M223.6,80.9l-1.1,0.7l-0.1-0.1
	l-0.3-0.5l-0.3-0.5l-0.3-0.5l-0.3-0.5l-0.3-0.5l-0.3-0.5l-0.3-0.5l-0.3-0.5l-0.3-0.4l-0.3-0.4l-0.3-0.4l1.1-0.8l0.3,0.4l0.3,0.5
	l0.3,0.5l0.3,0.5l0.3,0.5l0.3,0.5l0.3,0.5l0.3,0.5l0.3,0.5l0.3,0.5L223.6,80.9L223.6,80.9z M228.6,89.4l-1.2,0.6l-0.2-0.4l-0.3-0.5
	l-0.3-0.5l-0.3-0.5l-0.3-0.5l-0.3-0.5l-0.3-0.5l-0.3-0.5l-0.3-0.5l-0.3-0.5l-0.3-0.5l-0.1-0.1l1.1-0.7l0.1,0.1l0.3,0.5l0.3,0.5
	l0.3,0.5l0.3,0.5l0.3,0.5l0.3,0.5l0.3,0.5l0.3,0.5l0.3,0.5l0.3,0.5L228.6,89.4z M232.8,98.4l-1.2,0.5l-0.1-0.1l-0.2-0.5l-0.2-0.5
	l-0.2-0.5l-0.2-0.5l-0.2-0.5l-0.2-0.5l-0.2-0.5l-0.2-0.5l-0.2-0.5l-0.2-0.5l-0.2-0.3l1.2-0.6l0.2,0.3l0.2,0.5l0.2,0.5l0.2,0.5
	l0.2,0.5l0.2,0.5l0.2,0.5l0.2,0.5l0.2,0.5l0.2,0.5l0.2,0.5L232.8,98.4z M236.1,107.7l-1.3,0.4l-0.1-0.3l-0.2-0.5l-0.2-0.5l-0.2-0.5
	l-0.2-0.5l-0.2-0.5l-0.2-0.5l-0.2-0.5l-0.2-0.5l-0.2-0.5l-0.2-0.5l0-0.1l1.3-0.5l0,0.1l0.2,0.5l0.2,0.5l0.2,0.5l0.2,0.5l0.2,0.5
	l0.2,0.5l0.2,0.5l0.2,0.5l0.2,0.5l0.2,0.5L236.1,107.7z M238.5,117.3l-1.3,0.3l-0.1-0.4l-0.1-0.6l-0.1-0.6l-0.1-0.6l-0.1-0.6
	l-0.1-0.6l-0.1-0.6l-0.1-0.6l-0.1-0.6l-0.1-0.6l-0.1-0.5l1.3-0.3l0.1,0.5l0.1,0.6l0.1,0.6l0.1,0.6l0.1,0.6l0.1,0.6l0.1,0.6l0.1,0.6
	l0.1,0.6l0.1,0.6L238.5,117.3z M240,127.1l-1.3,0.1l0-0.4l-0.1-0.6l-0.1-0.6l-0.1-0.6l-0.1-0.6l-0.1-0.6l-0.1-0.6l-0.1-0.6l-0.1-0.6
	l-0.1-0.6l-0.1-0.5l1.3-0.2l0.1,0.5l0.1,0.6l0.1,0.6l0.1,0.6l0.1,0.6l0.1,0.6l0.1,0.6l0.1,0.6l0.1,0.6l0.1,0.6L240,127.1z
	 M240.5,136.9l-1.3,0l0-0.2l0-0.6l0-0.6l0-0.6l0-0.6l0-0.6l0-0.6l0-0.6l0-0.6l0-0.6l0-0.6l0,0l1.3-0.1l0,0.1l0,0.6l0,0.6l0,0.6
	l0,0.6l0,0.6l0,0.6l0,0.6l0,0.6l0,0.6l0,0.6L240.5,136.9z M240.2,146.8l-1.3-0.1l0-0.1l0.1-0.7l0-0.7l0-0.7l0-0.7l0-0.7l0-0.7l0-0.7
	l0-0.7l0-0.7l0,0l1.3,0l0,0l0,0.7l0,0.7l0,0.7l0,0.7l0,0.7l0,0.7l0,0.7l0,0.7l-0.1,0.7L240.2,146.8z M238.9,156.6l-1.3-0.2l0-0.1
	l0.1-0.6l0.1-0.6l0.1-0.6l0.1-0.6l0.1-0.6l0.1-0.6l0.1-0.6l0.1-0.6l0.1-0.6l0-0.1l1.3,0.2l0,0.1l-0.1,0.7l-0.1,0.7l-0.1,0.7
	l-0.1,0.7l-0.1,0.6l-0.1,0.6l-0.1,0.6l-0.1,0.6l-0.1,0.6L238.9,156.6z M236.7,166.3l-1.3-0.4l0.1-0.3l0.2-0.6l0.2-0.6l0.2-0.6
	l0.2-0.6l0.2-0.6l0.1-0.6l0.1-0.6l0.1-0.6l0.1-0.6l0-0.1l1.3,0.3l0,0.1L238,161l-0.1,0.6l-0.1,0.6l-0.2,0.6l-0.2,0.6l-0.2,0.6
	l-0.2,0.6l-0.2,0.6l-0.2,0.6L236.7,166.3z M233.6,175.6l-1.3-0.5l0.2-0.5l0.2-0.6l0.2-0.6l0.2-0.6l0.2-0.6l0.2-0.6l0.2-0.6l0.2-0.6
	l0.2-0.6l0.2-0.5l1.3,0.4l-0.2,0.5l-0.2,0.6l-0.2,0.6l-0.2,0.6l-0.2,0.6l-0.2,0.6l-0.2,0.6l-0.2,0.6l-0.2,0.6L233.6,175.6z
	 M229.6,184.7l-1.2-0.6l0.1-0.2l0.3-0.6l0.3-0.6l0.3-0.6l0.3-0.6l0.3-0.6l0.3-0.6l0.3-0.6l0.3-0.6l0.2-0.6l0.1-0.2l1.2,0.5l-0.1,0.2
	l-0.3,0.6l-0.3,0.6l-0.3,0.6l-0.3,0.6l-0.3,0.6l-0.3,0.6l-0.3,0.6l-0.3,0.6l-0.3,0.6L229.6,184.7z M224.7,193.3l-1.1-0.7l0,0
	l0.3-0.5l0.3-0.5l0.3-0.5l0.3-0.5l0.3-0.5l0.3-0.5l0.3-0.5l0.3-0.5l0.3-0.5l0.2-0.4l1.2,0.6l-0.2,0.4l-0.3,0.6l-0.3,0.6l-0.3,0.5
	l-0.3,0.5l-0.3,0.5l-0.3,0.5l-0.3,0.5l-0.3,0.5L224.7,193.3L224.7,193.3z M219.1,201.4l-1.1-0.8l0.3-0.4l0.4-0.5l0.4-0.5l0.4-0.5
	l0.4-0.5l0.4-0.5l0.4-0.5l0.4-0.5l0.4-0.5l0.3-0.5l0,0l1.1,0.7l0,0l-0.4,0.5l-0.4,0.5l-0.4,0.5l-0.4,0.5l-0.4,0.5l-0.4,0.5l-0.4,0.5
	l-0.4,0.5l-0.4,0.5L219.1,201.4z M212.7,209l-1-0.9l0.2-0.2l0.4-0.5l0.4-0.5l0.4-0.5l0.4-0.5l0.4-0.5l0.4-0.5l0.4-0.5l0.4-0.5
	l0.4-0.5l0.1-0.2l1,0.9l-0.1,0.2l-0.4,0.5l-0.4,0.5l-0.4,0.5l-0.4,0.5l-0.4,0.5l-0.4,0.5l-0.4,0.5l-0.4,0.5l-0.4,0.5L212.7,209z
	 M205.7,215.9l-0.9-1l0.1-0.1l0.5-0.4l0.5-0.4l0.5-0.4l0.5-0.4l0.4-0.4l0.4-0.4l0.4-0.4l0.4-0.4l0.4-0.4l0.3-0.3l1,0.9l-0.3,0.3
	l-0.4,0.4l-0.4,0.4l-0.4,0.4l-0.5,0.4l-0.5,0.4l-0.5,0.4l-0.5,0.4l-0.5,0.4l-0.5,0.4L205.7,215.9z M198,222.2l-0.8-1.1l0,0l0.5-0.4
	l0.5-0.4l0.5-0.4l0.5-0.4l0.5-0.4l0.5-0.4l0.5-0.4l0.5-0.4l0.5-0.4l0.4-0.3l0.9,1l-0.4,0.3l-0.5,0.4l-0.5,0.4l-0.5,0.4l-0.5,0.4
	l-0.5,0.4l-0.5,0.4l-0.5,0.4l-0.5,0.4L198,222.2L198,222.2z M172,236.2l-0.5-1.3l0.5-0.2l0.6-0.2l0.6-0.2l0.6-0.2l0.6-0.2l0.6-0.2
	l0.6-0.2l0.6-0.2l0.6-0.2l0.5-0.2l0.5,1.2l-0.5,0.2l-0.6,0.2l-0.6,0.2l-0.6,0.2l-0.6,0.2l-0.6,0.2l-0.6,0.2l-0.6,0.2l-0.6,0.2
	L172,236.2z M162.6,239.1l-0.3-1.3l0.2,0l0.6-0.2l0.6-0.2l0.6-0.2l0.6-0.2l0.6-0.2l0.6-0.2l0.6-0.2l0.6-0.2l0.6-0.2l0.2-0.1l0.4,1.3
	l-0.2,0.1l-0.6,0.2l-0.6,0.2l-0.6,0.2l-0.6,0.2l-0.6,0.2l-0.6,0.2l-0.6,0.2l-0.6,0.2l-0.6,0.2L162.6,239.1z M152.9,241.2l-0.2-1.3
	l0.3,0l0.6-0.1l0.6-0.1l0.6-0.1l0.6-0.1l0.6-0.1l0.6-0.1l0.6-0.1l0.6-0.1l0.6-0.1l0,0l0.3,1.3l0,0l-0.6,0.1l-0.6,0.1l-0.6,0.1
	l-0.6,0.1l-0.6,0.1l-0.6,0.1l-0.6,0.1l-0.6,0.1l-0.6,0.1L152.9,241.2z M143.1,242.3L143,241l0.3,0l0.7,0l0.7-0.1l0.7-0.1l0.7-0.1
	l0.7-0.1l0.6-0.1l0.6-0.1l0.6-0.1l0.6-0.1l0.2,1.3l-0.6,0.1l-0.7,0.1l-0.7,0.1l-0.7,0.1l-0.7,0.1l-0.7,0.1l-0.7,0.1l-0.7,0.1l-0.7,0
	L143.1,242.3z M133.2,242.5l0-1.3l0.1,0l0.7,0l0.7,0l0.7,0l0.7,0l0.7,0l0.7,0l0.7,0l0.7,0l0.7,0l0,0l0.1,1.3l0,0l-0.7,0l-0.7,0
	l-0.7,0l-0.7,0l-0.7,0l-0.7,0l-0.7,0l-0.7,0L133.2,242.5L133.2,242.5z M123.4,241.8l0.2-1.3l0.6,0.1l0.6,0.1l0.7,0.1l0.7,0.1
	l0.7,0.1l0.7,0.1l0.7,0.1l0.7,0l0.7,0l0.2,0l-0.1,1.3l-0.2,0l-0.7,0l-0.7,0l-0.7-0.1l-0.7-0.1l-0.7-0.1l-0.7-0.1l-0.7-0.1l-0.7-0.1
	L123.4,241.8z M113.6,240.1l0.3-1.3l0,0l0.6,0.1l0.6,0.1l0.6,0.1l0.6,0.1l0.6,0.1l0.6,0.1l0.6,0.1l0.6,0.1l0.6,0.1l0.2,0l-0.2,1.3
	l-0.3,0l-0.6-0.1l-0.6-0.1l-0.6-0.1l-0.6-0.1l-0.6-0.1l-0.6-0.1l-0.6-0.1l-0.6-0.1L113.6,240.1L113.6,240.1z M104.1,237.6l0.4-1.3
	l0.2,0.1l0.6,0.2l0.6,0.2l0.6,0.2l0.6,0.2l0.6,0.2l0.6,0.2l0.6,0.2l0.6,0.2l0.6,0.2l0.1,0l-0.3,1.3l-0.1,0l-0.6-0.2l-0.6-0.2
	l-0.6-0.2l-0.6-0.2l-0.6-0.2l-0.6-0.2l-0.6-0.2l-0.6-0.2l-0.6-0.2L104.1,237.6z M94.8,234.1l0.5-1.2l0.5,0.2l0.6,0.2l0.6,0.2
	l0.6,0.2l0.6,0.2l0.6,0.2l0.6,0.2l0.6,0.2l0.6,0.2l0.5,0.2l-0.5,1.3l-0.5-0.2l-0.6-0.2l-0.6-0.2l-0.6-0.2l-0.6-0.2l-0.6-0.2
	l-0.6-0.2l-0.6-0.2l-0.6-0.2L94.8,234.1z M69.6,218.7l0.9-1l0.4,0.3l0.5,0.4l0.5,0.4l0.5,0.4l0.5,0.4l0.5,0.4l0.5,0.4l0.5,0.4
	l0.5,0.4l0.5,0.4l-0.8,1.1l-0.5-0.4l-0.5-0.4l-0.5-0.4l-0.5-0.4l-0.5-0.4l-0.5-0.4l-0.5-0.4l-0.5-0.4l-0.5-0.4L69.6,218.7z
	 M62.2,212.1l0.9-1l0.3,0.3l0.4,0.4l0.4,0.4l0.4,0.4l0.4,0.4l0.5,0.4l0.5,0.4l0.5,0.4l0.5,0.4l0.5,0.4l0.1,0.1l-0.9,1l-0.1-0.1
	l-0.5-0.4l-0.5-0.4l-0.5-0.4l-0.5-0.4l-0.5-0.4l-0.5-0.4l-0.5-0.4l-0.5-0.4l-0.4-0.4L62.2,212.1z M55.6,204.8l1-0.9l0.1,0.2l0.4,0.5
	l0.4,0.5l0.4,0.5l0.4,0.5l0.4,0.5l0.4,0.5l0.4,0.5l0.4,0.5l0.4,0.5l0.2,0.2l-1,0.9l-0.2-0.2l-0.4-0.5l-0.4-0.5l-0.4-0.5l-0.4-0.5
	l-0.4-0.5l-0.4-0.5l-0.4-0.5l-0.4-0.5l-0.4-0.5L55.6,204.8z M49.6,196.9l1.1-0.8l0,0.1l0.4,0.5l0.4,0.5l0.4,0.5l0.4,0.5l0.4,0.5
	l0.4,0.5l0.4,0.5l0.4,0.5l0.4,0.5l0.3,0.4l-1.1,0.8l-0.3-0.4l-0.4-0.5l-0.4-0.5l-0.4-0.5l-0.4-0.5l-0.4-0.5l-0.4-0.5l-0.4-0.5
	l-0.4-0.5L49.6,196.9L49.6,196.9z M44.4,188.5l1.2-0.7l0.2,0.4l0.3,0.5l0.3,0.5l0.3,0.5l0.3,0.5l0.3,0.5l0.3,0.5l0.3,0.5l0.3,0.5
	l0.3,0.5l0,0l-1.1,0.7l0,0l-0.3-0.5l-0.3-0.5l-0.3-0.5l-0.3-0.5l-0.3-0.5l-0.3-0.5l-0.3-0.5l-0.3-0.5l-0.3-0.6L44.4,188.5z
	 M40.1,179.6l1.2-0.5l0.1,0.2l0.3,0.6l0.3,0.6l0.3,0.6l0.3,0.6l0.3,0.6l0.3,0.6l0.3,0.6l0.3,0.6l0.3,0.6l0.1,0.2l-1.2,0.6l-0.1-0.2
	l-0.3-0.6l-0.3-0.6l-0.3-0.6l-0.3-0.6l-0.3-0.6l-0.3-0.6l-0.3-0.6l-0.3-0.6l-0.3-0.6L40.1,179.6z M36.6,170.4l1.3-0.4l0.2,0.5
	l0.2,0.6l0.2,0.6l0.2,0.6l0.2,0.6l0.2,0.6l0.2,0.6l0.2,0.6l0.2,0.6l0.2,0.5l-1.3,0.5l-0.2-0.5l-0.2-0.6l-0.2-0.6l-0.2-0.6l-0.2-0.6
	l-0.2-0.6l-0.2-0.6l-0.2-0.6l-0.2-0.6L36.6,170.4z M33.9,160.9l1.3-0.3l0,0.1l0.1,0.6l0.1,0.6l0.1,0.6l0.2,0.6l0.2,0.6l0.2,0.6
	l0.2,0.6l0.2,0.6l0.2,0.6l0.1,0.2l-1.3,0.4l-0.1-0.2l-0.2-0.6l-0.2-0.6l-0.2-0.6l-0.2-0.6l-0.2-0.6l-0.2-0.6l-0.2-0.6l-0.1-0.6
	L34,161L33.9,160.9z M32.3,151.1l1.3-0.2l0,0.2l0.1,0.6l0.1,0.6l0.1,0.6l0.1,0.6l0.1,0.6l0.1,0.6l0.1,0.6l0.1,0.6l0.1,0.6l0,0.1
	l-1.3,0.3l0-0.1l-0.1-0.6l-0.1-0.6l-0.1-0.6l-0.1-0.6l-0.1-0.6l-0.1-0.6l-0.1-0.7l-0.1-0.7l-0.1-0.7L32.3,151.1z M31.5,141.3l1.3,0
	l0,0.1l0,0.7l0,0.7l0,0.7l0,0.7l0,0.7l0,0.7l0,0.7l0.1,0.7l0.1,0.7l0,0.1l-1.3,0.1l0-0.1l-0.1-0.7l-0.1-0.7l0-0.7l0-0.7l0-0.7l0-0.7
	l0-0.7l0-0.7L31.5,141.3L31.5,141.3z M31.6,131.4l1.3,0.1l0,0.6l0,0.7l0,0.7l0,0.7l0,0.7l0,0.7l0,0.7l0,0.7l0,0.7l0,0.2h-1.3l0-0.2
	l0-0.7l0-0.7l0-0.7l0-0.7l0-0.7l0-0.7l0-0.7l0-0.7L31.6,131.4z M32.7,121.6l1.3,0.2l-0.1,0.5l-0.1,0.6l-0.1,0.6l-0.1,0.6l-0.1,0.6
	l-0.1,0.6l-0.1,0.6l-0.1,0.6l-0.1,0.6l0,0.4l-1.3-0.1l0-0.4l0.1-0.7l0.1-0.7l0.1-0.7l0.1-0.7l0.1-0.7l0.1-0.7l0.1-0.7l0.1-0.6
	L32.7,121.6z M34.7,111.9l1.3,0.3l-0.2,0.6l-0.2,0.6l-0.1,0.6l-0.1,0.6l-0.1,0.6l-0.1,0.6l-0.1,0.6l-0.1,0.6l-0.1,0.6l-0.1,0.3
	l-1.3-0.3l0.1-0.3l0.1-0.6l0.1-0.6l0.1-0.6L34,115l0.1-0.6l0.1-0.6l0.2-0.6l0.2-0.6L34.7,111.9z M37.6,102.4l1.3,0.5l-0.1,0.2
	l-0.2,0.6l-0.2,0.6l-0.2,0.6l-0.2,0.6l-0.2,0.6l-0.2,0.6l-0.2,0.6l-0.2,0.6l-0.2,0.6l0,0.2l-1.3-0.4l0.1-0.2l0.2-0.6l0.2-0.6
	l0.2-0.6l0.2-0.6l0.2-0.6l0.2-0.6l0.2-0.6l0.2-0.6l0.2-0.6L37.6,102.4z M41.4,93.3l1.2,0.6l-0.2,0.5L42.2,95l-0.3,0.6l-0.3,0.6
	l-0.3,0.6l-0.3,0.6l-0.2,0.6l-0.2,0.6L40.4,99l-0.2,0.5L39,99l0.2-0.5l0.2-0.6l0.2-0.6l0.2-0.6l0.3-0.6l0.3-0.6l0.3-0.6l0.3-0.6
	l0.3-0.6L41.4,93.3z M46.1,84.6l1.2,0.7l-0.2,0.3l-0.3,0.5l-0.3,0.5l-0.3,0.5l-0.3,0.5l-0.3,0.5l-0.3,0.5l-0.3,0.5l-0.3,0.6
	l-0.3,0.6l-0.1,0.1L43.1,90l0.1-0.2l0.3-0.6l0.3-0.6l0.3-0.6l0.3-0.6l0.3-0.6l0.3-0.6l0.3-0.5l0.3-0.5l0.3-0.5L46.1,84.6z
	 M51.5,76.3l1.1,0.8l-0.1,0.1l-0.4,0.5l-0.4,0.5l-0.4,0.5l-0.4,0.5l-0.4,0.5l-0.3,0.5l-0.3,0.5l-0.3,0.5l-0.3,0.5l-0.2,0.3L48,81.4
	l0.2-0.3l0.3-0.5l0.3-0.5l0.4-0.5l0.4-0.5l0.4-0.5l0.4-0.5l0.4-0.5l0.4-0.5l0.4-0.5L51.5,76.3z M57.7,68.6l1,0.9L58.4,70L58,70.5
	l-0.4,0.5l-0.4,0.5l-0.4,0.5l-0.4,0.5L56,72.8l-0.4,0.5l-0.4,0.5l-0.3,0.4l-1.1-0.8l0.3-0.4l0.4-0.5l0.4-0.5l0.4-0.5l0.4-0.5
	l0.4-0.5l0.4-0.5l0.4-0.5l0.4-0.5L57.7,68.6z M64.6,61.6l0.9,1l-0.3,0.3l-0.4,0.4l-0.4,0.4l-0.4,0.4l-0.4,0.4L63,65l-0.4,0.4
	l-0.4,0.4l-0.4,0.4l-0.4,0.4l-0.1,0.1l-1-0.9l0.1-0.1l0.4-0.5l0.4-0.4l0.4-0.4l0.4-0.4l0.4-0.4l0.4-0.4l0.5-0.4l0.5-0.4l0.5-0.4
	L64.6,61.6z M72.2,55.2l0.8,1.1l-0.2,0.2l-0.5,0.4l-0.5,0.4l-0.5,0.4L70.8,58l-0.5,0.4l-0.5,0.4l-0.5,0.4l-0.5,0.4L68.5,60l-0.2,0.1
	l-0.9-1l0.2-0.2l0.5-0.4l0.5-0.4l0.5-0.4l0.5-0.4l0.5-0.4l0.5-0.4l0.5-0.4l0.5-0.4l0.5-0.4L72.2,55.2z M80.3,49.5l0.7,1.1l-0.1,0.1
	L80.4,51l-0.5,0.3l-0.5,0.3l-0.5,0.3l-0.5,0.3l-0.5,0.3l-0.5,0.4l-0.5,0.4l-0.5,0.4l-0.3,0.2L75.2,53l0.3-0.2l0.5-0.4l0.5-0.4
	l0.5-0.4l0.5-0.4l0.5-0.4l0.5-0.3l0.5-0.3l0.5-0.3l0.5-0.3L80.3,49.5z M88.9,44.6l0.6,1.2L89,46.1l-0.6,0.3l-0.6,0.3l-0.6,0.3
	l-0.5,0.3l-0.5,0.3l-0.5,0.3l-0.5,0.3l-0.5,0.3l-0.5,0.3l-0.7-1.2l0.5-0.3l0.5-0.3l0.6-0.3l0.6-0.3l0.6-0.3l0.6-0.3l0.6-0.3l0.6-0.3
	l0.6-0.3L88.9,44.6z M97.9,40.6l0.5,1.3l-0.2,0.1l-0.6,0.2L97,42.4l-0.6,0.2l-0.6,0.2l-0.6,0.2l-0.6,0.2l-0.6,0.3l-0.6,0.3L93,44.2
	l-0.2,0.1L92.2,43l0.2-0.1l0.6-0.3l0.6-0.3l0.6-0.3l0.6-0.3l0.6-0.2l0.6-0.2l0.6-0.2l0.6-0.2l0.6-0.2L97.9,40.6z M107.3,37.4
	l0.4,1.3l-0.5,0.1l-0.6,0.2l-0.6,0.2l-0.6,0.2l-0.6,0.2l-0.6,0.2l-0.6,0.2l-0.6,0.2l-0.6,0.2l-0.5,0.2l-0.4-1.3l0.5-0.2l0.6-0.2
	l0.6-0.2l0.6-0.2l0.6-0.2l0.6-0.2l0.6-0.2l0.6-0.2l0.6-0.2L107.3,37.4z M116.9,35.2l0.2,1.3l0,0l-0.6,0.1l-0.6,0.1l-0.6,0.1
	l-0.6,0.1l-0.6,0.1l-0.6,0.1l-0.6,0.1l-0.6,0.1l-0.6,0.1l-0.3,0.1l-0.3-1.3l0.3-0.1l0.6-0.2l0.6-0.1L113,36l0.6-0.1l0.6-0.1l0.6-0.1
	l0.6-0.1l0.6-0.1L116.9,35.2L116.9,35.2z M126.7,33.8l0.1,1.3l-0.1,0l-0.7,0.1l-0.7,0.1l-0.7,0.1l-0.6,0.1l-0.6,0.1l-0.6,0.1
	l-0.6,0.1l-0.6,0.1l-0.6,0.1l-0.2,0l-0.2-1.3l0.2,0l0.7-0.1l0.7-0.1l0.7-0.1l0.7-0.1l0.7-0.1l0.7-0.1l0.7-0.1l0.7-0.1L126.7,33.8
	L126.7,33.8z M136.6,33.4l0,1.3l0,0l-0.1,0l-0.1,0l-0.1,0h-0.1l-0.1,0h-0.1H136l-0.7,0l-0.7,0l-0.7,0l-0.7,0l-0.7,0l-0.7,0l-0.7,0
	l-0.7,0l-0.2,0l-0.1-1.3l0.2,0l0.7,0l0.7,0l0.7,0l0.7,0l0.7,0l0.7,0l0.7,0l0.7,0h0.1h0.1l0.1,0h0.1l0.1,0l0.1,0L136.6,33.4
	L136.6,33.4z M146.4,34l-0.1,1.3l-0.1,0l-0.1,0l-0.1,0l-0.1,0l-0.1,0l-0.1,0l-0.1,0l-0.1,0l-0.1,0l-0.1,0l-0.1,0l-0.1,0l-0.1,0
	l-0.1,0l-0.1,0l-0.1,0l-0.1,0l-0.1,0l-0.1,0l-0.1,0l-0.1,0l-0.1,0l-0.1,0l-0.1,0l-0.1,0l-0.1,0l-0.1,0l-0.1,0l-0.1,0l-0.1,0l-0.1,0
	l-0.1,0l-0.1,0l-0.1,0l-0.1,0l-0.1,0l-0.1,0l-0.1,0l-0.1,0l-0.1,0l-0.1,0l-0.1,0l-0.1,0l-0.1,0l-0.1,0l-0.1,0l-0.1,0l-0.1,0l-0.1,0
	l-0.1,0l-0.1,0l-0.1,0l-0.1,0l-0.1,0l-0.1,0l-0.1,0l-0.1,0l-0.1,0l-0.1,0l-0.1,0l-0.1,0l-0.1,0l-0.1,0l-0.1,0l-0.1,0l-0.1,0l-0.1,0
	l-0.1,0l-0.1,0l-0.1,0l-0.1,0l-0.1,0l-0.1,0l-0.1,0l-0.1,0l-0.1,0l-0.1,0l-0.1,0l-0.1,0l-0.1,0l-0.1,0l-0.1,0l-0.1,0l-0.1,0l-0.1,0
	l0,0l0.1-1.3l0,0l0.1,0l0.1,0l0.1,0l0.1,0l0.1,0l0.1,0l0.1,0l0.1,0l0.1,0l0.1,0l0.1,0l0.1,0l0.1,0l0.1,0l0.1,0l0.1,0l0.1,0l0.1,0
	l0.1,0l0.1,0l0.1,0l0.1,0l0.1,0l0.1,0l0.1,0l0.1,0l0.1,0l0.1,0l0.1,0l0.1,0l0.1,0l0.1,0l0.1,0l0.1,0l0.1,0l0.1,0l0.1,0l0.1,0l0.1,0
	l0.1,0l0.1,0l0.1,0l0.1,0l0.1,0l0.1,0l0.1,0l0.1,0l0.1,0l0.1,0l0.1,0l0.1,0l0.1,0l0.1,0l0.1,0l0.1,0l0.1,0l0.1,0l0.1,0l0.1,0l0.1,0
	l0.1,0l0.1,0l0.1,0l0.1,0l0.1,0l0.1,0l0.1,0l0.1,0l0.1,0l0.1,0l0.1,0l0.1,0l0.1,0l0.1,0l0.1,0l0.1,0l0.1,0l0.1,0l0.1,0l0.1,0l0.1,0
	l0.1,0l0.1,0L146.4,34L146.4,34z M197.1,238c0,1.3,0.2,2.9,0.5,4.8c0.2,1.3,0.6,2.3,1,3.1c0.5,0.8,1,1.3,1.7,1.6
	c0.7,0.2,1.3,0.2,1.9-0.2c0.6-0.3,1-0.8,1.3-1.3c0.4-0.8,0.7-1.7,0.8-2.8c0.1-1.1,0.1-2.3-0.2-3.5c-0.3-1.3-0.7-2.4-1.2-3.3
	c-0.4-0.6-0.9-1.2-1.5-1.6c-0.3-0.2-0.5-0.3-0.5-0.4c-0.1-0.1-0.1-0.1-0.2-0.2c-0.1-0.2-0.1-0.3-0.1-0.5c0-0.2,0.1-0.3,0.3-0.4
	c0.3-0.2,0.6-0.1,0.9,0.1c0.4,0.3,0.9,0.8,1.4,1.6c1,1.7,1.6,3.7,1.8,5.8c0.2,2.1,0.1,3.9-0.5,5.2c-0.6,1.3-1.4,2.3-2.5,2.9
	c-0.9,0.5-1.7,0.6-2.5,0.3c-0.8-0.3-1.5-0.9-2-1.8c-0.4-0.7-0.7-1.5-0.9-2.4c-0.3-1.1-0.5-2.9-0.7-5.4c-0.7,0.4-1.3,0.8-1.7,1.4
	c-0.4,0.5-0.7,1-0.8,1.4c-0.1,0.4,0,0.8,0.1,1.1c0.1,0.1,0.2,0.2,0.5,0.4c0.3,0.2,0.4,0.3,0.5,0.4c0.1,0.2,0.1,0.3,0.1,0.5
	c0,0.2-0.1,0.3-0.3,0.4c-0.2,0.1-0.4,0.1-0.6,0c-0.2-0.1-0.4-0.3-0.6-0.5c-0.2-0.4-0.4-0.9-0.4-1.5c0-0.6,0.1-1.1,0.4-1.6
	c0.3-0.5,0.6-1,1.2-1.4c0.3-0.2,0.8-0.6,1.7-1.2C196.6,238.3,197,238.1,197.1,238z M191.9,241.4l0,0.2c-0.4,0.3-0.7,0.7-1,1
	c-0.2,0.3-0.5,0.8-0.8,1.6c-0.8,1.9-1.6,3.4-2.4,4.5c0.5,0.2,0.9,0.5,1.4,0.9c0.4,0.4,1.3,1.2,2.6,2.7c1.2,1.3,2.1,2,2.8,2.3
	c0.7,0.3,1.3,0.3,1.9,0.1c0.5-0.2,0.7-0.6,0.6-1.2c0-0.4,0-0.6,0-0.7c0.1-0.1,0.2-0.2,0.3-0.3c0.1-0.1,0.3-0.1,0.4,0
	c0.1,0.1,0.3,0.1,0.3,0.3c0.2,0.4,0.1,0.8-0.1,1.3c-0.3,0.5-0.7,0.9-1.4,1.2c-0.6,0.3-1.1,0.4-1.8,0.3c-0.6,0-1.3-0.3-2-0.7
	c-0.7-0.4-1.6-1.2-2.6-2.2c-1-1-1.7-1.7-2.1-2c-0.4-0.3-0.9-0.7-1.6-1l0.7,4c0.2,0.8,0.3,1.4,0.4,1.7c0.5,0,0.9-0.1,1.2-0.2
	c0.1,0,0.2-0.1,0.3-0.2l0.1,0.5c-0.1,0.1-0.2,0.1-0.2,0.1c-0.2,0.1-0.5,0.2-0.9,0.3c-0.4,0.1-0.7,0.3-1,0.4
	c-0.5,0.2-1.2,0.7-2.2,1.4l-0.1-0.4c0.5-0.4,0.8-0.7,1-1c0.1-0.3,0.2-0.7,0.1-1.2c-0.1-1.1-0.4-2.7-0.8-4.9l-0.8-4.6
	c-1.1,0.6-1.9,1.3-2.4,2.1c-0.4,0.6-0.4,1.1-0.2,1.5c0.1,0.2,0.2,0.3,0.5,0.5c0.2,0.1,0.4,0.3,0.4,0.4c0.1,0.2,0.1,0.3,0,0.5
	c-0.1,0.2-0.2,0.3-0.3,0.4c-0.2,0.1-0.4,0.1-0.6,0c-0.2-0.1-0.4-0.3-0.6-0.6c-0.4-0.8-0.3-1.7,0.2-2.8c0.5-1,1.8-2,3.8-3l0.6-0.3
	c0.1,1,0.1,1.7,0.2,2.1l0.5,3c0.4-0.4,0.7-0.9,1.1-1.6c0.4-0.7,0.8-1.4,1.1-2.1c0.6-1.3,0.9-2,1-2.3c0-0.1,0-0.1,0-0.2
	c0,0-0.1-0.1-0.2,0c-0.1,0-0.5,0.2-1.1,0.4l-0.1-0.5c0.8-0.3,1.4-0.5,1.9-0.8C190.8,242,191.3,241.7,191.9,241.4z M175.8,249
	c-0.7,0.2-1.3,0.7-1.8,1.3c-0.5,0.6-0.7,1.5-0.8,2.5c-0.1,1,0.1,2.1,0.5,3.3c0.5,1.4,1.1,2.3,2,2.8c0.8,0.5,1.7,0.6,2.6,0.3
	c0.7-0.2,1.2-0.7,1.7-1.3c0.4-0.6,0.7-1.5,0.8-2.6c0.1-1.1-0.1-2.2-0.5-3.4c-0.4-1.3-1.1-2.1-1.9-2.6
	C177.5,248.8,176.6,248.7,175.8,249z M176.2,248.1c0.8-0.3,1.5-0.3,2.3-0.2c0.7,0.1,1.4,0.5,2,1c0.6,0.5,1,1.3,1.3,2.1
	c0.4,1.2,0.5,2.4,0.3,3.8c-0.2,1.4-0.7,2.5-1.4,3.4c-0.7,0.9-1.6,1.5-2.7,1.9c-1.3,0.4-2.4,0.4-3.5-0.1c-1-0.5-1.8-1.4-2.2-2.7
	c-0.4-1.2-0.5-2.5-0.3-3.9c0.2-1.4,0.7-2.5,1.4-3.4C174.1,249.1,175,248.5,176.2,248.1z M171.2,261.3l0,0.6c-0.4,0.2-0.8,0.3-1,0.4
	c-0.3,0.1-0.7,0.1-1.3,0.2c-0.5,0.1-0.9,0.2-1.3,0.3c-0.6,0.2-1.3,0.4-1.9,0.7l0-0.6c0.6-0.2,1.1-0.5,1.3-0.7
	c0.2-0.2,0.3-0.5,0.4-0.9c0.1-0.4,0.1-1.7,0.1-3.9l0-5.3l0-0.3c-0.4,0.1-0.7,0.1-0.8,0.2c-1.2,0.3-2.1,0.7-2.7,1.1
	c-0.6,0.4-1,0.9-1.3,1.5c-0.2,0.6-0.3,1.1-0.1,1.7c0,0.2,0.1,0.4,0.2,0.5c0.1,0.1,0.3,0.3,0.6,0.4c0.3,0.2,0.4,0.4,0.5,0.6
	c0,0.2,0,0.3-0.1,0.5c-0.1,0.2-0.2,0.2-0.4,0.3c-0.3,0.1-0.5,0-0.7-0.2c-0.3-0.3-0.6-0.8-0.7-1.3c-0.2-0.8-0.1-1.6,0.2-2.4
	c0.3-0.8,0.8-1.6,1.5-2.2c0.7-0.6,1.7-1.1,2.9-1.3c0.6-0.1,1.5-0.3,2.8-0.4c0.9-0.1,1.6-0.2,2-0.3c0.4-0.1,0.7-0.2,0.8-0.4
	c0.1-0.2,0.2-0.4,0.1-0.6c0,0,0-0.1-0.1-0.3c0-0.1-0.1-0.2-0.1-0.2c0-0.2,0-0.3,0.1-0.5c0.1-0.1,0.2-0.2,0.4-0.3
	c0.2,0,0.4,0,0.5,0.1c0.2,0.1,0.3,0.3,0.3,0.5c0.1,0.5,0,1-0.5,1.4c-0.4,0.5-1.2,0.9-2.4,1.2c-0.4,0.1-0.9,0.2-1.4,0.3
	c0,0.2,0,1.1,0,2.5l0,3.5l0,2.1l0,2.4c0.4-0.1,0.8-0.1,1.1-0.2C170.3,261.7,170.8,261.5,171.2,261.3z M161.5,256.2l-0.5,0.1
	c0-0.7-0.1-1.2-0.2-1.5c-0.1-0.5-0.3-0.9-0.6-1.1c-0.3-0.2-0.7-0.3-1.2-0.2c-0.7,0.1-1.3,0.5-1.7,1.1c-0.4,0.6-0.6,1.2-0.5,1.9
	c0.1,0.3,0.2,0.6,0.4,0.9c0.2,0.3,0.6,0.6,1.2,1c1.1,0.7,1.8,1.3,2.1,1.8c0.4,0.5,0.6,0.9,0.7,1.4c0.1,0.7,0,1.4-0.3,2.1
	c-0.3,0.7-0.8,1.4-1.6,1.9c-0.8,0.6-1.6,0.9-2.5,1.1c-0.9,0.2-1.7,0.1-2.4-0.3c-0.7-0.4-1.1-0.8-1.2-1.3c0-0.3,0-0.5,0.1-0.7
	c0.1-0.2,0.3-0.3,0.5-0.4c0.2,0,0.4,0,0.6,0.2c0.1,0.1,0.2,0.3,0.4,0.6c0.2,0.4,0.4,0.7,0.5,0.9c0.2,0.2,0.4,0.3,0.7,0.4
	c0.3,0.1,0.6,0.1,0.9,0c0.9-0.2,1.7-0.6,2.2-1.3c0.6-0.7,0.8-1.5,0.7-2.2c0-0.3-0.1-0.5-0.3-0.7c-0.1-0.2-0.3-0.5-0.6-0.8
	c-0.2-0.2-0.6-0.5-1.3-1c-0.6-0.4-1-0.7-1.2-0.9c-0.3-0.3-0.4-0.5-0.6-0.8c-0.1-0.3-0.2-0.6-0.3-0.8c-0.1-0.6,0-1.2,0.3-1.9
	c0.3-0.7,0.7-1.2,1.3-1.7c0.6-0.5,1.2-0.8,2-0.9c0.4-0.1,0.9-0.1,1.5-0.1c0.3,0,0.6,0,0.9,0c-0.1,0.4-0.1,0.8-0.1,1.2
	C161.4,254.4,161.4,255.1,161.5,256.2z M145.4,266.7l-1.7-10.4c0,1.8-0.2,3.4-0.5,5c-0.3,1.6-0.7,2.8-1.2,3.7
	c-0.5,0.9-1,1.5-1.6,1.9c-0.6,0.4-1.2,0.6-1.7,0.7c-0.4,0-0.6,0-0.8-0.1c-0.2-0.1-0.3-0.3-0.3-0.5c0-0.2,0-0.3,0.2-0.5
	c0.1-0.1,0.3-0.2,0.5-0.2c0.2,0,0.4,0,0.7,0c0.3,0,0.5,0.1,0.7,0.1c0.3,0,0.6-0.2,0.9-0.4c0.5-0.4,0.9-1,1.3-1.9
	c0.4-0.9,0.7-2.2,1-3.8c0.3-1.6,0.4-3.1,0.3-4.6c-1.5,0.1-2.6,0.6-3.5,1.4c-0.7,0.6-1,1.3-0.9,2c0,0.3,0.2,0.7,0.6,1.1
	c0.2,0.2,0.3,0.4,0.3,0.6c0,0.2,0,0.3-0.1,0.4c-0.1,0.1-0.2,0.2-0.4,0.2c-0.3,0-0.5-0.1-0.7-0.4c-0.3-0.4-0.5-0.8-0.5-1.3
	c-0.1-0.7,0.1-1.5,0.6-2.2c0.4-0.7,1.1-1.3,1.9-1.7c0.8-0.4,1.9-0.7,3-0.8c0.6-0.1,1.1-0.2,1.5-0.3c0,0.6,0,0.9,0.1,0.9
	c0,0.1,0,0.2,0.1,0.4l1.2,7.3c1.3-2.9,2.6-5.2,4-7.1c0.9-1.3,1.8-2.3,2.5-2.8c-0.3,1.3-0.7,2.9-1,5l-0.8,4.8c0,0.3-0.1,0.7-0.2,1.2
	l-0.1,1.1c0.5,0.1,1,0.1,1.4,0.1c0.3,0,0.7-0.1,1.1-0.2l-0.1,0.6c-0.3,0.1-0.6,0.1-0.8,0.2c-0.3,0-0.6,0-1.2,0c-0.4,0-0.8,0-1.1,0
	c-0.3,0-0.7,0.1-1.1,0.3c0.3-1,0.5-2.2,0.8-3.9l0.5-3c0.2-1.3,0.4-2.2,0.6-2.7c-0.5,0.6-1.2,1.8-2.1,3.5c-0.8,1.3-1.6,3-2.5,5.1
	L145.4,266.7z M135.7,266.1l-0.2,0.6c-0.4,0.1-0.8,0.1-1,0.1c-0.3,0-0.7-0.1-1.2-0.1c-0.5-0.1-0.8-0.1-1.1-0.1c-0.4,0-1,0-1.8,0.1
	l0.2-0.5c0.6-0.1,1-0.3,1.2-0.5c0.2-0.2,0.4-0.9,0.9-2.3c0.4-1.4,0.6-2.3,0.6-2.7c0-0.9-0.1-1.8-0.4-2.7c-0.3-0.9-0.7-1.7-1.2-2.3
	c-1,0.3-1.7,0.6-2.1,0.9c-0.4,0.3-0.8,0.7-1,1.1c-0.3,0.4-0.4,0.8-0.4,1.2c0,0.3,0.1,0.6,0.4,0.9c0.2,0.3,0.4,0.5,0.4,0.7
	c0,0.2-0.1,0.3-0.2,0.4c-0.1,0.1-0.2,0.2-0.4,0.2c-0.3,0-0.5-0.1-0.7-0.4c-0.2-0.4-0.3-0.8-0.3-1.3c0-0.7,0.3-1.4,0.7-2
	c0.4-0.6,1-1.1,1.7-1.5c0.4-0.2,1.1-0.5,2.1-0.7c0.4-0.1,0.7-0.2,1-0.3c0.5,0.7,0.9,1.5,1.2,2.4c0.3,0.9,0.5,2,0.6,3.3
	c1.3-2.5,2.5-4.2,3.6-5.2c1.1-1,2-1.5,2.7-1.5c0.2,0,0.4,0.1,0.5,0.2c0.1,0.1,0.2,0.3,0.2,0.5c0,0.2-0.1,0.3-0.3,0.4
	c-0.2,0.1-0.5,0.2-0.9,0.2c-0.5,0-0.8,0.1-1.1,0.2c-0.5,0.3-1.1,0.8-1.8,1.6c-0.7,0.8-1.4,1.8-2.1,2.9c-0.7,1.2-1.2,2.4-1.6,3.7
	c-0.4,1.3-0.6,2.1-0.6,2.5c0.3,0.1,0.6,0.1,0.9,0.1C134.6,266.3,135.1,266.2,135.7,266.1z M119.9,260.5c-0.6,1.6-1.1,2.7-1.5,3.3
	c-0.2,0.4-0.5,0.8-0.8,1c1-0.1,1.8-0.1,2.2,0c0.5,0.1,1.3,0.3,2.4,0.7c0.6,0.2,1,0.4,1.3,0.4c0.2,0,0.5,0,0.7-0.1
	c0.2-0.1,0.3-0.3,0.3-0.5c0-0.1,0-0.3-0.1-0.5c-0.1-0.2-0.1-0.4-0.1-0.5c0-0.2,0.1-0.3,0.2-0.4c0.1-0.1,0.3-0.1,0.4-0.1
	c0.2,0,0.4,0.1,0.5,0.3c0.1,0.2,0.1,0.4,0.1,0.7c-0.1,0.5-0.4,1-0.9,1.3c-0.5,0.3-1.2,0.5-2,0.3c-0.4-0.1-0.9-0.2-1.5-0.3
	c-2.1-0.5-3.4-0.8-4.1-0.9c-0.9-0.1-1.7-0.2-2.5-0.2l0.2-0.5c0.9,0,1.4-0.2,1.7-0.4c0.4-0.3,0.9-1.4,1.6-3.1l-2.5,0.9l0.3-0.8l2.5-1
	c0.6-1.5,1.1-2.5,1.4-3c0.5-0.7,1-1.3,1.6-1.8c0.6-0.4,1.1-0.7,1.7-0.9c0.6-0.2,1.1-0.2,1.5-0.1c0.5,0.1,0.9,0.3,1.2,0.6
	c0.3,0.3,0.5,0.6,0.4,0.9c0,0.2-0.1,0.3-0.2,0.4c-0.1,0.1-0.3,0.1-0.4,0.1c-0.2,0-0.4-0.2-0.7-0.5c-0.4-0.5-0.8-0.8-1.1-0.8
	c-0.4-0.1-0.9,0.2-1.4,0.7c-0.8,0.8-1.5,2.1-2.2,3.8l3.6-1.4l-0.3,0.8L119.9,260.5z M111.7,260.2c0.9-2.5,1.6-4.3,2.2-5.4
	c-1,0.9-1.7,1.4-2,1.7l-3.3,3.1c0.5,0.1,1.3,0.3,2.2,0.5C111.2,260.1,111.4,260.1,111.7,260.2z M113.9,264.6l-0.2,0.5
	c-0.2,0-0.4-0.1-0.6-0.1c-0.2-0.1-0.5-0.1-0.9-0.3c-0.6-0.2-0.9-0.3-1.1-0.4c-0.3-0.1-0.7-0.1-1.3-0.2c0.3-0.4,0.6-0.9,0.9-1.4
	c0.2-0.4,0.4-1,0.8-1.9c-0.7-0.2-1.9-0.4-3.5-0.7c-2.2,2.1-3.7,3.4-4.6,3.8c-0.9,0.5-1.7,0.6-2.4,0.5c-0.4-0.1-0.6-0.2-0.7-0.4
	c-0.1-0.2-0.2-0.4-0.1-0.6c0-0.2,0.1-0.3,0.2-0.4c0.1-0.1,0.3-0.1,0.4-0.1c0.1,0,0.2,0.1,0.4,0.1c0.4,0.2,0.6,0.3,0.7,0.3
	c0.4,0.1,0.9,0,1.6-0.4c1-0.6,2.6-2,4.8-4.1c2.5-2.4,4.5-4.1,5.9-5.2c-1.6-0.2-2.6-0.3-3-0.3c-0.6,0-1,0.2-1.4,0.5
	c-0.3,0.3-0.6,0.6-0.6,0.9c0,0.1,0,0.3,0,0.5c0,0.3,0,0.4,0,0.5c0,0.1-0.1,0.2-0.2,0.3c-0.1,0.1-0.3,0.1-0.4,0.1
	c-0.2-0.1-0.4-0.2-0.5-0.4c-0.1-0.2-0.1-0.4,0-0.8c0.1-0.5,0.3-0.9,0.7-1.2c0.3-0.4,0.8-0.7,1.3-0.8c0.5-0.2,1.1-0.3,1.8-0.3
	c0.4,0,1,0.1,1.9,0.2c0.8,0.1,1.2,0.2,1.4,0.1c0.3,0,0.6-0.1,1-0.3c-0.4,0.7-0.7,1.4-0.9,1.9l-2,5.3l-1.3,3.8
	c0.4,0.2,0.8,0.4,1.2,0.5C113.3,264.5,113.6,264.6,113.9,264.6z M106.6,251.5l-0.3,0.5c-0.7-0.2-1.2-0.2-1.5-0.1
	c-0.2,0-0.3,0.1-0.5,0.3c-0.2,0.2-0.9,1.3-2.1,3.3c-0.4,0.7-1.4,2.5-3.1,5.4c0.4,0.3,0.9,0.5,1.6,0.7l-0.3,0.4
	c-0.2-0.1-0.6-0.2-1.2-0.4c-0.4-0.2-0.9-0.3-1.5-0.5c-0.8-0.2-1.5-0.4-2.2-0.4l0.3-0.5c0.7,0.1,1.3,0.1,1.7,0c0.1,0,0.2-0.1,0.2-0.1
	c0.1-0.1,0.3-0.3,0.5-0.6c0.2-0.3,1-1.6,2.3-3.9c0.4-0.7,1.2-2.1,2.5-4.3c-0.4-0.1-1-0.2-1.6-0.3l0.3-0.5c0.3,0,0.6,0,0.8,0.1
	c0.3,0,0.9,0.2,1.9,0.5C105.4,251.3,106.1,251.4,106.6,251.5z M92.4,253l-1.2,1.6c-0.6,0.8-1.1,1.5-1.6,1.9
	c-0.2,0.3-0.5,0.4-0.8,0.6c0.5,0.4,0.9,0.6,1.3,0.8c1.1,0.4,2,0.4,2.8,0c0.8-0.4,1.4-1,1.7-1.9c0.2-0.4,0.2-0.8,0.1-1.1
	c-0.1-0.4-0.3-0.7-0.6-0.9C93.9,253.7,93.3,253.4,92.4,253z M92.4,249.2l0.3-0.4c0.7,0.2,1.5,0.4,2.4,0.5c-0.5,0.5-0.8,1-1.1,1.3
	l-1.3,1.8c1.1,0.4,2,0.5,2.7,0.2c0.8-0.3,1.3-0.8,1.6-1.6c0.2-0.5,0.2-1-0.1-1.5c-0.3-0.5-0.8-0.9-1.6-1.2c-1.1-0.4-2.2-0.6-3.4-0.5
	c-1.2,0.1-2.2,0.5-3.1,1.1c-0.9,0.6-1.5,1.3-1.8,2.2c-0.1,0.2-0.1,0.5-0.2,0.7c0,0.2,0,0.4,0.1,0.6c0,0.1,0.1,0.3,0.3,0.6
	c0.2,0.3,0.3,0.5,0.3,0.6c0,0.1,0,0.2,0,0.4c-0.1,0.1-0.1,0.2-0.3,0.3c-0.1,0.1-0.3,0.1-0.4,0c-0.3-0.1-0.6-0.5-0.7-1.2
	c-0.2-0.6-0.1-1.3,0.2-2.1c0.4-1,1.1-1.9,2.1-2.6c1-0.7,2.2-1.1,3.5-1.2c1.3-0.1,2.7,0.1,4,0.6c1.1,0.4,1.8,1,2.2,1.6
	c0.4,0.7,0.5,1.3,0.2,1.9c-0.2,0.6-0.6,1-1.2,1.4c-0.6,0.3-1.3,0.5-2.2,0.4c0.5,0.3,0.9,0.6,1.1,0.9c0.2,0.3,0.4,0.7,0.4,1.1
	c0,0.4,0,0.8-0.2,1.2c-0.3,0.7-0.7,1.2-1.3,1.6c-0.6,0.4-1.4,0.7-2.3,0.8c-0.9,0.1-1.8,0-2.6-0.4c-0.2-0.1-0.7-0.3-1.5-0.7
	c-0.4-0.2-0.7-0.3-1.1-0.5c-0.6-0.2-1.2-0.4-1.7-0.5l0.3-0.4c0.6,0.2,1.2,0.2,1.5,0.1c0.4-0.2,0.9-0.7,1.5-1.5l3.5-4.7
	c0.1-0.2,0.2-0.4,0.3-0.5c0-0.1,0-0.2,0-0.3c0-0.1-0.1-0.2-0.2-0.2C92.6,249.3,92.5,249.3,92.4,249.2z M73.7,251.7l3.3-5.3
	c0.7-1.2,1.5-2.2,2.3-3.2c-0.6,0.2-1.3,0.6-2.3,1.1c-2.9,1.5-5.7,2.8-8.7,3.9c0.3-0.8,0.7-1.8,1.2-2.8c0.5-1,1-1.9,1.4-2.7
	c0.6-1.1,1.2-1.9,1.8-2.4c0.6-0.5,1.3-1,2.3-1.4c-1.1-0.5-2.2-0.6-3.1-0.4c-0.9,0.2-1.6,0.6-1.9,1.2c-0.1,0.2-0.2,0.5-0.2,0.8
	c0,0.3,0,0.6-0.1,0.7c-0.1,0.1-0.2,0.2-0.4,0.3c-0.1,0-0.3,0-0.4-0.1c-0.2-0.1-0.3-0.3-0.3-0.5c0-0.3,0.1-0.6,0.2-1
	c0.3-0.5,0.7-0.9,1.3-1.3c0.6-0.4,1.3-0.6,1.9-0.6c0.7-0.1,1.4,0,2.1,0.2c0.4,0.1,1,0.4,1.9,0.7c0.3,0.1,0.6,0.2,0.9,0.4
	c-2.2,1-3.8,2.4-4.8,4.1c-0.3,0.5-0.9,1.7-1.8,3.3c0.6-0.2,1.1-0.4,1.6-0.6c0.3-0.2,1.2-0.6,2.7-1.3c2.4-1.2,4.1-2,5.2-2.4
	c0.8-0.3,1.5-0.5,2.4-0.7c-1.8,1.8-3.8,4.7-6.1,8.7l3.6-1.4c1-0.4,2-0.9,3.2-1.5c1.1-0.6,1.9-1.1,2.5-1.6c0.3-0.3,0.6-0.6,0.8-0.9
	c0.2-0.3,0.3-0.7,0.4-1.1c0-0.3,0.1-0.5,0.1-0.6c0.1-0.2,0.2-0.3,0.4-0.3c0.2,0,0.3,0,0.5,0.1c0.2,0.1,0.3,0.3,0.3,0.6
	c0,0.4-0.1,0.8-0.3,1.2c-0.3,0.6-1,1.2-1.9,1.9c-0.9,0.7-2.6,1.6-5,2.6C77.8,250.5,75.5,251.3,73.7,251.7z M79.4,38.1l-3.2-5.4
	c-0.7-1.2-1.3-2.4-1.7-3.5c-0.1,0.6-0.1,1.4-0.1,2.5c0,3.2-0.2,6.4-0.6,9.5c-0.6-0.7-1.2-1.5-1.9-2.4c-0.7-0.9-1.3-1.8-1.7-2.5
	c-0.7-1-1.1-1.9-1.3-2.7c-0.2-0.7-0.2-1.7-0.2-2.7c-1,0.8-1.6,1.6-1.8,2.5c-0.3,0.9-0.2,1.7,0.1,2.2c0.1,0.2,0.3,0.4,0.6,0.5
	c0.3,0.2,0.5,0.3,0.5,0.4c0.1,0.1,0.1,0.3,0.1,0.4c0,0.1-0.1,0.3-0.2,0.3c-0.2,0.1-0.4,0.1-0.6,0c-0.3-0.1-0.5-0.3-0.7-0.7
	c-0.3-0.5-0.5-1.1-0.5-1.8c0-0.7,0.1-1.4,0.3-2c0.3-0.6,0.7-1.2,1.2-1.8c0.3-0.3,0.8-0.7,1.5-1.3c0.2-0.2,0.5-0.4,0.7-0.6
	c-0.1,2.4,0.3,4.5,1.4,6.2c0.3,0.5,1,1.6,2.1,3.1c0.1-0.6,0.1-1.2,0.2-1.7c0-0.4,0.1-1.4,0.1-3c0.1-2.6,0.2-4.5,0.3-5.7
	c0.1-0.8,0.3-1.6,0.5-2.4c0.8,2.4,2.4,5.6,4.8,9.4l0.5-3.9c0.1-1,0.2-2.2,0.2-3.5c0-1.3-0.1-2.3-0.3-2.9c-0.1-0.4-0.3-0.8-0.5-1.1
	c-0.2-0.3-0.5-0.6-0.8-0.9c-0.2-0.2-0.4-0.3-0.4-0.4c-0.1-0.1-0.1-0.3-0.1-0.5c0-0.2,0.1-0.3,0.3-0.4c0.2-0.1,0.4-0.1,0.7,0
	c0.3,0.1,0.6,0.4,0.9,0.8c0.3,0.6,0.6,1.4,0.8,2.6c0.2,1.2,0.2,3-0.1,5.6C80.2,33.9,79.8,36.4,79.4,38.1z M60.6,45.1
	c-1.5-2.2-2.5-3.9-3-5c0.1,1.4,0.1,2.2,0.2,2.6l0.5,4.5c0.4-0.3,1-0.8,1.8-1.5C60.2,45.5,60.4,45.3,60.6,45.1z M65.4,46l0.3,0.5
	c-0.2,0.2-0.3,0.3-0.4,0.4c-0.2,0.2-0.4,0.3-0.7,0.5c-0.5,0.3-0.8,0.6-0.9,0.7c-0.2,0.2-0.5,0.5-0.9,0.9c-0.2-0.5-0.4-1-0.6-1.5
	c-0.2-0.4-0.5-1-1.1-1.8c-0.6,0.5-1.5,1.3-2.7,2.3c0.4,3,0.4,5,0.3,6c-0.2,1-0.5,1.7-1.1,2.2c-0.3,0.2-0.5,0.4-0.8,0.4
	c-0.2,0-0.4-0.1-0.6-0.2C56.1,56.2,56,56,56,55.9c0-0.2,0.1-0.3,0.2-0.4c0.1-0.1,0.2-0.1,0.3-0.2c0.4-0.2,0.6-0.3,0.7-0.4
	c0.3-0.3,0.5-0.8,0.6-1.5c0.1-1.2,0-3.3-0.3-6.3c-0.4-3.4-0.6-6.1-0.6-7.8c-1.1,1.1-1.8,1.9-2,2.2c-0.3,0.5-0.5,0.9-0.4,1.4
	c0,0.4,0.1,0.8,0.4,1.1c0.1,0.1,0.2,0.2,0.4,0.3c0.2,0.1,0.4,0.2,0.4,0.3c0.1,0.1,0.1,0.2,0.1,0.4c0,0.2-0.1,0.3-0.2,0.4
	c-0.2,0.1-0.4,0.2-0.6,0.2c-0.2,0-0.4-0.2-0.6-0.4c-0.3-0.4-0.5-0.8-0.6-1.3c-0.1-0.5-0.1-1,0.1-1.5c0.2-0.5,0.4-1.1,0.9-1.6
	c0.2-0.3,0.6-0.7,1.3-1.4c0.5-0.5,0.9-0.9,1-1.1c0.2-0.3,0.3-0.6,0.4-0.9c0.4,0.7,0.7,1.4,1,1.9l3,4.8l2.3,3.4
	c0.4-0.2,0.8-0.4,1.1-0.7C65,46.5,65.2,46.3,65.4,46z M52.9,59.2l-4.6-4.3c-1-0.9-1.9-1.9-2.7-2.9c0.1,0.6,0.3,1.4,0.6,2.4
	c1,3.1,1.7,6.2,2.2,9.2c-0.7-0.5-1.6-1-2.5-1.7c-0.9-0.7-1.7-1.3-2.4-1.9c-0.9-0.8-1.6-1.5-2-2.2c-0.4-0.7-0.7-1.5-1-2.6
	c-0.7,1-1,2-1,3c0,1,0.3,1.7,0.8,2.1c0.2,0.2,0.4,0.3,0.7,0.3c0.3,0.1,0.5,0.1,0.6,0.2c0.1,0.1,0.2,0.2,0.2,0.4c0,0.2,0,0.3-0.1,0.4
	c-0.1,0.2-0.3,0.2-0.5,0.2c-0.3,0-0.6-0.2-0.9-0.4c-0.4-0.4-0.8-0.9-1-1.6c-0.2-0.7-0.3-1.3-0.3-2c0.1-0.7,0.3-1.4,0.6-2
	c0.2-0.4,0.5-0.9,1.1-1.7c0.2-0.3,0.4-0.5,0.5-0.8c0.6,2.4,1.6,4.2,3.1,5.5c0.5,0.4,1.5,1.2,2.9,2.4c-0.1-0.6-0.2-1.1-0.3-1.7
	c-0.1-0.4-0.3-1.3-0.8-2.9c-0.7-2.5-1.2-4.4-1.4-5.5c-0.1-0.8-0.2-1.6-0.2-2.4c1.4,2.1,3.9,4.6,7.4,7.6l-0.7-3.8
	c-0.2-1-0.5-2.2-0.9-3.4c-0.4-1.2-0.7-2.1-1.1-2.7c-0.2-0.4-0.5-0.7-0.8-0.9c-0.3-0.2-0.6-0.4-1-0.6c-0.3-0.1-0.4-0.2-0.5-0.3
	c-0.1-0.1-0.2-0.3-0.2-0.4c0-0.2,0.1-0.3,0.2-0.5c0.2-0.2,0.4-0.3,0.6-0.2c0.4,0,0.7,0.2,1.1,0.5c0.5,0.4,1,1.2,1.5,2.2
	c0.5,1,1,2.8,1.6,5.3C52.5,54.9,52.9,57.4,52.9,59.2z M33,65.1c-0.4,0.6-0.6,1.3-0.6,2.1c0,0.8,0.3,1.6,0.9,2.4
	c0.6,0.9,1.4,1.6,2.4,2.3c1.2,0.8,2.3,1.1,3.3,1c1-0.1,1.7-0.6,2.3-1.3c0.4-0.6,0.6-1.3,0.5-2c0-0.8-0.4-1.6-1-2.5
	c-0.6-0.9-1.5-1.7-2.5-2.4c-1.1-0.7-2.2-1-3.1-0.9C34.3,63.9,33.5,64.4,33,65.1z M32.8,64.1c0.4-0.7,1-1.2,1.7-1.5
	c0.7-0.3,1.4-0.5,2.2-0.4c0.8,0.1,1.6,0.4,2.4,0.9c1,0.7,1.9,1.6,2.5,2.8c0.7,1.2,1,2.4,1,3.5c0,1.1-0.3,2.2-1,3.1
	c-0.7,1.1-1.7,1.8-2.8,2c-1.1,0.2-2.3,0-3.4-0.8c-1.1-0.7-2-1.7-2.6-2.9c-0.7-1.2-1-2.4-1-3.5C31.8,66.3,32.2,65.2,32.8,64.1z
	 M35.9,82.9l-5.5-3c-1.2-0.7-2.3-1.4-3.3-2.1c0.2,0.5,0.6,1.3,1.2,2.2c1.7,2.8,3.1,5.6,4.4,8.4c-0.8-0.3-1.8-0.6-2.9-1.1
	c-1.1-0.4-2-0.9-2.8-1.3c-1.1-0.6-1.9-1.1-2.5-1.6c-0.5-0.5-1.1-1.3-1.5-2.3c-0.4,1.1-0.5,2.2-0.3,3.1c0.2,0.9,0.7,1.5,1.3,1.8
	c0.2,0.1,0.5,0.2,0.8,0.2c0.3,0,0.6,0,0.7,0.1c0.1,0.1,0.2,0.2,0.3,0.3c0,0.1,0,0.3,0,0.4c-0.1,0.2-0.3,0.3-0.5,0.3
	c-0.3,0-0.6,0-1-0.2c-0.5-0.3-1-0.7-1.4-1.3c-0.4-0.6-0.6-1.2-0.7-1.9C22,84.4,22,83.7,22.2,83c0.1-0.4,0.3-1,0.6-1.9
	c0.1-0.3,0.2-0.6,0.3-0.9c1.1,2.2,2.6,3.7,4.4,4.6c0.6,0.3,1.7,0.8,3.4,1.6c-0.2-0.5-0.5-1.1-0.7-1.5c-0.2-0.3-0.7-1.2-1.5-2.6
	c-1.3-2.3-2.2-4-2.7-5c-0.3-0.7-0.6-1.5-0.8-2.3c1.9,1.7,4.9,3.5,9,5.6l-1.6-3.6c-0.4-1-1-2-1.6-3.1c-0.7-1.1-1.2-1.9-1.7-2.4
	c-0.3-0.3-0.6-0.6-1-0.7c-0.3-0.2-0.7-0.3-1.2-0.3c-0.3,0-0.5-0.1-0.6-0.1c-0.2-0.1-0.3-0.2-0.3-0.4c0-0.2,0-0.3,0.1-0.5
	c0.1-0.2,0.3-0.3,0.6-0.4c0.4,0,0.8,0,1.2,0.3c0.6,0.3,1.3,0.9,2,1.8c0.8,0.9,1.7,2.5,2.8,4.8C34.4,78.9,35.4,81.2,35.9,82.9z
	 M29.3,93.5l0.5,0.3c-0.1,0.5-0.1,0.8-0.2,1.1c-0.1,0.3-0.3,0.7-0.5,1.3c-0.2,0.4-0.3,0.8-0.5,1.2c-0.2,0.6-0.4,1.3-0.5,2L27.6,99
	c0.2-0.6,0.2-1.1,0.1-1.5c-0.1-0.3-0.3-0.5-0.5-0.8c-0.3-0.3-1.4-1-3.2-2.2l-4.5-2.9l-0.2-0.1c-0.1,0.4-0.2,0.6-0.3,0.8
	c-0.4,1.1-0.6,2.1-0.6,2.8c0,0.8,0.2,1.4,0.6,1.9c0.4,0.5,0.8,0.8,1.3,1c0.2,0.1,0.4,0.1,0.6,0.1c0.1,0,0.4-0.1,0.7-0.2
	c0.3-0.1,0.5-0.2,0.7-0.1c0.2,0.1,0.3,0.2,0.4,0.3c0.1,0.2,0.1,0.3,0,0.5c-0.1,0.3-0.3,0.4-0.6,0.5c-0.4,0.1-0.9,0.1-1.5-0.1
	c-0.7-0.3-1.4-0.7-1.9-1.4c-0.5-0.7-0.9-1.5-1-2.5c-0.1-0.9,0-2,0.4-3.2c0.2-0.6,0.6-1.4,1.1-2.6c0.4-0.8,0.7-1.4,0.8-1.8
	c0.1-0.4,0.2-0.7,0.1-0.9c-0.1-0.2-0.2-0.3-0.4-0.4c0,0-0.1,0-0.3-0.1c-0.1,0-0.2,0-0.2-0.1c-0.2-0.1-0.3-0.2-0.4-0.3
	c-0.1-0.1-0.1-0.3,0-0.5c0.1-0.2,0.2-0.3,0.4-0.4c0.2-0.1,0.4-0.1,0.6,0c0.5,0.2,0.8,0.5,1,1.2c0.2,0.6,0,1.5-0.4,2.7
	c-0.1,0.4-0.3,0.9-0.5,1.3c0.2,0.1,0.9,0.6,2,1.4l2.9,1.9l1.8,1.2l2,1.3c0.2-0.4,0.3-0.7,0.4-1C29.1,94.4,29.2,93.9,29.3,93.5z
	 M19.4,99.9l-0.1,0.5c-0.6-0.3-1.1-0.4-1.5-0.5c-0.5-0.1-0.9-0.1-1.2,0.1c-0.4,0.2-0.6,0.5-0.7,0.9c-0.2,0.7-0.1,1.4,0.2,2
	c0.3,0.7,0.8,1.1,1.5,1.2c0.3,0.1,0.6,0.1,1,0c0.3-0.1,0.8-0.3,1.4-0.6c1.1-0.6,2-1,2.5-1.2c0.6-0.1,1.1-0.1,1.5,0
	c0.7,0.2,1.3,0.6,1.8,1.2c0.5,0.6,0.9,1.4,1,2.3c0.2,0.9,0.1,1.8-0.1,2.7c-0.3,0.9-0.7,1.6-1.3,2c-0.6,0.5-1.2,0.6-1.7,0.5
	c-0.3-0.1-0.5-0.2-0.6-0.4c-0.1-0.2-0.2-0.4-0.1-0.6c0.1-0.2,0.2-0.4,0.4-0.5c0.1-0.1,0.4-0.1,0.8-0.1c0.5,0,0.8,0,1-0.1
	c0.2-0.1,0.4-0.2,0.6-0.5c0.2-0.2,0.3-0.5,0.4-0.8c0.3-0.9,0.2-1.8-0.2-2.6c-0.4-0.8-1-1.4-1.7-1.6c-0.2-0.1-0.5-0.1-0.8-0.1
	c-0.3,0-0.6,0.1-1,0.2c-0.3,0.1-0.7,0.3-1.4,0.7c-0.7,0.4-1.1,0.6-1.4,0.7c-0.3,0.1-0.7,0.2-1,0.2c-0.3,0-0.6,0-0.9-0.1
	c-0.6-0.2-1.1-0.5-1.5-1.1c-0.5-0.5-0.8-1.2-0.9-1.9c-0.2-0.7-0.1-1.4,0.1-2.2c0.1-0.4,0.3-0.8,0.6-1.4c0.2-0.3,0.3-0.6,0.4-0.8
	c0.4,0.3,0.7,0.5,1.1,0.6C17.7,99.2,18.4,99.5,19.4,99.9z M8.8,109.4l0.4-1.8l2.1,3.8l-0.1,0.6L8.8,109.4z M11.9,114.5l1.2-0.1
	c1.1,0,2-0.1,2.8-0.2c0.8-0.1,2.7-0.4,5.7-0.8c-0.3-0.2-1.1-0.5-2.2-1c-1.5-0.7-2.4-1.1-2.8-1.3c-1.1-0.6-1.9-1.1-2.4-1.5
	c-0.5-0.4-0.8-0.9-1-1.3c-0.2-0.5-0.2-0.9-0.1-1.5c0.1-0.4,0.2-0.7,0.4-0.9c0.2-0.2,0.4-0.3,0.6-0.2c0.2,0,0.3,0.1,0.4,0.3
	c0.1,0.1,0.1,0.3,0.1,0.4c0,0.1-0.1,0.2-0.2,0.4c-0.2,0.3-0.3,0.5-0.3,0.5c0,0.1-0.1,0.2-0.1,0.4c-0.1,0.3,0,0.6,0.2,0.9
	c0.3,0.5,1.1,1.1,2.5,1.8c1.4,0.8,3.6,1.8,6.8,3.2l1.4,0.6c-1.7,0.4-3,0.7-3.7,0.8c-1,0.2-2.2,0.3-3.6,0.5l-3.5,0.4
	c0.7,0.3,2,0.8,3.7,1.6c1.7,0.8,2.7,1.3,3,1.4c0.8,0.5,1.4,0.9,1.8,1.3c0.4,0.4,0.7,0.9,0.8,1.3c0.1,0.4,0.2,0.9,0.1,1.4
	c-0.1,0.6-0.3,1.1-0.7,1.4c-0.3,0.3-0.5,0.4-0.8,0.3c-0.1,0-0.2-0.1-0.3-0.2c-0.1-0.1-0.1-0.3-0.1-0.4c0-0.2,0.2-0.4,0.4-0.6
	c0.5-0.3,0.7-0.7,0.8-1c0.1-0.4,0-0.8-0.3-1.2c-0.4-0.6-1.3-1.3-2.8-2.1c-1.8-1-4.1-2-7-3.1c0,0.2-0.1,0.7-0.1,1.3
	c0,0.7,0.1,1.2,0.2,1.7c0.1,0.5,0.4,0.9,0.7,1.2c0.3,0.3,0.7,0.5,1.1,0.6c0.2,0,0.4,0.1,0.6,0c0.1,0,0.3-0.1,0.6-0.2
	c0.3-0.1,0.5-0.1,0.6-0.1c0.1,0,0.3,0.1,0.4,0.2c0.1,0.1,0.1,0.3,0.1,0.4c0,0.2-0.2,0.4-0.5,0.5c-0.3,0.1-0.7,0.1-1.2,0
	c-0.9-0.2-1.5-0.5-2.1-1.1c-0.5-0.5-0.9-1.2-1-2c-0.1-0.5-0.1-1.4,0-2.8C11.9,115.5,11.9,115,11.9,114.5z M17.8,128.2
	c-2.6-0.4-4.5-0.8-5.7-1.1c1.1,0.9,1.7,1.4,2,1.6l3.6,2.6c0-0.5,0.1-1.3,0.1-2.3C17.8,128.8,17.8,128.5,17.8,128.2z M21.7,125.2
	l0.6,0.1c0,0.2,0,0.4,0,0.6c0,0.3,0,0.6-0.1,0.9c-0.1,0.6-0.1,1-0.1,1.2c0,0.3,0,0.7,0.1,1.3c-0.5-0.2-1-0.4-1.6-0.6
	c-0.4-0.1-1.1-0.2-2-0.4c0,0.8-0.1,1.9-0.1,3.5c2.5,1.7,4,3,4.6,3.8c0.6,0.8,0.9,1.5,0.9,2.2c0,0.4-0.1,0.6-0.2,0.8
	c-0.1,0.2-0.3,0.3-0.6,0.3c-0.2,0-0.3-0.1-0.4-0.2c-0.1-0.1-0.2-0.2-0.2-0.4c0-0.1,0-0.2,0.1-0.4c0.1-0.4,0.2-0.6,0.2-0.8
	c0-0.4-0.2-0.9-0.7-1.5c-0.8-0.9-2.4-2.2-4.9-4c-2.8-2-4.9-3.6-6.2-4.8c0.1,1.6,0.2,2.6,0.3,3c0.2,0.6,0.4,1,0.7,1.3
	c0.3,0.3,0.7,0.4,1,0.4c0.1,0,0.3,0,0.5-0.1c0.2-0.1,0.4-0.1,0.5-0.1c0.1,0,0.3,0.1,0.4,0.2c0.1,0.1,0.2,0.2,0.1,0.4
	c0,0.2-0.1,0.4-0.3,0.5c-0.2,0.1-0.4,0.2-0.8,0.2c-0.5,0-0.9-0.2-1.3-0.4c-0.4-0.3-0.8-0.6-1.1-1.1c-0.3-0.5-0.5-1-0.6-1.7
	c-0.1-0.4-0.1-1-0.2-1.9c0-0.8-0.1-1.3-0.1-1.4c-0.1-0.3-0.2-0.6-0.5-0.9c0.8,0.2,1.5,0.4,2.1,0.5l5.6,1l4,0.6
	c0.1-0.5,0.2-0.9,0.2-1.3C21.8,125.8,21.7,125.5,21.7,125.2z M12.6,143.2l-0.4-0.1c-0.2-0.9-0.3-1.7-0.6-2.4
	c0.5,0.1,1.1,0.3,1.8,0.4l2.8,0.5l0-0.9c0-0.4-0.1-0.9-0.4-1.3c-0.3-0.5-0.7-0.9-1.3-1.2c-0.6-0.3-1.2-0.5-1.9-0.5
	c-0.7,0-1.2,0.3-1.5,0.8c-0.4,0.5-0.5,1.2-0.4,2.2c0.1,1.1,0.4,2.2,1,3.2c0.6,1,1.4,1.8,2.3,2.3c0.9,0.5,1.8,0.7,2.6,0.7
	c0.4,0,0.8-0.1,1-0.3c0.3-0.2,0.6-0.5,0.8-0.9c0.2-0.3,0.4-0.5,0.6-0.5c0.1,0,0.3,0,0.4,0.1c0.1,0.1,0.2,0.2,0.2,0.4
	c0,0.4-0.2,0.8-0.7,1.2c-0.5,0.4-1.2,0.6-2,0.7c-1.5,0.1-2.9-0.4-4.1-1.4c-1.7-1.4-2.6-3.3-2.8-5.8c-0.1-0.9,0-1.7,0.2-2.4
	c0.2-0.6,0.5-1.1,0.9-1.4c0.4-0.3,0.9-0.5,1.4-0.5c0.6,0,1.3,0.1,1.9,0.5c0.6,0.4,1.2,1,1.6,1.8c0.4,0.8,0.7,1.7,0.8,2.7
	c0,0.2,0,0.4,0,0.7l3.1,0.6c0.5,0.1,1,0.2,1.5,0.3c0.1-0.5,0.1-1,0.1-1.3c0-0.5-0.2-1-0.4-1.5l0.6,0.1c0.2,0.5,0.3,0.9,0.3,1.3
	c0,0.3,0,0.8,0,1.5c0,0.5,0,0.9,0,1.3c0,0.6,0.2,1.3,0.4,1.9l-0.5-0.1c-0.2-0.7-0.3-1.1-0.6-1.3c-0.3-0.3-0.9-0.6-1.8-0.7l-5.9-1.1
	c-0.3,0-0.5-0.1-0.6-0.1c-0.1,0-0.2,0.1-0.3,0.1c-0.1,0.1-0.1,0.2-0.1,0.3C12.5,143.1,12.5,143.1,12.6,143.2z M12.8,149.9l0.1,0.5
	c-0.3,0-0.6,0-0.8,0.1c-0.3,0-0.4,0.2-0.4,0.4c0,0.2,0.1,1,0.3,2.4l0.3,1.4l4.4,0.3l-0.4-2c-0.1-0.6-0.2-1-0.3-1.1
	c-0.1-0.1-0.4-0.2-0.7-0.2l-0.1-0.5c0.8,0.1,1.7,0.1,2.6,0.1l0.1,0.5c-0.3,0-0.5,0-0.7,0.1c-0.1,0-0.1,0.1-0.2,0.2
	c0,0.1-0.1,0.1-0.1,0.3c0,0.2,0,0.5,0.1,0.8l0.3,2c2.3,0.2,4.1,0.5,5.4,0.9c-0.3-0.6-0.5-1.1-0.6-1.5c-0.1-0.8-0.2-1.7-0.1-2.9
	c0-0.6,0-1,0-1.2c0-0.3-0.2-0.5-0.3-0.6c-0.2-0.1-0.3-0.2-0.5-0.2c-0.1,0-0.3,0.1-0.5,0.2c-0.2,0.1-0.3,0.1-0.4,0.2
	c-0.1,0-0.3,0-0.4-0.1c-0.1-0.1-0.2-0.2-0.2-0.4c0-0.2,0-0.4,0.1-0.5c0.1-0.2,0.3-0.3,0.6-0.3c0.5-0.1,1.1,0.1,1.6,0.5
	c0.5,0.4,0.8,1,0.9,1.8c0.1,0.4,0.1,0.9,0.2,1.6c0.1,1.4,0.2,2.5,0.3,3.2c0.2,0.9,0.4,2,0.8,3.3l-0.6-0.1c-0.3-0.7-0.6-1.1-0.7-1.3
	c-0.1-0.1-0.3-0.2-0.5-0.3c-0.7-0.2-2-0.4-3.9-0.5c-1.9-0.2-3.9-0.3-6.1-0.5c0.1,0.8,0.4,1.5,0.9,2.1c0.5,0.6,1.1,1.1,1.7,1.4
	c0.7,0.3,1.3,0.4,1.9,0.3c0.3,0,0.5-0.1,0.7-0.2c0.2-0.1,0.5-0.3,0.8-0.5c0.2-0.2,0.4-0.3,0.5-0.3c0.1,0,0.3,0,0.4,0.1
	c0.1,0.1,0.2,0.2,0.2,0.4c0,0.2,0,0.5-0.3,0.7c-0.3,0.3-0.8,0.5-1.4,0.6c-1.3,0.2-2.6-0.1-3.9-0.9c-1.3-0.8-2-2.2-2.4-4.2l-0.6-3.3
	c-0.2-1.1-0.4-2-0.7-2.5C11.6,149.9,12.4,149.9,12.8,149.9z M12.7,161.6l0.5,0c0.2,0.7,0.4,1.2,0.6,1.4c0.1,0.1,0.3,0.2,0.5,0.3
	c0.3,0.1,1.5,0.1,3.9,0.2c0.8,0,2.8,0.1,6.2,0.1c0-0.5,0-1-0.2-1.7l0.5,0c0.1,0.2,0.1,0.6,0.2,1.2c0.1,0.4,0.2,1,0.3,1.5
	c0.2,0.8,0.4,1.5,0.7,2.2l-0.5,0c-0.3-0.7-0.5-1.2-0.8-1.5c-0.1-0.1-0.1-0.1-0.2-0.2c-0.1-0.1-0.4-0.1-0.8-0.1
	c-0.4,0-1.9-0.1-4.5-0.2c-0.8,0-2.4-0.1-5-0.1c0.1,0.4,0.3,1,0.5,1.6l-0.6-0.1c-0.1-0.3-0.2-0.5-0.3-0.8c-0.1-0.3-0.3-0.9-0.5-1.9
	C13.1,162.8,12.9,162.1,12.7,161.6z M16.7,176.8l1-0.6c0.9-0.6,1.7-1.1,2.3-1.6c0.7-0.5,2.2-1.7,4.5-3.6c-0.4,0-1.2,0.1-2.4,0.2
	c-1.6,0.2-2.7,0.3-3.1,0.3c-1.3,0-2.2,0-2.8-0.1c-0.6-0.1-1.2-0.4-1.5-0.7c-0.4-0.3-0.6-0.7-0.8-1.2c-0.1-0.4-0.2-0.7-0.1-1
	c0.1-0.3,0.2-0.4,0.4-0.5c0.2-0.1,0.3,0,0.5,0c0.2,0.1,0.3,0.2,0.3,0.3c0,0.1,0.1,0.2,0,0.4c0,0.4,0,0.6,0,0.6c0,0.1,0,0.2,0.1,0.4
	c0.1,0.3,0.3,0.5,0.6,0.7c0.5,0.3,1.5,0.4,3.1,0.3c1.6,0,4.1-0.2,7.5-0.6l1.5-0.2c-1.3,1.2-2.2,2.1-2.8,2.5
	c-0.8,0.6-1.7,1.4-2.9,2.3l-2.8,2.1c0.8-0.1,2.1-0.3,4-0.4c1.9-0.2,3-0.2,3.3-0.2c0.9,0,1.7,0.1,2.2,0.3c0.6,0.2,1,0.4,1.3,0.7
	c0.3,0.3,0.6,0.7,0.7,1.2c0.2,0.6,0.2,1.1,0.1,1.6c-0.1,0.3-0.3,0.6-0.6,0.7c-0.1,0-0.3,0-0.4,0c-0.1-0.1-0.2-0.2-0.3-0.3
	c-0.1-0.2,0-0.4,0.1-0.7c0.2-0.5,0.3-0.9,0.2-1.3c-0.1-0.3-0.4-0.6-0.8-0.9c-0.7-0.3-1.8-0.5-3.5-0.4c-2,0.1-4.6,0.3-7.6,0.8
	c0.1,0.2,0.3,0.6,0.6,1.2c0.3,0.6,0.7,1,1,1.3c0.4,0.3,0.8,0.5,1.2,0.6c0.4,0.1,0.8,0.1,1.2-0.1c0.2-0.1,0.4-0.2,0.6-0.3
	c0.1-0.1,0.3-0.2,0.4-0.4c0.2-0.2,0.3-0.3,0.4-0.4c0.1,0,0.3,0,0.4,0c0.1,0.1,0.2,0.2,0.3,0.3c0.1,0.2,0,0.5-0.2,0.7
	c-0.2,0.2-0.5,0.5-1,0.6c-0.8,0.3-1.6,0.3-2.3,0.1c-0.7-0.2-1.4-0.6-1.9-1.2c-0.3-0.4-0.8-1.2-1.4-2.4
	C17.1,177.6,16.9,177.2,16.7,176.8z M222.5,48.2l0.4-0.2c0.7,0.6,1.4,1,2,1.4c-0.4,0.2-1,0.5-1.6,0.9l-2.4,1.5l0.6,0.7
	c0.3,0.3,0.7,0.5,1.2,0.7c0.5,0.2,1.1,0.2,1.8,0c0.7-0.2,1.2-0.5,1.7-1c0.4-0.5,0.6-1,0.5-1.6c-0.1-0.6-0.5-1.2-1.2-1.9
	c-0.8-0.8-1.8-1.3-2.9-1.6c-1.2-0.3-2.2-0.4-3.2-0.1c-1,0.2-1.8,0.7-2.4,1.3c-0.3,0.3-0.5,0.6-0.6,0.9c-0.1,0.3-0.1,0.7,0,1.2
	c0.1,0.4,0,0.7-0.1,0.8c-0.1,0.1-0.2,0.2-0.4,0.2c-0.1,0-0.3,0-0.4-0.1c-0.3-0.3-0.4-0.7-0.3-1.3c0.1-0.6,0.4-1.2,1-1.8
	c1-1.1,2.3-1.7,4-1.8c2.2-0.2,4.2,0.6,6,2.3c0.7,0.6,1.2,1.3,1.5,1.9c0.3,0.6,0.4,1.1,0.3,1.7c-0.1,0.5-0.3,1-0.6,1.3
	c-0.4,0.5-1,0.8-1.7,0.9c-0.7,0.2-1.5,0.1-2.4-0.2c-0.9-0.3-1.7-0.8-2.4-1.5c-0.1-0.1-0.3-0.3-0.5-0.5l-2.6,1.7
	c-0.4,0.3-0.9,0.6-1.4,0.8c0.3,0.4,0.6,0.8,0.8,1c0.3,0.3,0.8,0.6,1.3,0.8l-0.5,0.3c-0.5-0.2-0.8-0.5-1.1-0.7
	c-0.2-0.2-0.6-0.6-1-1.1c-0.3-0.4-0.6-0.7-0.9-0.9c-0.5-0.4-1-0.8-1.6-1.2l0.4-0.3c0.6,0.4,1,0.6,1.3,0.6c0.5,0,1.1-0.2,1.8-0.7
	l5.1-3.3c0.2-0.2,0.4-0.3,0.5-0.4c0.1-0.1,0.1-0.2,0.1-0.3c0-0.1,0-0.2-0.1-0.3C222.6,48.3,222.5,48.3,222.5,48.2z M208.7,42.7
	c1.8-2,3.1-3.4,4.1-4.2c-1.3,0.4-2.1,0.7-2.4,0.8l-4.2,1.6c0.4,0.3,1.1,0.8,1.9,1.3C208.3,42.4,208.5,42.6,208.7,42.7z M209.1,47.6
	l-0.4,0.4c-0.2-0.1-0.4-0.2-0.5-0.3c-0.2-0.1-0.4-0.3-0.7-0.6c-0.5-0.4-0.8-0.6-0.9-0.7c-0.2-0.2-0.6-0.4-1.1-0.6
	c0.5-0.3,0.9-0.6,1.3-1c0.3-0.3,0.8-0.8,1.4-1.5c-0.6-0.4-1.6-1.1-2.9-2c-2.8,1.1-4.7,1.7-5.7,1.8c-1,0.1-1.8-0.1-2.4-0.5
	c-0.3-0.2-0.5-0.4-0.5-0.6c-0.1-0.2,0-0.4,0.1-0.6c0.1-0.1,0.2-0.2,0.4-0.3c0.1,0,0.3,0,0.4,0.1c0.1,0.1,0.2,0.1,0.3,0.3
	c0.3,0.3,0.5,0.5,0.6,0.6c0.4,0.2,0.9,0.3,1.6,0.2c1.2-0.2,3.2-0.8,6-2c3.2-1.3,5.7-2.2,7.4-2.6c-1.4-0.8-2.3-1.3-2.7-1.4
	c-0.5-0.2-1-0.2-1.5-0.1c-0.4,0.1-0.7,0.3-0.9,0.6c-0.1,0.1-0.1,0.3-0.2,0.5c-0.1,0.2-0.1,0.4-0.2,0.5c-0.1,0.1-0.2,0.2-0.4,0.2
	c-0.2,0-0.3,0-0.4-0.1c-0.2-0.1-0.3-0.3-0.3-0.5c0-0.2,0.1-0.5,0.3-0.7c0.3-0.4,0.6-0.7,1.1-0.9c0.5-0.2,0.9-0.3,1.5-0.3
	c0.5,0,1.1,0.2,1.8,0.4c0.3,0.1,0.9,0.4,1.6,0.9c0.7,0.4,1.1,0.6,1.3,0.7c0.3,0.1,0.6,0.1,1,0.1c-0.6,0.5-1.1,1-1.5,1.5l-3.9,4.2
	l-2.7,3.1c0.3,0.4,0.6,0.7,1,0.9C208.6,47.4,208.8,47.5,209.1,47.6z M195.9,33c-1.2,1.3-2,2.1-2.6,2.6c-0.4,0.3-0.8,0.5-1.1,0.7
	c1,0.3,1.7,0.5,2.1,0.8c0.5,0.3,1.1,0.8,2,1.6c0.5,0.4,0.8,0.7,1.1,0.8c0.2,0.1,0.4,0.2,0.7,0.1c0.2,0,0.4-0.2,0.5-0.3
	c0.1-0.1,0.1-0.3,0.1-0.5c0-0.2,0.1-0.4,0.1-0.5c0.1-0.1,0.2-0.2,0.3-0.3c0.1,0,0.3,0,0.4,0.1c0.2,0.1,0.3,0.3,0.3,0.5
	c0,0.2,0,0.5-0.2,0.7c-0.3,0.5-0.7,0.8-1.3,0.9c-0.6,0.1-1.3,0-2-0.4c-0.3-0.2-0.8-0.5-1.3-0.8c-1.7-1.2-2.9-1.9-3.5-2.2
	c-0.8-0.4-1.5-0.8-2.3-1.1l0.4-0.4c0.8,0.3,1.4,0.3,1.8,0.2c0.5-0.2,1.3-0.9,2.6-2.4l-2.6,0l0.5-0.6l2.7,0c1.2-1.2,1.9-2,2.4-2.3
	c0.7-0.5,1.4-0.9,2.1-1.1c0.7-0.2,1.3-0.3,1.9-0.2c0.6,0,1.1,0.2,1.5,0.4c0.4,0.2,0.8,0.6,0.9,1c0.2,0.4,0.2,0.7,0.1,0.9
	c-0.1,0.2-0.2,0.3-0.4,0.3c-0.1,0-0.3,0-0.4,0c-0.2-0.1-0.3-0.3-0.4-0.7c-0.2-0.6-0.5-1-0.8-1.2c-0.4-0.2-0.9-0.2-1.5,0.1
	c-1.1,0.5-2.2,1.4-3.4,2.8l3.8,0l-0.5,0.6L195.9,33z M189.3,23c-0.7-0.3-1.4-0.4-2.2-0.2c-0.8,0.2-1.5,0.6-2.3,1.3
	c-0.8,0.7-1.4,1.6-1.9,2.8c-0.6,1.3-0.7,2.4-0.5,3.4c0.3,1,0.8,1.6,1.7,2c0.6,0.3,1.3,0.3,2.1,0.2c0.8-0.2,1.5-0.6,2.3-1.4
	c0.8-0.7,1.4-1.7,1.9-2.9c0.5-1.2,0.7-2.3,0.4-3.2C190.7,24,190.2,23.4,189.3,23z M190.3,22.7c0.7,0.3,1.3,0.8,1.8,1.4
	c0.5,0.6,0.7,1.3,0.7,2.1c0,0.8-0.1,1.6-0.5,2.5c-0.5,1.1-1.3,2.1-2.4,2.9c-1.1,0.8-2.2,1.3-3.3,1.5c-1.1,0.2-2.2,0-3.3-0.4
	c-1.2-0.5-2-1.4-2.4-2.5c-0.4-1.1-0.3-2.3,0.2-3.5c0.5-1.2,1.3-2.2,2.4-3c1.1-0.8,2.2-1.3,3.3-1.5C188,22,189.1,22.1,190.3,22.7z
	 M182.9,19.5l-0.1,0.2c-0.5,0-1,0-1.4,0.1c-0.4,0.1-0.9,0.3-1.7,0.6c-1.9,0.8-3.5,1.4-4.8,1.7c0.2,0.5,0.3,1,0.4,1.6
	c0.1,0.6,0.1,1.8,0.1,3.7c0,1.7,0.2,2.9,0.5,3.6c0.3,0.7,0.8,1.2,1.3,1.3c0.5,0.2,0.9,0,1.3-0.5c0.2-0.3,0.4-0.5,0.5-0.5
	c0.1-0.1,0.3-0.1,0.4,0c0.1,0,0.3,0.1,0.3,0.3c0.1,0.1,0.1,0.3,0,0.4c-0.1,0.4-0.5,0.7-1,0.9c-0.6,0.2-1.2,0.2-1.8,0
	c-0.6-0.2-1.1-0.5-1.5-1c-0.4-0.5-0.8-1.1-1-1.9c-0.2-0.8-0.3-1.9-0.4-3.4c0-1.4-0.1-2.4-0.1-2.9c-0.1-0.5-0.2-1.1-0.5-1.8l-2.2,3.4
	c-0.4,0.7-0.7,1.2-0.9,1.5c0.4,0.3,0.7,0.5,1,0.6c0.1,0,0.2,0.1,0.3,0.1l-0.3,0.4c-0.1,0-0.2-0.1-0.2-0.1c-0.2-0.1-0.5-0.2-0.8-0.3
	c-0.4-0.2-0.7-0.3-1-0.4c-0.5-0.2-1.4-0.3-2.5-0.5l0.2-0.4c0.6,0.1,1.1,0.1,1.4-0.1c0.3-0.1,0.6-0.4,0.9-0.8
	c0.6-0.9,1.6-2.3,2.7-4.1l2.5-3.9c-1.2-0.3-2.3-0.4-3.2-0.1c-0.7,0.2-1.1,0.5-1.2,1c-0.1,0.2,0,0.4,0,0.7c0.1,0.3,0.1,0.5,0,0.6
	c-0.1,0.2-0.2,0.3-0.3,0.4c-0.2,0.1-0.3,0.1-0.5,0c-0.2-0.1-0.3-0.2-0.4-0.5c-0.1-0.2-0.1-0.5,0-0.8c0.3-0.9,1-1.5,2-1.9
	c1.1-0.4,2.7-0.3,4.8,0.4l0.6,0.2c-0.6,0.8-1.1,1.3-1.3,1.7l-1.7,2.6c0.5,0,1.1-0.1,1.9-0.4c0.7-0.2,1.5-0.5,2.2-0.8
	c1.3-0.5,2.1-0.9,2.3-1c0.1,0,0.1-0.1,0.1-0.1c0,0,0-0.1-0.1-0.2c-0.1-0.1-0.5-0.2-1-0.4l0.3-0.5c0.8,0.3,1.4,0.6,1.9,0.7
	C181.6,19.2,182.2,19.3,182.9,19.5z M165.6,15.2c-0.4,0-0.9,0-1.3-0.1c-0.7-0.1-1.5-0.4-2.4-0.9c-0.6-0.3-0.9-0.4-1.1-0.5
	c-0.3,0-0.5,0-0.7,0.1c-0.2,0.1-0.3,0.2-0.3,0.4c0,0.2,0,0.4,0.2,0.6c0.2,0.2,0.3,0.4,0.3,0.5c0,0.1,0,0.2,0,0.3
	c0,0.2-0.1,0.3-0.2,0.4c-0.1,0.1-0.3,0.1-0.4,0.1c-0.3,0-0.5-0.2-0.6-0.5c-0.1-0.3-0.2-0.6-0.1-1c0.1-0.6,0.4-1,0.9-1.3
	c0.5-0.3,1-0.4,1.7-0.3c0.4,0.1,0.9,0.2,1.4,0.4c1.2,0.4,2.1,0.7,2.7,0.8c0.6,0.1,1.3,0.1,1.9-0.1c0.2-0.1,0.3-0.1,0.4-0.1
	c0.1,0,0.2,0.1,0.2,0.1c0.1,0.1,0.1,0.1,0.1,0.2c0,0.2-0.4,0.5-1.1,0.9c-0.7,0.4-1.4,0.9-2,1.4l-5.7,4.1l-3.3,2.5
	c1.5-0.2,2.5-0.2,3.2,0c1,0.2,2.1,0.6,3.1,1.2c0.6,0.3,1,0.5,1.3,0.6c0.3,0.1,0.5,0,0.7-0.1c0.2-0.1,0.3-0.3,0.3-0.5
	c0-0.1,0-0.3,0-0.5c0-0.2-0.1-0.4,0-0.5c0-0.2,0.1-0.3,0.3-0.4c0.2-0.1,0.3-0.2,0.5-0.1c0.2,0,0.3,0.1,0.5,0.3
	c0.1,0.2,0.1,0.4,0.1,0.7c-0.1,0.6-0.4,1.1-1,1.4c-0.6,0.3-1.2,0.4-1.8,0.3c-0.4-0.1-1-0.2-1.9-0.5c-1.1-0.3-2.2-0.6-3.4-0.8
	c-1.4-0.3-2.4-0.3-2.9-0.2c-0.2,0-0.4,0.1-0.5,0c-0.1,0-0.1-0.1-0.2-0.1c0-0.1,0-0.1,0-0.2c0-0.2,0.2-0.4,0.5-0.6
	c0.3-0.2,0.9-0.6,1.7-1.2c0.7-0.5,1.8-1.3,3.2-2.3l3.4-2.4C163.9,16.6,164.7,16,165.6,15.2z M154.7,15.5l-0.5-0.1
	c0.2-0.7,0.3-1.2,0.3-1.5c0.1-0.5,0-0.9-0.3-1.2c-0.2-0.3-0.6-0.5-1-0.6c-0.7-0.1-1.4,0.1-1.9,0.5c-0.6,0.4-0.9,1-1,1.6
	c0,0.3,0,0.7,0.1,1c0.1,0.3,0.4,0.7,0.8,1.3c0.8,1,1.3,1.8,1.5,2.3c0.2,0.5,0.3,1,0.2,1.5c-0.1,0.7-0.4,1.4-0.9,2
	c-0.5,0.6-1.2,1.1-2.1,1.4c-0.9,0.3-1.8,0.4-2.7,0.3c-0.9-0.1-1.7-0.4-2.2-1c-0.6-0.6-0.8-1.1-0.8-1.6c0-0.3,0.1-0.5,0.3-0.7
	s0.4-0.2,0.6-0.2c0.2,0,0.4,0.1,0.5,0.3c0.1,0.1,0.1,0.4,0.2,0.7c0,0.5,0.1,0.8,0.3,1c0.1,0.2,0.3,0.4,0.6,0.6
	c0.2,0.2,0.5,0.3,0.8,0.3c0.9,0.1,1.8-0.1,2.5-0.6c0.8-0.5,1.2-1.2,1.3-1.9c0-0.3,0-0.5,0-0.8c-0.1-0.3-0.2-0.6-0.4-0.9
	c-0.1-0.2-0.4-0.7-0.9-1.3c-0.5-0.6-0.8-1-0.9-1.2c-0.2-0.3-0.3-0.6-0.3-0.9c-0.1-0.3-0.1-0.6,0-0.9c0.1-0.6,0.3-1.2,0.8-1.7
	c0.5-0.5,1-1,1.7-1.2c0.7-0.3,1.4-0.4,2.2-0.3c0.4,0,0.9,0.2,1.5,0.4c0.3,0.1,0.6,0.2,0.9,0.3c-0.2,0.4-0.4,0.8-0.5,1.1
	C155.2,13.7,155,14.5,154.7,15.5z M136.5,18c0.3-2.6,0.5-4.6,0.8-5.8c-0.8,1.1-1.3,1.8-1.5,2.1l-2.4,3.8c0.5,0,1.3,0,2.3,0
	C135.9,18,136.2,18,136.5,18z M139.7,21.7l-0.1,0.6c-0.2,0-0.4,0-0.6,0c-0.3,0-0.6,0-0.9,0c-0.6-0.1-1-0.1-1.2-0.1
	c-0.3,0-0.7,0.1-1.3,0.1c0.2-0.5,0.4-1,0.5-1.6c0.1-0.4,0.2-1.1,0.3-2.1c-0.8,0-1.9,0-3.5,0.1c-1.6,2.5-2.8,4.2-3.5,4.8
	c-0.8,0.7-1.5,1-2.2,1c-0.4,0-0.6-0.1-0.8-0.2c-0.2-0.1-0.3-0.3-0.3-0.5c0-0.2,0-0.3,0.1-0.4c0.1-0.1,0.2-0.2,0.4-0.2
	c0.1,0,0.2,0,0.4,0c0.4,0.1,0.7,0.1,0.8,0.1c0.4,0,0.9-0.3,1.4-0.8c0.8-0.8,2.1-2.5,3.7-5.1c1.8-2.9,3.3-5.1,4.5-6.4
	c-1.6,0.2-2.6,0.3-3,0.5c-0.5,0.2-0.9,0.5-1.2,0.8c-0.3,0.4-0.4,0.7-0.4,1.1c0,0.1,0,0.3,0.1,0.5c0.1,0.2,0.1,0.4,0.1,0.5
	c0,0.1-0.1,0.3-0.2,0.4c-0.1,0.1-0.2,0.2-0.4,0.2c-0.2,0-0.4-0.1-0.5-0.2c-0.1-0.2-0.2-0.4-0.2-0.7c0-0.5,0.1-0.9,0.3-1.4
	c0.2-0.4,0.6-0.8,1-1.1c0.4-0.3,1-0.5,1.7-0.7c0.4-0.1,1-0.2,1.8-0.3c0.8-0.1,1.2-0.1,1.4-0.2c0.3-0.1,0.6-0.3,0.9-0.5
	c-0.2,0.8-0.3,1.5-0.4,2.1l-0.7,5.6l-0.4,4c0.5,0.1,0.9,0.2,1.3,0.2C139.1,21.8,139.4,21.8,139.7,21.7z M124.3,12.5
	c-0.4,0.1-0.8,0.2-1.3,0.3c-0.7,0.1-1.6,0.1-2.6-0.1c-0.6-0.1-1-0.1-1.2-0.1c-0.3,0-0.5,0.1-0.6,0.2c-0.1,0.1-0.2,0.3-0.2,0.4
	c0,0.2,0.1,0.3,0.4,0.5c0.2,0.1,0.4,0.3,0.4,0.3c0.1,0.1,0.1,0.2,0.1,0.3c0,0.2,0,0.3-0.1,0.4c-0.1,0.1-0.2,0.2-0.4,0.2
	c-0.3,0-0.5-0.1-0.7-0.3c-0.2-0.2-0.3-0.5-0.4-0.9c-0.1-0.6,0.1-1.1,0.5-1.5c0.4-0.5,0.9-0.7,1.5-0.8c0.4,0,0.9-0.1,1.4-0.1
	c1.3,0,2.2,0,2.9-0.1c0.6-0.1,1.2-0.3,1.8-0.7c0.2-0.1,0.3-0.1,0.3-0.2c0.1,0,0.2,0,0.2,0.1c0.1,0.1,0.1,0.1,0.1,0.2
	c0,0.2-0.2,0.6-0.8,1.2c-0.6,0.6-1.1,1.3-1.6,1.9l-4.2,5.6l-2.4,3.3c1.3-0.6,2.4-0.9,3.1-1c1-0.1,2.1,0,3.4,0.2
	c0.7,0.2,1.1,0.2,1.4,0.2c0.3,0,0.5-0.1,0.6-0.3c0.1-0.1,0.2-0.3,0.1-0.6c0-0.1-0.1-0.3-0.2-0.4c-0.1-0.2-0.2-0.3-0.2-0.4
	c0-0.2,0-0.3,0.1-0.5c0.1-0.2,0.3-0.2,0.4-0.3c0.2,0,0.4,0,0.5,0.2c0.2,0.1,0.3,0.3,0.3,0.6c0.1,0.6-0.1,1.2-0.6,1.6
	c-0.4,0.5-1,0.7-1.6,0.8c-0.4,0-1,0.1-2,0.1c-1.1,0-2.3,0.1-3.5,0.2c-1.4,0.2-2.4,0.4-2.8,0.7c-0.2,0.1-0.3,0.2-0.4,0.2
	c-0.1,0-0.1,0-0.2-0.1c-0.1,0-0.1-0.1-0.1-0.2c0-0.2,0.1-0.4,0.3-0.7c0.2-0.3,0.7-0.8,1.3-1.7c0.5-0.7,1.3-1.7,2.4-3.1l2.5-3.3
	C123.1,14.3,123.7,13.4,124.3,12.5z M113.9,16.2l-0.5,0.1c-0.1-0.7-0.2-1.2-0.2-1.5c-0.1-0.5-0.3-0.8-0.7-1.1
	c-0.3-0.2-0.7-0.3-1.2-0.2c-0.7,0.2-1.2,0.6-1.6,1.2c-0.4,0.6-0.5,1.2-0.4,1.9c0.1,0.3,0.2,0.6,0.4,0.9c0.2,0.2,0.6,0.5,1.2,0.9
	c1.1,0.7,1.8,1.2,2.2,1.6c0.4,0.4,0.6,0.9,0.8,1.3c0.2,0.7,0.1,1.4-0.2,2.1c-0.3,0.7-0.8,1.4-1.5,2c-0.7,0.6-1.5,1-2.5,1.2
	c-0.9,0.2-1.7,0.1-2.4-0.2c-0.7-0.3-1.1-0.7-1.3-1.3c-0.1-0.3,0-0.5,0.1-0.7c0.1-0.2,0.3-0.4,0.5-0.4c0.2,0,0.4,0,0.6,0.1
	c0.1,0.1,0.3,0.3,0.4,0.6c0.2,0.4,0.4,0.7,0.6,0.9c0.2,0.2,0.4,0.3,0.7,0.3c0.3,0.1,0.6,0.1,0.9,0c0.9-0.2,1.6-0.7,2.2-1.5
	c0.5-0.8,0.7-1.5,0.5-2.3c-0.1-0.3-0.2-0.5-0.3-0.7c-0.1-0.2-0.4-0.5-0.7-0.7c-0.2-0.2-0.6-0.5-1.3-0.9c-0.7-0.4-1.1-0.7-1.3-0.9
	c-0.3-0.2-0.5-0.5-0.6-0.8c-0.2-0.3-0.3-0.5-0.3-0.8c-0.1-0.6-0.1-1.2,0.2-1.9c0.3-0.7,0.6-1.3,1.2-1.7c0.5-0.5,1.2-0.8,2-1
	c0.4-0.1,0.9-0.1,1.5-0.2c0.3,0,0.6,0,0.9-0.1c0,0.4-0.1,0.9-0.1,1.2C113.7,14.3,113.8,15.1,113.9,16.2z M98.1,12.5
	c0.3-0.1,0.5-0.1,0.8,0c0.2,0.1,0.4,0.3,0.5,0.6c0.1,0.3,0.1,0.5,0,0.8c-0.1,0.2-0.3,0.4-0.6,0.5c-0.3,0.1-0.5,0.1-0.8,0
	c-0.2-0.1-0.4-0.3-0.5-0.6c-0.1-0.3-0.1-0.5,0-0.8C97.7,12.8,97.9,12.6,98.1,12.5z M101.2,16.7c-0.4,0.2-0.8,0.4-1.2,0.6
	c-0.7,0.2-1.5,0.4-2.5,0.4c-0.6,0-1,0.1-1.2,0.1c-0.3,0.1-0.4,0.2-0.5,0.4c-0.1,0.2-0.1,0.3-0.1,0.5c0.1,0.2,0.2,0.3,0.5,0.4
	c0.3,0.1,0.4,0.2,0.5,0.2c0.1,0.1,0.1,0.2,0.2,0.3c0.1,0.2,0,0.3,0,0.5c-0.1,0.1-0.2,0.3-0.3,0.3c-0.2,0.1-0.5,0-0.8-0.1
	c-0.3-0.2-0.4-0.4-0.6-0.8c-0.2-0.5-0.1-1.1,0.1-1.6c0.3-0.5,0.7-0.9,1.3-1.1c0.4-0.1,0.8-0.3,1.4-0.4c1.3-0.2,2.2-0.4,2.8-0.6
	c0.6-0.2,1.1-0.5,1.6-1c0.1-0.1,0.2-0.2,0.3-0.2c0.1,0,0.2,0,0.2,0c0.1,0,0.1,0.1,0.2,0.1c0.1,0.2-0.1,0.6-0.5,1.3
	c-0.4,0.7-0.8,1.5-1.1,2.2l-3,6.4l-1.7,3.8c1.2-0.8,2.1-1.4,2.8-1.6c1-0.3,2.1-0.5,3.3-0.5c0.7,0,1.2,0,1.4-0.1
	c0.3-0.1,0.5-0.2,0.6-0.4c0.1-0.2,0.1-0.4,0-0.6c0-0.1-0.1-0.3-0.2-0.4c-0.1-0.2-0.2-0.3-0.3-0.4c-0.1-0.2-0.1-0.3,0-0.5
	c0.1-0.2,0.2-0.3,0.4-0.3c0.2-0.1,0.4,0,0.6,0.1c0.2,0.1,0.3,0.3,0.4,0.5c0.2,0.6,0.1,1.2-0.2,1.7c-0.3,0.5-0.8,0.9-1.4,1.1
	c-0.4,0.1-1,0.3-2,0.5c-1.1,0.2-2.2,0.5-3.4,1c-1.4,0.5-2.3,0.9-2.6,1.2c-0.2,0.1-0.3,0.2-0.4,0.3c-0.1,0-0.1,0-0.2,0
	c-0.1,0-0.1-0.1-0.1-0.2c-0.1-0.2,0-0.4,0.1-0.7c0.2-0.3,0.5-1,0.9-1.9c0.4-0.8,0.9-2,1.7-3.5l1.8-3.8
	C100.4,18.8,100.8,17.8,101.2,16.7z M93.2,29.7l0,0.6c-0.3,0.3-0.6,0.4-0.9,0.6c-0.3,0.1-0.7,0.3-1.1,0.4c-0.5,0.1-0.8,0.3-1.1,0.4
	c-0.4,0.2-0.9,0.5-1.6,0.9l0-0.5c0.5-0.4,0.8-0.7,0.8-0.9c0.1-0.2,0-1-0.2-2.4c-0.2-1.4-0.4-2.3-0.6-2.7c-0.4-0.8-0.9-1.5-1.6-2.2
	c-0.7-0.7-1.4-1.2-2.1-1.5c-0.7,0.7-1.2,1.3-1.5,1.7c-0.3,0.5-0.4,0.9-0.4,1.4c0,0.5,0,0.9,0.1,1.2c0.1,0.3,0.4,0.5,0.8,0.7
	c0.3,0.1,0.5,0.3,0.6,0.4c0.1,0.2,0.1,0.3,0,0.4c0,0.1-0.1,0.2-0.3,0.3c-0.2,0.1-0.5,0.1-0.8-0.1c-0.4-0.2-0.7-0.6-0.9-1
	c-0.3-0.7-0.4-1.4-0.3-2.1c0.1-0.7,0.4-1.5,0.9-2.1c0.3-0.4,0.8-0.9,1.6-1.6c0.3-0.2,0.5-0.5,0.7-0.7c0.8,0.4,1.5,0.9,2.1,1.6
	c0.7,0.7,1.3,1.6,2,2.7c0.1-2.8,0.4-4.9,1-6.3c0.6-1.4,1.2-2.2,1.8-2.5c0.2-0.1,0.4-0.1,0.6,0c0.2,0.1,0.3,0.2,0.4,0.3
	c0.1,0.2,0.1,0.3,0,0.5c-0.1,0.2-0.3,0.4-0.8,0.6c-0.4,0.2-0.7,0.4-0.8,0.7c-0.3,0.5-0.6,1.2-0.9,2.2c-0.3,1-0.5,2.2-0.6,3.6
	c-0.1,1.4,0,2.7,0.2,4c0.2,1.3,0.4,2.2,0.5,2.6c0.3-0.1,0.6-0.2,0.9-0.3C92.3,30.3,92.8,30,93.2,29.7z M246.3,180
	c2.4,1.1,4.1,2,5.2,2.7c-0.8-1.1-1.3-1.8-1.5-2.1l-2.8-3.5c-0.2,0.5-0.4,1.2-0.7,2.2C246.4,179.5,246.4,179.7,246.3,180z
	 M241.7,181.8l-0.5-0.3c0.1-0.2,0.1-0.4,0.2-0.6c0.1-0.2,0.2-0.5,0.3-0.9c0.2-0.6,0.4-0.9,0.4-1.1c0.1-0.3,0.2-0.7,0.3-1.2
	c0.4,0.3,0.9,0.7,1.4,1c0.3,0.2,1,0.5,1.9,0.9c0.2-0.7,0.6-1.8,1-3.4c-1.9-2.3-3-4-3.4-4.9c-0.4-0.9-0.5-1.7-0.2-2.4
	c0.1-0.3,0.3-0.6,0.5-0.7c0.2-0.1,0.4-0.2,0.6-0.1c0.2,0.1,0.3,0.1,0.4,0.3c0.1,0.1,0.1,0.3,0,0.4c0,0.1-0.1,0.2-0.2,0.3
	c-0.2,0.3-0.3,0.6-0.4,0.7c-0.1,0.4,0,0.9,0.3,1.6c0.5,1.1,1.7,2.8,3.6,5.2c2.2,2.7,3.7,4.8,4.6,6.3c0.4-1.6,0.5-2.6,0.5-3
	c0-0.6-0.1-1-0.4-1.4c-0.2-0.4-0.5-0.6-0.9-0.7c-0.1,0-0.3,0-0.5,0c-0.3,0-0.4,0-0.5,0c-0.1,0-0.2-0.1-0.3-0.3
	c-0.1-0.1-0.1-0.3,0-0.4c0.1-0.2,0.2-0.4,0.4-0.4c0.2-0.1,0.5-0.1,0.8,0c0.4,0.1,0.8,0.4,1.2,0.8c0.3,0.4,0.6,0.8,0.7,1.3
	c0.1,0.5,0.2,1.1,0.1,1.8c0,0.4-0.1,1-0.4,1.8c-0.2,0.8-0.3,1.2-0.3,1.4c0,0.3,0.1,0.6,0.2,1c-0.7-0.4-1.3-0.8-1.9-1l-5.1-2.5
	l-3.7-1.7c-0.3,0.4-0.5,0.8-0.6,1.2C241.8,181.2,241.7,181.5,241.7,181.8z M258,167.6l-1.2,0c-1.1,0-2,0.1-2.8,0.1
	c-0.8,0.1-2.7,0.3-5.7,0.6c0.3,0.2,1.1,0.5,2.2,1.1c1.5,0.7,2.4,1.2,2.8,1.4c1.1,0.6,1.9,1.2,2.3,1.6c0.5,0.5,0.8,0.9,0.9,1.4
	c0.1,0.5,0.2,0.9,0,1.5c-0.1,0.4-0.2,0.7-0.5,0.9c-0.2,0.2-0.4,0.2-0.6,0.2c-0.2,0-0.3-0.1-0.4-0.3c-0.1-0.1-0.1-0.3-0.1-0.5
	c0-0.1,0.1-0.2,0.2-0.4c0.2-0.3,0.3-0.5,0.3-0.5c0.1-0.1,0.1-0.2,0.1-0.4c0.1-0.3,0-0.6-0.1-0.9c-0.3-0.5-1.1-1.1-2.5-1.9
	c-1.4-0.8-3.6-2-6.7-3.4l-1.3-0.7c1.8-0.4,3-0.6,3.7-0.7c1-0.1,2.2-0.3,3.6-0.4l3.5-0.3c-0.7-0.3-1.9-0.9-3.6-1.8
	c-1.7-0.9-2.7-1.4-2.9-1.5c-0.8-0.5-1.4-1-1.7-1.4c-0.4-0.4-0.6-0.9-0.7-1.3c-0.1-0.4-0.1-0.9,0-1.4c0.1-0.6,0.4-1.1,0.7-1.4
	c0.3-0.2,0.5-0.3,0.8-0.3c0.1,0,0.2,0.1,0.3,0.2c0.1,0.1,0.1,0.3,0.1,0.4c0,0.2-0.2,0.4-0.5,0.6c-0.5,0.3-0.7,0.6-0.8,1
	c-0.1,0.4,0,0.8,0.2,1.2c0.4,0.6,1.3,1.4,2.8,2.2c1.8,1,4.1,2.1,6.9,3.4c0.1-0.2,0.1-0.7,0.1-1.3c0-0.7,0-1.2-0.2-1.7
	c-0.1-0.5-0.4-0.9-0.7-1.2c-0.3-0.3-0.7-0.5-1.1-0.6c-0.2,0-0.4-0.1-0.6-0.1c-0.1,0-0.3,0.1-0.6,0.1c-0.3,0.1-0.5,0.1-0.6,0.1
	c-0.1,0-0.3-0.1-0.4-0.3c-0.1-0.1-0.1-0.3-0.1-0.5c0.1-0.2,0.2-0.4,0.5-0.5c0.3-0.1,0.7-0.1,1.2,0c0.8,0.2,1.5,0.6,2,1.1
	c0.5,0.6,0.8,1.2,1,2c0.1,0.5,0.1,1.4-0.1,2.8C258,166.7,258,167.1,258,167.6z M259,156c0-0.4,0-0.9,0-1.3c0.1-0.7,0.3-1.5,0.7-2.5
	c0.2-0.6,0.4-0.9,0.4-1.1c0-0.3,0-0.5-0.1-0.7c-0.1-0.2-0.2-0.2-0.4-0.3c-0.2,0-0.4,0.1-0.5,0.2c-0.2,0.2-0.3,0.3-0.4,0.4
	c-0.1,0-0.2,0.1-0.3,0c-0.2,0-0.3-0.1-0.4-0.2c-0.1-0.1-0.1-0.3-0.1-0.4c0-0.3,0.2-0.5,0.4-0.6c0.3-0.2,0.6-0.2,1-0.2
	c0.6,0.1,1,0.3,1.4,0.8c0.3,0.5,0.5,1,0.4,1.6c0,0.4-0.1,0.9-0.3,1.4c-0.3,1.2-0.6,2.2-0.6,2.8c-0.1,0.6,0,1.3,0.2,1.9
	c0.1,0.2,0.1,0.3,0.1,0.4c0,0.1,0,0.2-0.1,0.2c-0.1,0.1-0.1,0.1-0.2,0.1c-0.2,0-0.5-0.4-1-1c-0.5-0.7-1-1.3-1.5-2l-4.4-5.5l-2.6-3.1
	c0.2,1.4,0.3,2.5,0.2,3.2c-0.1,1-0.5,2.1-1,3.2c-0.3,0.6-0.5,1.1-0.5,1.3c0,0.3,0,0.5,0.1,0.7c0.1,0.2,0.3,0.3,0.5,0.3
	c0.1,0,0.3,0,0.5,0c0.2-0.1,0.4-0.1,0.4-0.1c0.2,0,0.3,0.1,0.4,0.2c0.1,0.1,0.2,0.3,0.1,0.5c0,0.2-0.1,0.4-0.3,0.5
	c-0.2,0.1-0.4,0.2-0.7,0.1c-0.6-0.1-1.1-0.4-1.5-0.9c-0.3-0.5-0.5-1.1-0.4-1.8c0-0.4,0.2-1,0.4-2c0.3-1.1,0.5-2.2,0.6-3.5
	c0.2-1.4,0.2-2.4,0.1-2.9c-0.1-0.2-0.1-0.4-0.1-0.4c0-0.1,0-0.1,0.1-0.2c0.1,0,0.1-0.1,0.2,0c0.2,0,0.4,0.2,0.6,0.4
	c0.2,0.3,0.7,0.8,1.3,1.7c0.6,0.7,1.4,1.7,2.4,3.1l2.6,3.3C257.5,154.4,258.2,155.2,259,156z M257.6,145.2l0-0.5
	c0.5,0,0.9,0.1,1.2,0.1c0.9,0,1.6-0.2,1.9-0.5c0.4-0.4,0.6-0.8,0.6-1.4c0-0.8-0.3-1.6-0.9-2.4c-0.6-0.8-1.6-1.6-2.9-2.2
	c-1.3-0.6-2.7-0.9-4.1-1c-1.4,0-2.4,0.2-3.1,0.8c-0.7,0.5-1.1,1.2-1.1,2.1c0,1.1,0.6,2.2,2,3.2c0.1,0.1,0.2,0.2,0.2,0.3
	c0,0.1,0,0.2-0.1,0.2c-0.1,0.1-0.1,0.1-0.2,0.1c-0.2,0-0.5-0.2-1-0.7c-0.5-0.4-0.9-1-1.3-1.7c-0.3-0.7-0.5-1.3-0.5-1.9
	c0-0.8,0.2-1.5,0.6-2.1c0.4-0.6,1-1.1,1.7-1.5c0.7-0.3,1.6-0.5,2.6-0.5c1.4,0,2.8,0.4,4.2,1.2c1.4,0.8,2.5,1.7,3.2,2.8
	c0.7,1.1,1.1,2.2,1.1,3.3c0,0.4-0.1,0.8-0.1,1.1c0,0.2-0.3,0.8-0.7,2C260,145.5,258.8,145.3,257.6,145.2z M262.1,134.3l-0.5-0.1
	c-0.1-0.7-0.2-1.2-0.4-1.4c-0.1-0.1-0.3-0.3-0.4-0.4c-0.2-0.1-1.5-0.4-3.8-0.8c-0.8-0.1-2.8-0.4-6.2-1c-0.1,0.5-0.1,1,0,1.7
	l-0.5-0.1c0-0.2,0-0.6,0-1.2c0-0.5,0-1-0.1-1.6c-0.1-0.8-0.2-1.6-0.4-2.2l0.5,0.1c0.2,0.7,0.4,1.2,0.6,1.6c0.1,0.1,0.1,0.2,0.2,0.2
	c0.1,0.1,0.4,0.2,0.7,0.3c0.4,0.1,1.8,0.3,4.4,0.8c0.7,0.1,2.4,0.4,4.9,0.8c0-0.4-0.1-1-0.3-1.6l0.5,0.1c0.1,0.3,0.2,0.5,0.2,0.8
	c0.1,0.3,0.1,0.9,0.3,1.9C261.9,133.1,262,133.8,262.1,134.3z M257.7,125.5l-0.1-0.5c0.3,0,0.6,0,0.8-0.1c0.9-0.1,1.5-0.4,1.8-0.9
	c0.3-0.5,0.5-1.1,0.4-1.7c-0.1-0.9-0.6-1.8-1.3-2.6c-0.7-0.8-1.7-1.5-2.9-1.9c-1.2-0.4-2.4-0.6-3.6-0.4c-1.2,0.2-2.1,0.6-2.6,1.2
	c-0.5,0.7-0.7,1.3-0.6,2.1c0.1,0.4,0.2,0.8,0.3,1.2c0.2,0.4,0.4,0.7,0.7,1c1,0.2,1.7,0.2,2.1,0.2c0.2,0,0.3-0.1,0.4-0.2
	c0.1-0.1,0.1-0.4,0-0.7c0-0.1-0.1-0.4-0.2-0.7l0.5,0c0.1,0.3,0.2,0.6,0.2,0.8c0,0.2,0.1,0.5,0.1,0.9c0,0.3,0.1,0.5,0.1,0.6
	c0,0.2,0.1,0.6,0.2,1.1c0.1,0.2,0.1,0.5,0.1,0.6l-0.5,0c0-0.3-0.1-0.5-0.3-0.7c-0.2-0.1-0.6-0.2-1.2-0.3c-2.3-0.2-3.9-0.5-5-0.9
	c-1.1-0.4-1.8-0.9-2.4-1.5c-0.5-0.6-0.8-1.3-0.9-2c-0.1-0.6,0-1.2,0.2-1.6c0.2-0.4,0.5-0.7,0.8-0.7c0.2,0,0.3,0,0.5,0.1
	c0.1,0.1,0.2,0.2,0.2,0.4c0,0.2-0.1,0.5-0.4,0.8c-0.3,0.4-0.5,0.6-0.6,0.8c-0.1,0.2-0.1,0.4-0.1,0.6c0.1,0.4,0.3,0.7,0.6,1
	c0.7,0.5,2.2,1,4.6,1.3c-0.3-0.4-0.5-0.8-0.7-1.2c-0.2-0.4-0.3-0.9-0.4-1.3c-0.2-1.1,0-2.1,0.5-2.8c0.7-1,1.7-1.6,3.2-1.8
	c1.3-0.2,2.6,0,3.8,0.5c1.2,0.5,2.3,1.3,3.2,2.4c0.9,1.1,1.4,2.1,1.6,3.2c0.1,0.6,0.1,1.3,0,2.1c-0.1,0.8-0.1,1.4,0,1.8
	C259.8,125.4,258.7,125.4,257.7,125.5z M257.9,107.4c-0.2-0.7-0.5-1.4-1.1-1.9c-0.6-0.5-1.4-0.9-2.4-1c-1-0.2-2.1-0.1-3.3,0.2
	c-1.4,0.3-2.4,0.9-3,1.7c-0.6,0.8-0.8,1.6-0.6,2.6c0.2,0.7,0.5,1.3,1.1,1.8c0.6,0.5,1.4,0.8,2.5,1c1.1,0.2,2.2,0.1,3.5-0.2
	c1.3-0.3,2.2-0.8,2.8-1.6C257.9,109.1,258.1,108.2,257.9,107.4z M258.7,107.9c0.2,0.8,0.2,1.6-0.1,2.3c-0.2,0.7-0.6,1.3-1.2,1.9
	c-0.6,0.5-1.4,0.9-2.3,1.1c-1.2,0.3-2.4,0.2-3.8-0.1c-1.3-0.4-2.4-0.9-3.2-1.7c-0.8-0.8-1.3-1.7-1.6-2.9c-0.3-1.3-0.1-2.4,0.5-3.4
	c0.6-1,1.6-1.6,2.9-1.9c1.3-0.3,2.6-0.3,3.9,0.1c1.3,0.4,2.4,0.9,3.2,1.7C257.9,105.7,258.4,106.7,258.7,107.9z M252.6,99.7
	l-0.2-0.5c0.3-0.1,0.6-0.2,0.8-0.3c0.8-0.3,1.3-0.8,1.5-1.3c0.2-0.6,0.2-1.2-0.1-1.8c-0.3-0.9-1-1.6-1.9-2.2c-0.9-0.6-2-1-3.3-1.1
	c-1.3-0.1-2.4,0-3.6,0.5c-1.1,0.5-1.9,1.1-2.2,1.8c-0.3,0.8-0.3,1.5-0.1,2.1c0.2,0.4,0.4,0.8,0.6,1.1c0.3,0.3,0.5,0.6,0.9,0.9
	c1.1-0.1,1.7-0.2,2.1-0.3c0.2-0.1,0.2-0.2,0.3-0.3c0-0.1,0-0.4-0.1-0.6c0-0.1-0.1-0.3-0.3-0.7l0.5-0.1c0.2,0.2,0.3,0.5,0.4,0.8
	c0.1,0.2,0.2,0.5,0.3,0.8c0.1,0.2,0.2,0.4,0.2,0.6c0.1,0.2,0.2,0.5,0.5,1c0.1,0.2,0.2,0.4,0.3,0.6l-0.5,0.1
	c-0.1-0.3-0.3-0.5-0.5-0.6c-0.2-0.1-0.6-0.1-1.2,0c-2.3,0.3-3.9,0.4-5.1,0.3c-1.1-0.1-2-0.4-2.6-0.8c-0.6-0.5-1.1-1-1.4-1.7
	c-0.2-0.6-0.3-1.1-0.2-1.6c0.1-0.5,0.3-0.8,0.6-0.9c0.2-0.1,0.3-0.1,0.5,0c0.2,0.1,0.3,0.2,0.3,0.3c0.1,0.2,0,0.5-0.2,0.9
	c-0.2,0.4-0.3,0.7-0.4,0.9c0,0.2,0,0.4,0.1,0.6c0.2,0.4,0.4,0.7,0.8,0.8c0.8,0.4,2.4,0.4,4.8,0.1c-0.4-0.3-0.7-0.6-1-1
	c-0.3-0.4-0.5-0.8-0.7-1.2c-0.4-1.1-0.5-2-0.2-2.8c0.4-1.1,1.3-1.9,2.6-2.5c1.2-0.5,2.5-0.6,3.8-0.5c1.3,0.2,2.6,0.7,3.7,1.5
	c1.1,0.8,1.9,1.7,2.3,2.7c0.2,0.5,0.4,1.2,0.5,2c0.1,0.8,0.3,1.4,0.4,1.8C254.7,99.1,253.6,99.3,252.6,99.7z M243.3,86
	c2.5-0.9,4.3-1.5,5.6-1.8c-1.3-0.2-2.2-0.4-2.5-0.4l-4.4-0.5c0.2,0.5,0.6,1.2,1,2.1C243,85.5,243.2,85.7,243.3,86z M241.3,90.5
	l-0.5,0.2c-0.1-0.2-0.2-0.4-0.3-0.5c-0.1-0.2-0.2-0.5-0.4-0.8c-0.2-0.6-0.4-0.9-0.4-1.1c-0.1-0.2-0.4-0.6-0.7-1.1
	c0.5-0.1,1.1-0.1,1.7-0.3c0.4-0.1,1.1-0.3,2-0.7c-0.3-0.7-0.9-1.7-1.7-3.1c-3-0.3-5-0.7-5.9-1.1c-0.9-0.4-1.5-0.9-1.9-1.5
	c-0.2-0.3-0.2-0.6-0.2-0.8c0-0.2,0.2-0.4,0.4-0.5c0.2-0.1,0.3-0.1,0.4-0.1c0.1,0,0.3,0.1,0.3,0.3c0,0.1,0.1,0.2,0.1,0.4
	c0.1,0.4,0.2,0.6,0.2,0.8c0.2,0.4,0.6,0.7,1.3,0.9c1.1,0.4,3.2,0.8,6.2,1.1c3.5,0.4,6,0.8,7.8,1.2c-0.9-1.4-1.4-2.2-1.7-2.5
	c-0.4-0.4-0.8-0.7-1.3-0.7c-0.4-0.1-0.8-0.1-1.1,0.1c-0.1,0.1-0.2,0.2-0.4,0.3c-0.2,0.2-0.3,0.3-0.4,0.4c-0.1,0.1-0.3,0.1-0.4,0
	c-0.1,0-0.3-0.1-0.3-0.3c-0.1-0.2-0.1-0.4,0-0.6c0.1-0.2,0.3-0.4,0.6-0.5c0.4-0.2,0.9-0.3,1.4-0.3c0.5,0,1,0.2,1.5,0.4
	c0.5,0.3,0.9,0.7,1.4,1.2c0.2,0.3,0.6,0.8,1,1.5c0.4,0.7,0.7,1.1,0.8,1.2c0.2,0.2,0.5,0.4,0.8,0.6c-0.8,0.2-1.5,0.4-2.1,0.6
	l-5.4,1.9l-3.8,1.4c0.1,0.5,0.3,0.9,0.4,1.2C241,90,241.1,90.3,241.3,90.5z M238.9,67.9l0.4-0.1c0.4,0.6,1,1.2,1.7,1.9
	c-0.8,0.2-1.6,0.4-2.5,0.7l-2.6,0.9c-1.9,0.7-3.4,1.1-4.6,1.1c0.2,0.5,0.4,1,0.7,1.3c0.6,1,1.4,1.7,2.2,2.1c0.9,0.4,1.8,0.6,2.8,0.5
	c1-0.1,2-0.4,2.9-1c1.2-0.8,2-1.8,2.2-3c0.3-1.2,0-2.4-0.7-3.5c-0.6-1-1.4-1.7-2.5-2.3c-1-0.6-2.1-0.8-3.1-0.8c-1.1,0-2,0.2-2.7,0.7
	c-0.7,0.5-1,1.1-0.9,1.9c0,0.2,0,0.4,0,0.5c0,0.1-0.1,0.2-0.2,0.2c-0.1,0.1-0.3,0.1-0.4,0.1c-0.2,0-0.3-0.1-0.4-0.2
	c-0.2-0.3-0.2-0.7,0-1.2c0.3-0.7,0.7-1.3,1.3-1.6c0.9-0.6,2-0.9,3.3-0.9c1.2,0,2.4,0.3,3.6,1c1.2,0.7,2.1,1.6,2.9,2.8
	c1,1.5,1.4,3,1.1,4.4c-0.2,1.4-0.9,2.5-2.2,3.3c-1.1,0.7-2.4,1.1-3.7,1.1c-1.3,0-2.5-0.3-3.5-0.9c-1-0.6-1.7-1.4-2.3-2.2
	c-0.2-0.3-0.5-0.8-0.9-1.5c-0.3-0.6-0.7-1.2-1-1.7c-0.2-0.2-0.4-0.6-0.8-1.1l0.5-0.1c0.4,0.5,0.6,0.8,0.7,0.9
	c0.1,0.1,0.3,0.1,0.5,0.1c0.4,0,1-0.1,2.1-0.4l2.5-0.8l3.1-1.1c0.2,0,0.3-0.1,0.4-0.2c0.1-0.1,0.1-0.1,0.2-0.2c0-0.1,0-0.2-0.1-0.3
	C239.1,68,239,68,238.9,67.9z M234.9,61.8l-0.3-0.4c0.3-0.2,0.5-0.3,0.6-0.5c0.2-0.2,0.3-0.4,0.2-0.6c-0.1-0.2-0.6-0.9-1.5-1.9
	l-0.9-1.1l-4,2l1.3,1.5c0.4,0.5,0.7,0.7,0.9,0.8c0.2,0,0.4,0,0.7-0.2l0.4,0.4c-0.7,0.4-1.5,0.8-2.3,1.3l-0.3-0.4
	c0.3-0.2,0.4-0.3,0.6-0.4c0.1,0,0.1-0.1,0.1-0.3c0-0.1,0-0.2-0.1-0.3c-0.1-0.2-0.3-0.4-0.5-0.6l-1.3-1.5c-2,1-3.7,1.7-5.1,2
	c0.5,0.3,1,0.7,1.3,1c0.5,0.6,1,1.4,1.6,2.4c0.3,0.5,0.5,0.9,0.6,1.1c0.2,0.2,0.4,0.3,0.6,0.4c0.2,0,0.4,0,0.5-0.1
	c0.1-0.1,0.2-0.2,0.3-0.4c0.1-0.1,0.2-0.3,0.3-0.4c0.1-0.1,0.3-0.1,0.4-0.1c0.2,0,0.3,0.1,0.4,0.2c0.1,0.2,0.2,0.3,0.2,0.5
	c0,0.2-0.1,0.4-0.3,0.6c-0.4,0.4-0.9,0.5-1.6,0.4c-0.6-0.1-1.2-0.4-1.7-1c-0.3-0.3-0.6-0.7-1-1.3c-0.8-1.2-1.4-2-1.9-2.6
	c-0.6-0.7-1.4-1.5-2.4-2.4l0.5-0.2c0.7,0.4,1.1,0.7,1.2,0.7c0.2,0,0.4,0,0.6,0c0.7-0.2,1.9-0.7,3.6-1.5c1.7-0.8,3.5-1.7,5.4-2.7
	c-0.5-0.6-1.1-1-1.9-1.3c-0.7-0.3-1.5-0.4-2.2-0.3c-0.7,0.1-1.3,0.4-1.8,0.8c-0.2,0.2-0.4,0.4-0.5,0.5c-0.1,0.2-0.3,0.5-0.4,0.9
	c-0.1,0.2-0.2,0.4-0.3,0.5c-0.1,0.1-0.2,0.1-0.4,0.1c-0.2,0-0.3-0.1-0.4-0.2c-0.2-0.2-0.2-0.4-0.1-0.7c0.1-0.4,0.4-0.8,0.9-1.2
	c1-0.9,2.3-1.3,3.8-1.2c1.5,0.1,2.9,0.8,4.2,2.3l2.2,2.5c0.8,0.9,1.4,1.5,1.8,1.8C235.9,61.2,235.3,61.6,234.9,61.8z M124.6,186.7
	c-1.2-0.5-2.5-1-3.9-1.4c-3.3-1-6.3-1.5-9.2-1.8c-3-0.2-6-0.2-9.3,0c-6.3,0.3-12.4,1.1-18.1,2.6c-5.2,1.4-10.1,3.4-14.4,6.2
	l-0.9,0.5l-0.3-1c-3.2-9.3-6.2-18.7-9.3-28c-2.3-7.2-4.7-14.5-7.2-21.8c-2.9,1.3-5.7,2.6-8.5,4l1.9,3.9c1.4,2.8,2.8,5.6,4.4,8.8
	c0.9,1.7,1.7,3.5,2.6,5.2c1.2,2.5,2.5,5,3.9,8l0.6,1.1c2.4,4.8,4.7,9.5,5.8,11.8c0.8,1.7,2.2,4.5,3.5,7.3l2.3,4.7
	c4.6-2.5,9.4-4.9,14.5-6.8c5.4-2,11-3.5,16.9-4.2c6-0.7,12.1-0.6,18.2,0C120.2,186,122.4,186.3,124.6,186.7z M220.2,143.5
	c-2.3,6.7-4.5,13.3-6.7,19.8c-3.3,9.8-6.6,19.6-9.8,29l-0.3,0.8l-0.8-0.3c-4.9-2-9.5-3.9-14.3-5.3c-4.8-1.5-9.8-2.5-15.4-3
	c-4-0.3-8.8-0.6-13.5-0.3c-4.4,0.3-8.8,1-12.4,2.7c2.2-0.3,4.3-0.6,6.5-0.8c6-0.5,12.1-0.5,18.1,0.3c5.9,0.8,11.6,2.4,17,4.6
	c5.1,2,10.1,4.5,14.7,7.2c0.7-1.7,1.6-3.6,2.4-5.6c1-2.4,2-4.5,2.8-6.5c0.7-1.6,2-4.5,3.2-7.3c0.6-1.3,1.1-2.6,2.6-5.9l1-2.3
	c1.4-3.1,2.7-6.2,4.9-11.1c1.1-2.5,2.1-4.8,3.1-6.8c0.8-1.8,1.8-3.9,2.8-6.2C224.2,145.4,222.2,144.4,220.2,143.5z M96.7,114.8
	L96.7,114.8 M172.3,117.6c-2.2,3.1-4.3,5.6-6.4,7.9c-2.3,2.4-4.6,4.5-7.2,6.5l-1.2,0.9l-0.3,0.2c-1.2,0.9-2.4,1.9-3.6,2.8l0.1,0
	l-0.1,0c-5.3,3.9-10.6,7.6-18.3,11.5l-0.3,0.2l0-0.4c-9.7-4.9-15.6-9.4-22.4-14.5l-0.9-0.7c-2.6-2-4.8-4-7-6.4c-2-2.2-4-4.7-6.2-7.7
	l0.1,6.6c2.4,3.3,4.5,6,6.6,8.4c2.1,2.4,4.3,4.4,6.9,6.3l0,0c0.9,0.7,1.3,1,1.7,1.3c6.5,4.9,12.3,9.3,21.7,14l0,0
	c9.8-4.9,15.9-9.4,22.7-14.6l1-0.7c2.6-2,4.8-4,6.9-6.3c2.1-2.3,4.2-5,6.6-8.4L172.3,117.6z M175.7,107c-0.2-0.2-0.3-0.3-0.5-0.4
	l-1-0.1l-37.8,21.2L68.1,87.9l0,0l0.1,2l66.7,38.7l1.3,0.4L175.7,107z M176.7,105.1l1,0.8L206.1,90l-0.2-1.3L176.7,105.1z
	 M177.3,123.1c-0.3-0.1-0.5-0.2-0.8-0.3c-0.9,0-1.8,0-2.6,0l0,1.8l0,0.1l0,0.1c-2.5,3.5-4.6,6.3-6.8,8.7c-2.2,2.4-4.5,4.5-7.2,6.6
	l-1,0.7c-7,5.3-13.2,10-23.3,14.9l0,0.4l-0.4-0.2c-9.8-4.8-15.9-9.4-22.6-14.5l-1.8-1.3h0c-2.7-2-5-4.1-7.2-6.6
	c-2.2-2.4-4.3-5.2-6.8-8.7l0-0.1l0-0.1l0-1.8c-1.6,0-3.2,0.1-4.9,0.3c-13.9,1.4-26.7,7.5-39,13.4l-1,0.5c3,8.8,5.9,17.6,8.7,26.4
	c2.9,8.9,5.8,17.9,8.9,27c4.3-2.6,9-4.5,14-5.8c5.8-1.6,12-2.4,18.4-2.7c3.4-0.1,6.5-0.2,9.5,0c3,0.2,6.1,0.8,9.5,1.8
	c2.9,0.9,5.4,2,7.7,3.3c2.2,1.3,4.1,2.8,6.1,4.5l2,0c0.3-0.2,0.6-0.5,0.9-0.8c1.4-1.3,3.3-2.9,7.6-5.1c4-2,8.8-2.9,13.7-3.2
	c4.8-0.3,9.7,0,13.7,0.3c5.7,0.5,10.8,1.6,15.8,3.1c4.6,1.4,9.1,3.1,13.7,5.1c3.3-9.6,6.4-18.9,9.6-28.2c2.9-8.8,5.9-17.5,8.7-25.9
	l-1-0.5c-12.2-5.9-25.1-12.1-39-13.4c-0.2,0-0.4,0-0.5,0c0,0.4,0,0.8,0,1.1c0.1,0.7,0.2,1.3,0.2,1.8c0.1,0.8,0.2,1.3,0.2,1.8
	c0.1,1,0.2,1.8,0,2.4c0.1,1.1,0.1,1.8,0,2.4c-0.3,1.1-0.9,1.5-2.5,2.4c-0.5,0.3-1,0.6-1.8,1.1l-1.1-1.7c0.7-0.4,1.3-0.8,1.8-1.1
	c0.8-0.4,1.2-0.7,1.4-0.9c-0.6,0.3-1.4,0.6-2.4,0.9l-0.6-1.9c0.9-0.3,1.6-0.6,2-0.8c-0.3,0.1-0.6,0.3-1,0.4l-0.4,0.2l-0.7-1.9
	l0.4-0.2c0.7-0.3,1.3-0.5,1.7-0.7l-0.7-1.1c-0.4,0.2-0.7,0.5-1,0.7l-1.1-1.6c0.4-0.2,0.6-0.4,0.9-0.6l-0.4-0.4
	C176.3,124.3,176.9,123.6,177.3,123.1z M179.4,122.9L179.4,122.9L179.4,122.9L179.4,122.9z M178.8,109.3c0.7,0.2,1.3,0.5,1.9,1.1
	c0.6,0.6,1,1.5,1.1,2.6c0.1,0.9,0.1,1.7,0.1,2.6l0,0.7l0,0.3c0,1.1,0,2-0.1,2.9c-0.1,0.7-0.3,1.4-0.7,1.9c14.1,1.4,27,7.6,39.3,13.6
	l1.6,0.8l0.6,0.3l-0.2,0.7c-0.6,1.7-1.2,3.4-1.8,5.1c2.4,1.1,4.7,2.2,7,3.3l0.7,0.3l-0.3,0.7c-0.9,2.1-1.9,4.3-3.1,6.9
	c-1.1,2.5-2.2,4.8-3.1,6.8c-1.1,2.5-3,6.8-4.9,11.1l-1,2.3c-0.3,0.6-1.5,3.3-2.6,5.9c-0.9,2-1.8,4-3.2,7.3c-1.1,2.4-2,4.6-2.8,6.5
	c-0.8,1.9-1.8,4.1-2.8,6.4l-0.4,0.8l-0.8-0.5c-4.9-2.8-10-5.4-15.3-7.5c-5.3-2.1-10.9-3.7-16.7-4.5c-5.9-0.8-11.9-0.8-17.8-0.3
	c-3.7,0.3-7.4,0.9-11,1.6c-1.7,1.1-2.7,2-3.6,2.8c-0.4,0.4-0.8,0.7-1.2,1.1l-0.2,0.2l-0.3,0l-2.5,0l-0.3,0l-0.2-0.2
	c-1.6-1.4-3.2-2.7-4.9-3.8h0c-3.8-0.8-7.6-1.4-11.4-1.8c-5.9-0.6-11.9-0.7-17.8,0c-5.8,0.7-11.3,2.1-16.5,4.1
	c-5.2,2-10.2,4.4-15,7.1l-0.7,0.4l-0.4-0.8l-2.6-5.4c-1-2.1-2-4.1-3.5-7.3c-2.7-5.6-4.3-8.7-5.8-11.8l-0.6-1.1
	c-1.2-2.4-2.5-5.1-3.9-8c-0.9-1.7-1.7-3.5-2.6-5.2c-1.3-2.7-2.8-5.7-4.4-8.8c-0.6-1.1-1.1-2.2-2.3-4.6l-0.4-0.7l0.7-0.4
	c3.1-1.5,6.2-2.9,9.4-4.4c-0.4-1.2-0.8-2.4-1.2-3.7l-0.2-0.7l0.6-0.3l1.6-0.8c12.4-6,25.3-12.2,39.5-13.6c1.7-0.2,3.3-0.3,5-0.3
	l-0.1-4.1l0,0l0-0.1l0-0.1l0-2.1v0l0,0l0,0l0.1-7.6L67.8,90.3l-0.1-0.1l0-0.1l-0.1-2.4l0-0.2l0.2-0.1l6.4-2.4l62.1-24.4l69.3,27
	l0.5,0.2l0.1,0l0,0l0.5,0.2l-0.5,0.3l0.3,1.6l0,0.2l-0.2,0.1l-28.3,15.8C178.9,106.9,178.7,108.2,178.8,109.3z M176.8,109.5
	c0.4-0.2,0.9-0.3,1.3-0.3c0.2,0,0.3,0,0.5,0c-0.1-1.2,0.1-2.6-0.9-3.1l0,0l-1.2-0.9l-0.3,0.1l-0.4-0.2c-6.4-2.9-25.3-10.8-35.2-15
	c0.4-0.4,0.6-1,0.6-1.5c0-1.8-2.2-3.2-4.9-3.2c-2.7,0-4.9,1.4-4.9,3.2c0,1.8,2.2,3.2,4.9,3.2c1.1,0,2.2-0.3,3-0.7l35.3,15l-0.2,0.1
	l0.8,0C176.4,106.4,176.7,108.4,176.8,109.5z M175.5,110.5c0.3-0.3,0.7-0.6,1.1-0.8c-0.1-0.8-0.2-1.6-0.6-2.2l-2.1,1.2l-0.1,8.2
	l0,0.1l0,0.1l0,0l0.1,4.3c0.3,0,0.7,0,1,0c-0.3-0.5-0.5-1.1-0.5-1.8h0l0-0.3c0-0.9-0.1-1.8-0.1-2.7c0-0.8,0-1.7,0.1-2.6l0-0.6
	C174.5,112,174.9,111.1,175.5,110.5z M176.4,115.9l0,0.3c0,1.1,0,1.9,0.1,2.7l0,0.3v0c0,0.6,0.2,1,0.5,1.3c0.4,0.4,0.8,0.6,1.2,0.6
	c0.3,0,0.7-0.2,1.1-0.5c0.3-0.3,0.6-0.8,0.6-1.4c0.1-0.8,0.1-1.7,0.1-2.7l0-0.3l0-0.2c-0.5,0.3-1.1,0.5-1.7,0.5
	C177.5,116.6,176.9,116.3,176.4,115.9z M238.5,191.9l1.6,5.4h5.3h0.3l-0.2,0.2l-4.3,3.3l1.6,5.4l0.1,0.3l-0.3-0.2l-4.3-3.3l-4.3,3.3
	l-0.3,0.2l0.1-0.3l1.6-5.4l-4.3-3.3l-0.2-0.2h0.3h5.3l1.6-5.4l0.1-0.3L238.5,191.9z M34.3,191.9l1.6,5.4h5.3h0.3l-0.2,0.2l-4.3,3.3
	l1.6,5.4l0.1,0.3l-0.3-0.2l-4.3-3.3l-4.3,3.3l-0.3,0.2l0.1-0.3l1.6-5.4l-4.3-3.3l-0.2-0.2h0.3h5.3l1.6-5.4l0.1-0.3L34.3,191.9z
	 M175.4,198.1H96.7v24h78.7V198.1z M98.4,223.7l5.6,4v-4H98.4z M95.1,204.5H71.2l11.9,11.4l0.1,0.1l0.5,0.5l-0.5,0.5l-0.1,0.1h0
	l-11.9,11.4h31.1l-6.6-4.8h-0.6v-0.7v-0.8V204.5z M168.1,227.7l5.6-4h-5.6V227.7z M200.9,204.5H177v17.8v0.8v0.7h-0.6l-6.6,4.8h15.8
	l0.1-0.1l0.2-0.1l0.1,0.2h14.9L189,217.1h0l-0.1-0.1l-0.5-0.5l0.5-0.5l0.1-0.1l0,0L200.9,204.5z M169.8,230.1h-2.3l-1.1-0.2v-0.8
	v-5.4h-60.8v5.4v0.8l-1.1,0.2h-2.4c10.5,3.9,21.9,6,33.8,6S159.2,234,169.8,230.1z M189.9,230.1h-4.4l-0.2,0.1l-0.6,0.3l-0.6,0.3
	l-0.6,0.3l-0.6,0.3l-0.6,0.3l-0.6,0.3l-0.6,0.3l-0.2,0.1l-0.6-1.2l0.2-0.1l0.6-0.3l0.6-0.3l0.6-0.3l0.1-0.1h-7.3
	c-12.1,5.1-25.3,8-39.3,8c-13.9,0-27.2-2.9-39.3-8h-7.3l0.1,0.1l0.6,0.3l0.6,0.3l0.6,0.3l0.6,0.3l0.2,0.1l-0.6,1.2l-0.2-0.1
	l-0.6-0.3l-0.6-0.3l-0.6-0.3l-0.6-0.3l-0.6-0.3l-0.6-0.3l-0.6-0.3l-0.6-0.3l-0.2-0.1h-4.4c15.8,9.3,34.2,14.6,53.9,14.6
	C155.6,244.7,174,239.4,189.9,230.1z M199.8,225.1l3.7,3.6h0l0.2,0.2l1.3,1.2h-1.8H203h-9.2c-16.7,10.5-36.5,16.6-57.8,16.6
	c-21.2,0-41-6.1-57.8-16.6h-9.1h-0.3h-1.8l1.3-1.2l0.2-0.2h0l3.4-3.3l-0.3,0.3c-4.5-3.3-8.7-6.9-12.6-10.8
	C39.4,195.2,27.3,168,27.3,138s12.2-57.2,31.9-76.9C78.8,41.4,106,29.3,136,29.3s57.2,12.2,76.9,31.9c19.7,19.7,31.9,46.9,31.9,76.9
	s-12.2,57.2-31.9,76.9c-3.9,3.9-8.1,7.5-12.6,10.8L199.8,225.1z M194,219.6l4.8,4.6c4.5-3.3,8.7-6.9,12.6-10.8
	c19.3-19.3,31.3-46,31.3-75.5s-11.9-56.1-31.3-75.5c-19.3-19.3-46-31.3-75.5-31.3S79.8,43.2,60.5,62.5c-19.3,19.3-31.3,46-31.3,75.5
	s11.9,56.1,31.3,75.5c3.9,3.9,8.2,7.6,12.7,10.8l4.8-4.6c-4.6-3.3-8.9-6.9-12.9-10.9c-18.1-18.1-29.3-43.2-29.3-70.8
	s11.2-52.7,29.3-70.8c18.1-18.1,43.2-29.3,70.8-29.3c27.6,0,52.7,11.2,70.8,29.3c18.1,18.1,29.3,43.2,29.3,70.8
	s-11.2,52.7-29.3,70.8C202.8,212.7,198.6,216.4,194,219.6z M177,202.9h26h0.3h1.8l-1.3,1.2l-0.2,0.2h0l-12.8,12.2l3,2.9l-1.3-1.2
	c4.6-3.2,8.9-6.9,12.9-10.8c17.8-17.8,28.7-42.3,28.7-69.4s-11-51.6-28.7-69.4c-17.8-17.8-42.3-28.7-69.4-28.7
	c-27.1,0-51.6,11-69.4,28.7C48.9,86.4,37.9,110.9,37.9,138s11,51.6,28.7,69.4c4,4,8.3,7.6,12.9,10.9l1.8-1.7l-12.8-12.2h0l-0.2-0.2
	l-1.3-1.2h1.8h0.3h26v-5.6v-0.1v-0.7h0.7h0.1h80.3h0.1h0.7v0.7v0.1V202.9z M149.3,210.1c-0.2,1.1-0.3,2.1-0.3,2.8
	c0,1.2,0.2,2,0.5,2.5c0.4,0.5,0.8,0.8,1.3,0.8c0.6,0,1-0.3,1.4-0.8c0.4-0.7,0.7-1.8,0.7-3.1c0-1.1-0.2-1.9-0.5-2.4
	c-0.3-0.5-0.7-0.7-1.1-0.7c-0.3,0-0.6,0.1-0.9,0.2C150,209.5,149.7,209.8,149.3,210.1z M156.4,203.3l-0.1,0.7
	c-1.2,0.1-2.3,0.3-3.1,0.7c-0.9,0.4-1.6,1-2.2,1.7c-0.6,0.7-1.1,1.7-1.4,2.9c0.4-0.3,0.8-0.6,1.2-0.8s0.8-0.2,1.3-0.2
	c0.8,0,1.5,0.3,2,0.9c0.5,0.6,0.8,1.4,0.8,2.5c0,1.5-0.4,2.8-1.3,3.8c-0.8,0.9-1.8,1.3-2.9,1.3c-1,0-1.8-0.4-2.5-1.2
	c-0.6-0.8-1-1.8-1-3.2c0-1.6,0.4-3.2,1.3-4.6c0.8-1.5,2-2.6,3.3-3.4C153,203.7,154.6,203.3,156.4,203.3z M143.1,210
	c0.2-1.1,0.3-2.1,0.3-2.8c0-1.2-0.2-2-0.5-2.5c-0.4-0.5-0.8-0.8-1.3-0.8c-0.6,0-1,0.3-1.4,0.8c-0.4,0.7-0.7,1.8-0.7,3.1
	c0,1.1,0.2,1.9,0.5,2.4c0.3,0.5,0.7,0.7,1.1,0.7c0.3,0,0.6-0.1,0.9-0.2C142.4,210.6,142.7,210.3,143.1,210z M136.1,216.8l0.1-0.6
	c1.2,0,2.2-0.3,3.1-0.7c0.9-0.4,1.6-1,2.2-1.7c0.6-0.7,1.1-1.7,1.4-2.9c-0.4,0.3-0.8,0.6-1.2,0.8c-0.4,0.2-0.8,0.3-1.3,0.3
	c-0.8,0-1.5-0.3-2-0.9c-0.5-0.6-0.8-1.4-0.8-2.5c0-1.5,0.4-2.8,1.3-3.8c0.8-0.9,1.8-1.3,2.9-1.3c1,0,1.8,0.4,2.5,1.2
	c0.6,0.8,1,1.8,1,3.2c0,1.6-0.4,3.2-1.3,4.6c-0.8,1.5-2,2.6-3.3,3.4C139.4,216.4,137.8,216.8,136.1,216.8z M133.2,210
	c0.2-1.1,0.3-2.1,0.3-2.8c0-1.2-0.2-2-0.5-2.5c-0.4-0.5-0.8-0.8-1.3-0.8c-0.6,0-1,0.3-1.4,0.8c-0.4,0.7-0.7,1.8-0.7,3.1
	c0,1.1,0.2,1.9,0.5,2.4c0.3,0.5,0.7,0.7,1.1,0.7c0.3,0,0.6-0.1,0.9-0.2C132.5,210.6,132.8,210.3,133.2,210z M126.2,216.8l0.1-0.6
	c1.2,0,2.2-0.3,3.1-0.7c0.9-0.4,1.6-1,2.2-1.7c0.6-0.7,1.1-1.7,1.4-2.9c-0.4,0.3-0.8,0.6-1.2,0.8c-0.4,0.2-0.8,0.3-1.3,0.3
	c-0.8,0-1.5-0.3-2-0.9c-0.5-0.6-0.8-1.4-0.8-2.5c0-1.5,0.4-2.8,1.3-3.8c0.8-0.9,1.8-1.3,2.9-1.3c1,0,1.8,0.4,2.5,1.2
	c0.6,0.8,1,1.8,1,3.2c0,1.6-0.4,3.2-1.3,4.6c-0.8,1.5-2,2.6-3.3,3.4C129.5,216.4,127.9,216.8,126.2,216.8z M124,203.2h0.4l-1.5,5.9
	l-1.3,5.5c-0.1,0.5-0.2,0.8-0.2,0.9c0,0.1,0.1,0.2,0.2,0.3c0.1,0.1,0.4,0.1,0.8,0.2c0.3,0,0.7,0.1,1,0.1l-0.2,0.5
	c-1.6-0.2-2.7-0.3-3.3-0.3c-0.9,0-1.9,0.1-3,0.3l0.2-0.5c0.4-0.1,0.8-0.2,1.3-0.3c0.5-0.1,0.8-0.2,1-0.4c0.2-0.3,0.5-0.9,0.8-1.9
	l1.2-4.5c0.4-1.7,0.6-2.7,0.6-2.9c0-0.3-0.1-0.4-0.3-0.4c-0.2,0-0.9,0.3-2.2,0.9l-0.2-0.5c1.9-0.9,3.1-1.5,3.5-1.8
	C123.1,204,123.6,203.6,124,203.2z M136,2c25.4,0,49.1,7,69.4,19.1c21,12.5,38.4,30.6,50.1,52.1c5.3,9.8,9.5,20.3,12.3,31.3
	c2.7,10.7,4.2,21.9,4.2,33.5c0,37.5-15.2,71.5-39.8,96.2C207.5,258.8,173.5,274,136,274s-71.5-15.2-96.2-39.8
	C15.2,209.5,0,175.5,0,138s15.2-71.5,39.8-96.2C64.4,17.2,98.4,2,136,2z M154.5,35.1l0.6,0.1l0.6,0.1l0.6,0.1l0.6,0.1l0.6,0.1
	l0.6,0.1l0.6,0.1L159,36l0.6,0.1l0.6,0.1l0.4,0.1 M160.5,36.3l-0.3,1.3l-0.4-0.1l-0.6-0.1l-0.6-0.1l-0.6-0.1l-0.6-0.1l-0.6-0.1
	l-0.6-0.1l-0.6-0.1l-0.6-0.1l-0.6-0.1l-0.6-0.1l0.2-1.3l-0.1,0l-0.1,0l-0.1,0l-0.1,0l-0.1,0l-0.1,0l-0.1,0l-0.1,0l-0.1,0l-0.1,0
	l-0.1,0l-0.1,0l-0.1,0l-0.1,0l-0.1,0l-0.1,0l-0.1,0l-0.1,0l-0.1,0l-0.1,0l-0.1,0l-0.1,0l-0.1,0l-0.1,0l-0.1,0l-0.1,0l-0.1,0l-0.1,0
	l-0.1,0l-0.1,0l-0.1,0l-0.1,0l-0.1,0l-0.1,0l-0.1,0l-0.1,0l-0.1,0l-0.1,0l-0.1,0l-0.1,0l-0.1,0l-0.1,0l-0.1,0l-0.1,0l-0.1,0l-0.1,0
	l-0.1,0l-0.1,0l-0.1,0l-0.1,0l-0.1,0l-0.1,0l-0.1,0l-0.1,0l-0.1,0l-0.1,0l-0.1,0l-0.1,0l-0.1,0l-0.1,0l-0.1,0l-0.1,0l-0.2,1.3l0.1,0
	l0.1,0l0.1,0l0.1,0l0.1,0l0.1,0l0.1,0l0.1,0l0.1,0l0.1,0l0.1,0l0.1,0l0.1,0l0.1,0l0.1,0l0.1,0l0.1,0l0.1,0l0.1,0l0.1,0l0.1,0l0.1,0
	l0.1,0l0.1,0l0.1,0l0.1,0l0.1,0l0.1,0l0.1,0l0.1,0l0.1,0l0.1,0l0.1,0l0.1,0l0.1,0l0.1,0l0.1,0l0.1,0l0.1,0l0.1,0l0.1,0l0.1,0l0.1,0
	l0.1,0l0.1,0l0.1,0l0.1,0l0.1,0l0.1,0l0.1,0l0.1,0l0.1,0l0.1,0l0.1,0l0.1,0l0.1,0l0.1,0l0.1,0l0.1,0l0.1,0l0.1,0l0.1,0"/>
</svg>
