<?xml version="1.0" encoding="UTF-8"?>
<svg xmlns="http://www.w3.org/2000/svg" xmlns:xlink="http://www.w3.org/1999/xlink" width="512" height="512" viewBox="0 0 60 60" version="1.1"><!-- Generator: Sketch 51.3 (57544) - http://www.bohemiancoding.com/sketch --><title>014 - Study</title><desc>Created with Sketch.</desc><defs/><g id="Page-1" stroke="none" stroke-width="1" fill="none" fill-rule="evenodd"><g id="014---Study" transform="translate(-1.000000, 0.000000)" fill="#fff" fill-rule="nonzero"><path d="M2.471,37.391 C2.80026375,37.6192011 3.14777307,37.8198802 3.51,37.991 C3.942,38.212 4.667,38.582 4.717,38.841 C4.7807262,39.1827503 4.73995247,39.5357742 4.6,39.854 C4.451,40.174 4.294,40.449 4.16,40.687 C3.793,41.333 3.181,42.416 4.105,43.172 C4.321,43.372 4.694,43.661 5.035,43.922 C4.78441543,44.359553 4.67085435,44.8622176 4.709,45.365 C4.76229209,45.7608192 4.97692342,46.1169696 5.302,46.349 C5.524,46.505 5.761,46.641 5.995,46.774 C6.586,47.111 6.817,47.267 6.895,47.581 C6.95072661,47.9834757 6.91657463,48.3932994 6.795,48.781 C6.737,49.049 6.679,49.317 6.646,49.581 C6.54659663,50.4922755 6.6588426,51.4141982 6.974,52.275 C7.4234219,53.863697 8.8602194,54.9706445 10.511,55 C10.7865898,54.9991281 11.0613626,54.9699754 11.331,54.913 C14.1877405,54.2356794 17.0027993,53.3932653 19.762,52.39 C22.015,53.712 23.438,57.732 23.809,59.241 C23.9197719,59.6870872 24.3203652,60.0002183 24.78,60 L49.88,59.93 C50.198095,59.9293833 50.4969218,59.7774667 50.6848608,59.5208273 C50.8727998,59.2641879 50.9274293,58.9334437 50.832,58.63 C50.5840507,57.9525717 50.2427579,57.3130683 49.818,56.73 C49.5784791,56.3851857 49.3623284,56.0247119 49.171,55.651 C48.7194175,54.7335946 48.3418821,53.7815634 48.042,52.804 C47.4712015,50.8714821 47.0756037,48.8914849 46.86,46.888 C46.5065976,43.903698 46.9553456,40.8791363 48.16,38.126 C48.265,37.897 49.832,34.744 49.974,34.487 C50.1492388,34.175643 50.1450591,33.7944486 49.9630355,33.4870089 C49.7810118,33.1795692 49.4487979,32.9925916 49.0915355,32.9965089 C48.734273,33.0004261 48.4062388,33.194643 48.231,33.506 C48.065,33.801 46.424,37.115 46.331,37.306 C44.9772182,40.3905661 44.4711396,43.7805333 44.865,47.126 C45.0987382,49.2512791 45.5237954,51.3511286 46.135,53.4 C46.4639651,54.4752817 46.8789726,55.5223313 47.376,56.531 C47.6039597,56.981734 47.8629147,57.4161101 48.151,57.831 L48.218,57.931 L25.536,58 C24.8717541,55.627989 23.6669103,53.4421559 22.016,51.614 L22.916,51.298 C23.585,51.065 24.089,50.889 24.347,50.806 C28.632,49.451 30.774,47.5 30.716,45.006 C30.717081,44.7397981 30.6090473,44.4847778 30.4170715,44.30036 C30.2250956,44.1159423 29.9659439,44.0182334 29.7,44.03 C29.1480455,44.043101 28.711146,44.5010397 28.724,45.053 C28.748,46.082 27.905,47.583 23.747,48.898 C23.476,48.985 22.955,49.167 22.264,49.408 C21.52,49.668 20.575,49.999 19.531,50.353 L19.525,50.353 C16.7107073,51.3842961 13.8392719,52.2524045 10.925,52.953 C9.99311451,53.12947 9.087016,52.5425753 8.867,51.62 C8.65403967,51.0505889 8.57367075,50.4401271 8.632,49.835 C8.659,49.626 8.706,49.417 8.752,49.208 C8.95538984,48.5169007 8.98493135,47.7862637 8.838,47.081 C8.54781232,46.1628818 7.87254397,45.4164365 6.988,45.036 C6.918,44.997 6.849,44.957 6.78,44.917 C6.88833948,44.6989801 7.01761396,44.492007 7.166,44.299 C7.33365336,44.0863106 7.40787187,43.8147167 7.37168403,43.5463235 C7.33549619,43.2779303 7.19199688,43.0356917 6.974,42.875 C6.734,42.699 6.168,42.275 5.753,41.941 C5.801,41.854 5.853,41.758 5.904,41.672 C6.061,41.396 6.241,41.072 6.415,40.706 C6.73195159,40.0051861 6.82518406,39.2237094 6.682,38.468 C6.442,37.248 5.273,36.65 4.42,36.214 C4.13261917,36.0772821 3.8570164,35.9170713 3.596,35.735 C3.3817006,35.5914967 3.18087589,35.4288287 2.996,35.249 C2.996,35.098 3.158,34.731 3.92,33.803 C5.71111243,31.4976314 7.24676799,29.0047058 8.5,26.368 C8.7352421,25.9548156 8.86763342,25.491103 8.886,25.016 C8.78386015,24.0104644 8.25093667,23.0985488 7.425,22.516 C7.025,22.145 6.639,21.795 6.595,21.471 C6.60291104,21.2346006 6.65550369,21.0018357 6.75,20.785 C6.913,20.357 7.102,19.937 7.29,19.517 C7.70056527,18.6709167 8.02842184,17.787144 8.269,16.878 L8.369,16.452 C8.58139683,15.4521828 8.85491022,14.4663323 9.188,13.5 C9.97654082,11.3251943 11.1966507,9.33226874 12.775,7.641 C13.8477747,6.54699861 15.1133209,5.66047213 16.508,5.026 C16.8309681,4.87309033 17.0478266,4.55949454 17.076887,4.20334112 C17.1059474,3.84718771 16.9427947,3.50258485 16.648887,3.29934111 C16.3549793,3.09609737 15.9749681,3.06509031 15.652,3.218 C14.0335179,3.95858035 12.5658642,4.99193872 11.323,6.266 C9.55800834,8.15404797 8.19329313,10.3797039 7.311,12.809 C6.950487,13.8534844 6.65459441,14.9191653 6.425,16 L6.325,16.422 C6.11188832,17.2074692 5.82459624,17.9709027 5.467,18.702 C5.267,19.157 5.061,19.612 4.88,20.086 C4.65224528,20.611379 4.56207696,21.1861159 4.618,21.756 C4.81913234,22.6524828 5.33679367,23.4463722 6.076,23.992 C6.564,24.44 6.885,24.756 6.889,25.031 C6.85287471,25.1828944 6.79565216,25.3289802 6.719,25.465 C5.52119196,27.9879725 4.05327497,30.3735891 2.341,32.58 C1.618,33.46 0.86,34.488 1.019,35.517 C1.23194481,36.3111886 1.75515682,36.9864637 2.471,37.391 Z" id="Shape"/><path d="M12.165,17.792 L12.265,17.357 C12.4421794,16.5211102 12.6672165,15.6960852 12.939,14.886 C13.5397713,13.2139819 14.4763123,11.6825741 15.691,10.386 C15.9623394,10.0970169 16.2614461,9.83542414 16.584,9.605 C17.0327314,9.28301799 17.135482,8.65823136 16.8135,8.2095 C16.491518,7.76076864 15.8667314,7.65801799 15.418,7.98 C14.9909888,8.28538735 14.5947799,8.6316933 14.235,9.014 C12.8346751,10.5085115 11.7542727,12.2732255 11.06,14.2 C10.7588057,15.0876239 10.5100434,15.9921837 10.315,16.909 L10.215,17.349 C10.1318382,17.6987887 10.2428548,18.0662966 10.5057649,18.3115441 C10.768675,18.5567917 11.143004,18.6420235 11.4861745,18.5347759 C11.829345,18.4275282 12.0885266,18.1443116 12.165,17.793 L12.165,17.792 Z" id="Shape"/><circle id="Oval" cx="10" cy="21" r="1"/><path d="M61,29.06 L61,4.94 C61.0016614,3.87178165 60.1382127,3.00385908 59.07,3 L57,3 L57,1.932 C57.0105573,0.87738862 56.1655819,0.0131787015 55.111,2.12385665e-16 L43.556,2.12385665e-16 C42.1528264,0.0120855409 40.8364923,0.681357772 40,1.808 C39.876867,1.64166653 39.7432632,1.48334594 39.6,1.334 C39.5410307,1.26971402 39.4737746,1.21355515 39.4,1.167 C38.5932216,0.425299405 37.5398658,0.00944479174 36.444,0 L24.889,0 C23.8344181,0.0131787015 22.9894427,0.87738862 23,1.932 L23,3 L20.93,3 C19.8617873,3.00385908 18.9983386,3.87178165 19,4.94 L19,29.06 C18.9983386,30.1282183 19.8617873,30.9961409 20.93,31 L35.01,30.93 L35.01,32.06 C35.0083386,33.1282183 35.8717873,33.9961409 36.94,34 L43.07,34 C44.1382127,33.9961409 45.0016614,33.1282183 45,32.06 L44.93,31 L59.07,31 C60.1382127,30.9961409 61.0016614,30.1282183 61,29.06 Z M43.556,2 L55,2 L55,20 L43.556,20 C42.632844,20.0031693 41.7357473,20.3064132 41,20.864 L41,4.727 C40.9556314,3.26921591 42.0983981,2.0499965 43.556,2 Z M25,22 L36.444,22 C37.9725523,22.1336993 39.1107515,23.4696139 39,25 L25,25 L25,22 Z M55,22 L54.993,25 L41,25 C40.8892485,23.4696139 42.0274477,22.1336993 43.556,22 L55,22 Z M25,2 L36.444,2 C37.9016019,2.0499965 39.0443686,3.26921591 39,4.727 L39,20.864 C38.2642527,20.3064132 37.367156,20.0031693 36.444,20 L25,20 L25,2 Z M43.563,29.563 C43.2025378,29.92668 43.0002082,30.4179491 43,30.93 L43.07,32 L37.01,32.06 L37.01,30.93 C37.0088976,29.8645474 36.1454526,29.0011024 35.08,29 L21,29.06 L20.93,5 L23,5 L23,25 C22.971412,26.0731299 23.8159865,26.9673327 24.889,27 L39,27 C39,27.016 39.008,27.029 39.009,27.045 C39.01,27.061 39,27.075 39,27.091 L39,28.955 C39,29.5072847 39.4477153,29.955 40,29.955 C40.5522847,29.955 41,29.5072847 41,28.955 L41,27.091 C41,27.075 40.992,27.061 40.991,27.045 C40.99,27.029 41,27.016 41,27 L55.111,27 C56.1840135,26.9673327 57.028588,26.0731299 57,25 L57,4.98 L59,4.94 L59.07,29 L44.93,29 C44.4179491,29.0002082 43.92668,29.2025378 43.563,29.563 Z" id="Shape"/><path d="M28,7 L36,7 C36.5522847,7 37,6.55228475 37,6 C37,5.44771525 36.5522847,5 36,5 L28,5 C27.4477153,5 27,5.44771525 27,6 C27,6.55228475 27.4477153,7 28,7 Z" id="Shape"/><path d="M28,12 L36,12 C36.5522847,12 37,11.5522847 37,11 C37,10.4477153 36.5522847,10 36,10 L28,10 C27.4477153,10 27,10.4477153 27,11 C27,11.5522847 27.4477153,12 28,12 Z" id="Shape"/><path d="M28,17 L36,17 C36.5522847,17 37,16.5522847 37,16 C37,15.4477153 36.5522847,15 36,15 L28,15 C27.4477153,15 27,15.4477153 27,16 C27,16.5522847 27.4477153,17 28,17 Z" id="Shape"/><path d="M44,7 L52,7 C52.5522847,7 53,6.55228475 53,6 C53,5.44771525 52.5522847,5 52,5 L44,5 C43.4477153,5 43,5.44771525 43,6 C43,6.55228475 43.4477153,7 44,7 Z" id="Shape"/><path d="M44,12 L52,12 C52.5522847,12 53,11.5522847 53,11 C53,10.4477153 52.5522847,10 52,10 L44,10 C43.4477153,10 43,10.4477153 43,11 C43,11.5522847 43.4477153,12 44,12 Z" id="Shape"/><path d="M44,17 L52,17 C52.5522847,17 53,16.5522847 53,16 C53,15.4477153 52.5522847,15 52,15 L44,15 C43.4477153,15 43,15.4477153 43,16 C43,16.5522847 43.4477153,17 44,17 Z" id="Shape"/></g></g></svg>
