<svg width="512" height="512" viewBox="0 0 512 512" fill="none" xmlns="http://www.w3.org/2000/svg">
<path d="M502.87 75.474C490.669 63.27 470.918 63.269 458.716 75.473L163.89 370.299L53.284 259.693C41.083 247.489 21.332 247.488 9.12999 259.692C-3.04301 271.866 -3.04301 291.673 9.12999 303.845L141.814 436.53C154.013 448.728 173.767 448.73 185.967 436.53L502.87 119.626C515.042 107.453 515.042 87.645 502.87 75.474Z" fill="white"/>
<path d="M502.87 75.474C490.669 63.27 470.918 63.269 458.716 75.473L243.511 290.678V378.984L502.87 119.626C515.042 107.453 515.042 87.645 502.87 75.474Z" fill="white"/>
</svg>
