<svg width="512" height="512" viewBox="0 0 512 512" fill="none" xmlns="http://www.w3.org/2000/svg">
<path d="M136 508C131.574 508 128 504.426 128 500C128 469.129 153.129 444 184 444C188.426 444 192 447.574 192 452C192 456.426 188.426 460 184 460C161.945 460 144 477.945 144 500C144 504.426 140.426 508 136 508Z" fill="white"/>
<path d="M216 460.016L183.992 460C179.574 460 176 456.414 176 452C176 447.574 179.586 444 184 444H184.008L216.008 444.016C220.426 444.016 224 447.602 224 452.016C224 456.441 220.414 460.016 216 460.016Z" fill="white"/>
<path d="M376 508C371.574 508 368 504.426 368 500C368 477.945 350.055 460 328 460C323.574 460 320 456.426 320 452C320 447.574 323.574 444 328 444C358.871 444 384 469.129 384 500C384 504.426 380.426 508 376 508Z" fill="white"/>
<path d="M296 460.016C291.586 460.016 288 456.441 288 452.016C288 447.602 291.574 444.016 295.992 444.016L327.992 444H328C332.414 444 336 447.574 336 452C336 456.414 332.426 460 328.008 460L296 460.016Z" fill="white"/>
<path d="M216 460.016C211.574 460.016 208 456.441 208 452.016V426.406C208 421.984 211.574 418.406 216 418.406C220.426 418.406 224 421.984 224 426.406V452.016C224 456.441 220.426 460.016 216 460.016Z" fill="white"/>
<path d="M296 460C291.574 460 288 456.426 288 452V426.406C288 421.984 291.574 418.406 296 418.406C300.426 418.406 304 421.984 304 426.406V452C304 456.426 300.426 460 296 460Z" fill="white"/>
<path d="M256 444C203.062 444 160 400.938 160 348C160 343.574 163.574 340 168 340C172.426 340 176 343.574 176 348C176 392.113 211.887 428 256 428C300.113 428 336 392.113 336 348C336 343.574 339.574 340 344 340C348.426 340 352 343.574 352 348C352 400.938 308.938 444 256 444Z" fill="white"/>
<path d="M344 308C339.574 308 336 304.426 336 300C336 255.887 300.113 220 256 220C211.887 220 176 255.887 176 300C176 304.426 172.426 308 168 308C163.574 308 160 304.426 160 300C160 247.062 203.062 204 256 204C308.938 204 352 247.062 352 300C352 304.426 348.426 308 344 308Z" fill="white"/>
<path d="M168 356.016C163.574 356.016 160 352.441 160 348.016V300C160 295.574 163.574 292 168 292C172.426 292 176 295.574 176 300V348.016C176 352.441 172.426 356.016 168 356.016Z" fill="white"/>
<path d="M344 356.016C339.574 356.016 336 352.441 336 348.016V300C336 295.574 339.574 292 344 292C348.426 292 352 295.574 352 300V348.016C352 352.441 348.426 356.016 344 356.016Z" fill="white"/>
<path d="M344 324C341.953 324 339.902 323.215 338.344 321.656L314.344 297.656C311.215 294.527 311.215 289.473 314.344 286.344C317.473 283.215 322.527 283.215 325.656 286.344L349.656 310.344C352.785 313.473 352.785 318.527 349.656 321.656C348.098 323.215 346.047 324 344 324Z" fill="white"/>
<path d="M256 316C220.121 316 189.496 299.734 188.207 299.047C184.32 296.953 182.863 292.113 184.953 288.215C187.039 284.32 191.871 282.848 195.785 284.953C196.063 285.105 224.258 300 256 300C287.895 300 315.93 285.113 316.207 284.953C320.078 282.863 324.953 284.32 327.039 288.207C329.129 292.098 327.672 296.953 323.785 299.039C322.504 299.734 291.879 316 256 316V316Z" fill="white"/>
<path d="M168 324C165.953 324 163.902 323.215 162.344 321.656C159.215 318.527 159.215 313.473 162.344 310.344L186.344 286.344C189.473 283.215 194.527 283.215 197.656 286.344C200.785 289.473 200.785 294.527 197.656 297.656L173.656 321.656C172.098 323.215 170.047 324 168 324Z" fill="white"/>
<path d="M232 476C229.953 476 227.902 475.215 226.344 473.656L210.344 457.672C207.215 454.551 207.215 449.488 210.344 446.359C213.473 443.23 218.527 443.23 221.656 446.359L237.656 462.344C240.785 465.465 240.785 470.527 237.656 473.656C236.098 475.215 234.047 476 232 476Z" fill="white"/>
<path d="M232 476C228.648 476 225.527 473.879 224.414 470.527C223.016 466.336 225.281 461.801 229.473 460.406L253.473 452.406C257.687 451 262.191 453.273 263.594 457.465C264.992 461.656 262.727 466.191 258.535 467.586L234.535 475.586C233.687 475.863 232.832 476 232 476V476Z" fill="white"/>
<path d="M280 476C277.953 476 275.902 475.215 274.344 473.656C271.215 470.527 271.215 465.465 274.344 462.344L290.344 446.359C293.473 443.23 298.527 443.23 301.656 446.359C304.785 449.488 304.785 454.551 301.656 457.672L285.656 473.656C284.098 475.215 282.047 476 280 476Z" fill="white"/>
<path d="M280 476C279.168 476 278.312 475.863 277.473 475.586L253.473 467.586C249.289 466.191 247.016 461.664 248.414 457.465C249.816 453.281 254.305 451 258.535 452.406L282.535 460.406C286.719 461.801 288.992 466.328 287.594 470.527C286.473 473.879 283.352 476 280 476V476Z" fill="white"/>
<path d="M256 180C207.48 180 168 140.52 168 92C168 43.4805 207.48 4 256 4C304.52 4 344 43.4805 344 92C344 140.52 304.52 180 256 180ZM256 20C216.297 20 184 52.2969 184 92C184 131.703 216.297 164 256 164C295.703 164 328 131.703 328 92C328 52.2969 295.703 20 256 20Z" fill="white"/>
<path d="M87.9922 276C39.4805 276 0 236.52 0 188C0 139.48 39.4805 100 87.9922 100C111.504 100 133.602 109.16 150.223 125.777C166.84 142.391 176 164.496 175.992 188C176 211.504 166.84 233.609 150.223 250.223C133.602 266.84 111.504 276 87.9922 276ZM87.9922 116C48.2969 116 16 148.297 16 188C16 227.703 48.2969 260 87.9922 260C107.223 260 125.312 252.504 138.91 238.91C152.504 225.312 159.992 207.23 159.992 188C159.992 168.77 152.504 150.688 138.91 137.09C125.312 123.496 107.223 116 87.9922 116Z" fill="white"/>
<path d="M423.992 276.031C375.473 276.031 335.992 236.543 335.992 188.016C336 139.488 375.48 100 423.992 100C472.512 100.031 511.992 139.512 512 188.016C511.992 236.527 472.512 276.016 423.992 276.031ZM423.984 116C384.297 116 352 148.305 351.992 188.016C351.992 227.727 384.289 260.031 423.992 260.031C463.688 260.016 495.992 227.711 496 188.016C495.992 148.336 463.688 116.031 423.984 116Z" fill="white"/>
<path d="M128 236H48C43.5742 236 40 232.426 40 228V172C40 167.574 43.5742 164 48 164H128C132.426 164 136 167.574 136 172V228C136 232.426 132.426 236 128 236ZM56 220H120V180H56V220Z" fill="white"/>
<path d="M128 180H48C43.5742 180 40 176.426 40 172V148C40 143.574 43.5742 140 48 140H128C132.426 140 136 143.574 136 148V172C136 176.426 132.426 180 128 180ZM56 164H120V156H56V164Z" fill="white"/>
<path d="M232 140C218.77 140 208 129.23 208 116C208 102.77 218.77 92 232 92C236.426 92 240 95.5742 240 100C240 104.426 236.426 108 232 108C227.586 108 224 111.586 224 116C224 120.414 227.586 124 232 124C236.426 124 240 127.574 240 132C240 136.426 236.426 140 232 140Z" fill="white"/>
<path d="M288 140H232C227.574 140 224 136.426 224 132C224 127.574 227.574 124 232 124H288C292.426 124 296 127.574 296 132C296 136.426 292.426 140 288 140Z" fill="white"/>
<path d="M288 108H232C227.574 108 224 104.426 224 100C224 95.5742 227.574 92 232 92H288C292.426 92 296 95.5742 296 100C296 104.426 292.426 108 288 108Z" fill="white"/>
<path d="M280 140C275.574 140 272 136.426 272 132V100C272 95.5742 275.574 92 280 92C284.426 92 288 95.5742 288 100V132C288 136.426 284.426 140 280 140Z" fill="white"/>
<path d="M216 76C211.574 76 208 72.4258 208 68C208 54.7695 218.77 44 232 44C236.426 44 240 47.5742 240 52C240 56.4258 236.426 60 232 60C227.586 60 224 63.5859 224 68C224 72.4258 220.426 76 216 76Z" fill="white"/>
<path d="M288 60H232C227.574 60 224 56.4258 224 52C224 47.5742 227.574 44 232 44H288C292.426 44 296 47.5742 296 52C296 56.4258 292.426 60 288 60Z" fill="white"/>
<path d="M288 108C283.574 108 280 104.426 280 100V52C280 47.5742 283.574 44 288 44C292.426 44 296 47.5742 296 52V100C296 104.426 292.426 108 288 108Z" fill="white"/>
<path d="M216 124C211.574 124 208 120.426 208 116V68C208 63.5742 211.574 60 216 60C220.426 60 224 63.5742 224 68V116C224 120.426 220.426 124 216 124Z" fill="white"/>
<path d="M456 228H392C383.176 228 376 220.824 376 212V172C376 163.176 383.176 156 392 156H456C464.824 156 472 163.176 472 172V212C472 220.824 464.824 228 456 228ZM456 212V220V212ZM392 172V212H455.977L456 172H392Z" fill="white"/>
<path d="M408 172C403.574 172 400 168.426 400 164V140C400 135.574 403.574 132 408 132C412.426 132 416 135.574 416 140V164C416 168.426 412.426 172 408 172Z" fill="white"/>
<path d="M440 148H408C403.574 148 400 144.426 400 140C400 135.574 403.574 132 408 132H440C444.426 132 448 135.574 448 140C448 144.426 444.426 148 440 148Z" fill="white"/>
<path d="M440 172C435.574 172 432 168.426 432 164V140C432 135.574 435.574 132 440 132C444.426 132 448 135.574 448 140V164C448 168.426 444.426 172 440 172Z" fill="white"/>
</svg>
