<svg width="511" height="511" viewBox="0 0 511 511" fill="none" xmlns="http://www.w3.org/2000/svg">
<g clip-path="url(#clip0)">
<path d="M462.128 121.785H383.009V99.1104C383.009 94.935 379.625 91.551 375.45 91.551H368.9V80.9662C368.9 45.6758 340.187 16.9663 304.896 16.9663H204.109C168.818 16.9663 140.109 45.6758 140.109 80.9662V91.551H133.555C129.38 91.551 125.996 94.935 125.996 99.1104V121.789H97.146C92.9706 121.789 89.5866 125.173 89.5866 129.344C89.5866 133.52 92.9706 136.904 97.146 136.904H462.128C480.19 136.904 494.884 151.602 494.884 169.664V236.182C494.884 251.804 483.757 265.321 468.51 268.315L286.058 302.12H222.943L40.573 268.326C25.2475 265.321 14.1208 251.804 14.1208 236.182V169.66C14.1208 151.598 28.8148 136.904 46.8771 136.904H62.0584C66.2338 136.904 69.6178 133.52 69.6178 129.344C69.6178 125.169 66.2338 121.785 62.0584 121.785H46.8771C20.4795 121.785 -0.998047 143.262 -0.998047 169.66V236.182C-0.998047 252.034 6.84599 266.397 19.1579 275.176V447.839C19.1579 474.236 40.6354 495.714 67.033 495.714H363.859C368.034 495.714 371.418 492.33 371.418 488.155C371.418 483.979 368.034 480.595 363.859 480.595H67.033C48.9707 480.595 34.2767 465.901 34.2767 447.839V282.354C35.4151 282.666 36.5691 282.946 37.7426 283.176L214.69 315.964V395.348C214.69 398.654 216.838 401.574 219.996 402.56L252.249 412.642C252.982 412.868 253.742 412.985 254.502 412.985C255.263 412.985 256.023 412.868 256.756 412.642L289.009 402.56C292.167 401.574 294.315 398.654 294.315 395.348V315.964L471.34 283.165C472.486 282.939 473.613 282.662 474.728 282.362V447.839C474.728 465.905 460.034 480.595 441.972 480.595H399.22C395.044 480.595 391.66 483.979 391.66 488.155C391.66 492.33 395.044 495.714 399.22 495.714H441.972C468.37 495.714 489.843 474.236 489.843 447.839V275.188C502.147 266.416 510.003 252.042 510.003 236.182V169.66C510.003 143.262 488.525 121.785 462.128 121.785V121.785ZM155.224 80.9662C155.224 54.0111 177.154 32.0852 204.109 32.0852H304.896C331.851 32.0852 353.781 54.0111 353.781 80.9662V91.551H336.647V80.9662C336.647 63.4613 322.401 49.2197 304.896 49.2197H288.14C283.964 49.2197 280.58 52.6037 280.58 56.7752C280.58 60.9506 283.964 64.3346 288.14 64.3346H304.896C314.066 64.3346 321.528 71.7966 321.528 80.9662V91.551H314.974C310.799 91.551 307.415 94.935 307.415 99.1104V121.789H201.586V99.1104C201.586 94.935 198.202 91.551 194.027 91.551H187.477V80.9662C187.477 71.7966 194.939 64.3346 204.109 64.3346H252.99C257.165 64.3346 260.549 60.9506 260.549 56.7752C260.549 52.6037 257.165 49.2197 252.99 49.2197H204.109C186.604 49.2197 172.358 63.4613 172.358 80.9662V91.551H155.224V80.9662ZM141.115 121.785V106.666H186.471V121.785H141.115ZM322.534 121.785V106.666H367.89V121.785H322.534ZM229.809 317.235H279.196V346.463H229.809V317.235ZM279.196 389.788L254.502 397.508L229.809 389.788V361.582H279.196V389.788Z" fill="white"/>
</g>
<defs>
<clipPath id="clip0">
<rect width="511" height="511" fill="white"/>
</clipPath>
</defs>
</svg>
