<svg height="512" width="512" xmlns="http://www.w3.org/2000/svg"><path d="M442 244H331.648c6.673-6.161 12.623-14.269 17.342-24.967 9.662-21.923 7.905-72.162 3.73-92.208-4.563-21.956-20.247-38.936-41.958-45.423a62.304 62.304 0 00-44.763 3.467V70c0-38.598-31.402-70-70-70-5.522 0-10 4.477-10 10s4.478 10 10 10c27.57 0 50 22.43 50 50v14.866a62.178 62.178 0 00-44.755-3.439c-21.797 6.543-37.513 23.645-42.041 45.744-4.774 23.279-5.787 68.173 6.913 95.098 4.09 8.665 9.396 15.874 16.102 21.731H70c-5.522 0-10 4.477-10 10s4.478 10 10 10c11.028 0 20 8.972 20 20v64c0 11.028-8.972 20-20 20-38.997 0-70 33.675-70 72 0 38.222 30.905 72 70 72h372c5.522 0 10-4.477 10-10s-4.478-10-10-10c-11.028 0-20-8.972-20-20v-64c0-11.028 8.972-20 20-20 38.997 0 70-33.675 70-72 0-38.222-30.905-72-70-72zM178.797 131.188c3.026-14.771 13.568-26.213 28.198-30.605 15.146-4.546 30.82-.625 41.934 10.488l.005.005c3.873 3.867 10.215 3.912 14.136-.003 11.113-11.109 26.802-15.038 41.967-10.507 14.554 4.348 25.06 15.687 28.103 30.333 4.065 19.518 4.594 64.083-2.449 80.065-13.873 31.449-41.459 32.321-65.836 33.036H248.16c-35.357-1.15-54.487-10.207-63.956-30.266-10.158-21.536-9.668-61.776-5.407-82.546zM402 408v22H301c-5.522 0-10 4.477-10 10s4.478 10 10 10h101v22c0 7.28 1.955 14.113 5.368 20H70c-27.103 0-50-23.813-50-52s22.897-52 50-52.01h337.381A39.806 39.806 0 00402 408zm40-40H104.632A39.757 39.757 0 00110 348v-22h302c5.522 0 10-4.477 10-10s-4.478-10-10-10H110v-22c0-7.28-1.955-14.113-5.368-20H442c27.103 0 50 23.813 50 52s-22.897 52-50 52z"/><circle cx="256" cy="439.999" r="10"/><path d="M100 450h111c5.522 0 10-4.477 10-10s-4.478-10-10-10H100c-5.522 0-10 4.477-10 10s4.478 10 10 10z"/></svg>