<svg xmlns="http://www.w3.org/2000/svg" viewBox="0 0 274 274"><path d="M204.1 23.4c-20-11.9-43.2-18.7-68.1-18.7-36.8 0-70.1 14.9-94.3 39s-39 57.4-39 94.3c0 36.8 14.9 70.1 39 94.3 24.1 24.1 57.4 39 94.3 39 36.8 0 70.1-14.9 94.3-39 24.1-24.1 39-57.4 39-94.3 0-11.3-1.4-22.3-4.1-32.8-2.7-10.8-6.8-21.1-12-30.7-11.5-21.2-28.5-38.9-49.1-51.1M170 39.1l-.4 1.3-.5-.2-.5-.2-.5-.2-.5-.2-.5-.2-.5-.2-.5-.2-.5-.2-.5-.2-.5-.2-.5-.1.4-1.3.5.1.6.2.6.2.5.2.5.2.5.2.5.2.5.2.5.2.5.2.3.2zm9.2 3.7l-.6 1.2-.2-.1-.5-.2-.5-.2-.5-.2-.5-.2-.5-.2-.5-.2-.5-.2-.5-.2-.5-.2-.5-.2-.3-.1.5-1.3.3.1.5.2.5.2.5.2.5.2.5.2.5.2.5.2.5.2.5.2.5.2.3.2zm8.8 4.5l-.7 1.2-.4-.2-.5-.3-.5-.3-.5-.3-.5-.3-.5-.3-.5-.3-.5-.3-.5-.3-.5-.3-.5-.3h-.1l.6-1.2h.1l.5.3.5.3.5.3.5.3.5.3.5.3.5.3.5.3.5.3.5.3.5.2zm8.3 5.3l-.8 1.1-.2-.1-.5-.3-.5-.3-.5-.3-.5-.3-.5-.3-.5-.3-.5-.3-.5-.3-.5-.3-.5-.3-.3-.2.7-1.1.3.2.5.3.5.3.5.3.5.3.5.3.5.3.5.3.5.3.5.3.5.3.3.1zm7.8 6.1l-.9 1h-.1l-.4-.4-.4-.4-.4-.4-.4-.4-.4-.3-.4-.3-.4-.3-.4-.3-.4-.3-.4-.3-.4-.3.8-1.1.4.3.4.3.4.3.4.3.4.3.4.4.4.4.4.4.4.4.4.4.6.3zm7.2 6.8l-1 .9-.3-.3-.4-.4-.4-.4-.4-.4-.4-.4-.4-.4-.4-.4-.4-.4-.4-.4-.4-.4-.4-.4-.1-.1.9-1 .1.1.4.4.4.4.4.4.4.4.4.4.4.4.4.4.4.4.4.4.4.4.4.4zm6.5 7.4l-1.1.8-.2-.2-.3-.4-.3-.4-.4-.4-.4-.4-.4-.4-.4-.4-.4-.4-.4-.4-.4-.4-.4-.4-.2-.2 1-.9.2.2.4.4.4.4.4.4.4.4.4.4.4.4.4.4.4.4.4.4.4.4.1.3zm5.8 8l-1.1.7-.1-.1-.3-.5-.3-.5-.3-.5-.3-.5-.3-.5-.3-.5-.3-.5-.3-.5-.3-.4-.3-.4-.3-.4 1.1-.8.3.4.3.5.3.5.3.5.3.5.3.5.3.5.3.5.3.5.3.5.4.5zm5 8.5l-1.2.6-.2-.4-.3-.5-.3-.5-.3-.5-.3-.5-.3-.5-.3-.5-.3-.5-.3-.5-.3-.5-.3-.5-.1-.1 1.1-.7.1.1.3.5.3.5.3.5.3.5.3.5.3.5.3.5.3.5.3.5.3.5.3.5zm4.2 9l-1.2.5-.1-.1-.2-.5-.2-.5-.2-.5-.2-.5-.2-.5-.2-.5-.2-.5-.2-.5-.2-.5-.2-.5-.2-.3 1.2-.6.2.3.2.5.2.5.2.5.2.5.2.5.2.5.2.5.2.5.2.5.2.5.1.2zm3.3 9.3l-1.3.4-.1-.3-.2-.5-.2-.5-.2-.5-.2-.5-.2-.5-.2-.5-.2-.5-.2-.5-.2-.5-.2-.5v-.1l1.3-.5v.1l.2.5.2.5.2.5.2.5.2.5.2.5.2.5.2.5.2.5.2.5.1.4zm2.4 9.6l-1.3.3-.1-.4-.1-.6-.1-.6-.1-.6-.1-.6-.1-.6-.1-.6-.1-.6-.1-.6-.1-.6-.1-.5 1.3-.3.1.5.1.6.1.6.1.6.1.6.1.6.1.6.1.6.1.6.1.6.1.4zm1.5 9.8l-1.3.1v-.4l-.1-.6-.1-.6-.1-.6-.1-.6-.1-.6-.1-.6-.1-.6-.1-.6-.1-.6-.1-.5 1.3-.2.1.5.1.6.1.6.1.6.1.6.1.6.1.6.1.6.1.6.1.6v.5zm.5 9.8h-1.3v-6.2l1.3-.1v6.3zm-.3 9.9l-1.3-.1v-.1l.1-.7v-5.6h1.3v5.6l-.1.7v.2zm-1.3 9.8l-1.3-.2v-.1l.1-.6.1-.6.1-.6.1-.6.1-.6.1-.6.1-.6.1-.6.1-.6v-.1l1.3.2v.1l-.1.7-.1.7-.1.7-.1.7-.1.6-.1.6-.1.6-.1.6-.1.6v-.3zm-2.2 9.7l-1.3-.4.1-.3.2-.6.2-.6.2-.6.2-.6.2-.6.1-.6.1-.6.1-.6.1-.6v-.1l1.3.3v.1l-.2.5-.1.6-.1.6-.2.6-.2.6-.2.6-.2.6-.2.6-.2.6.1.5zm-3.1 9.3l-1.3-.5.2-.5.2-.6.2-.6.2-.6.2-.6.2-.6.2-.6.2-.6.2-.6.2-.5 1.3.4-.2.5-.2.6-.2.6-.2.6-.2.6-.2.6-.2.6-.2.6-.2.6-.2.6zm-4 9.1l-1.2-.6.1-.2.3-.6.3-.6.3-.6.3-.6.3-.6.3-.6.3-.6.3-.6.2-.6.1-.2 1.2.5-.1.2-.3.6-.3.6-.3.6-.3.6-.3.6-.3.6-.3.6-.3.6-.3.6v.3zm-4.9 8.6l-1.1-.7.3-.5.3-.5.3-.5.3-.5.3-.5.3-.5.3-.5.3-.5.3-.5.2-.4 1.2.6-.2.4-.3.6-.3.6-.3.5-.3.5-.3.5-.3.5-.3.5-.3.5-.4.4zm-5.6 8.1l-1.1-.8.3-.4.4-.5.4-.5.4-.5.4-.5.4-.5.4-.5.4-.5.4-.5.3-.5 1.1.7-.4.5-.4.5-.4.5-.4.5-.4.5-.4.5-.4.5-.4.5-.4.5-.2.5zm-6.4 7.6l-1-.9.2-.2.4-.5.4-.5.4-.5.4-.5.4-.5.4-.5.4-.5.4-.5.4-.5.1-.2 1 .9-.1.2-.4.5-.4.5-.4.5-.4.5-.4.5-.4.5-.4.5-.4.5-.4.5-.2.2zm-7 6.9l-.9-1 .1-.1.5-.4.5-.4.5-.4.5-.4.4-.4.4-.4.4-.4.4-.4.4-.4.3-.3 1 .9-.3.3-.4.4-.4.4-.4.4-.5.4-.5.4-.5.4-.5.4-.5.4-.5.4v.2zm-7.7 6.3l-.8-1.1.5-.4.5-.4.5-.4.5-.4.5-.4.5-.4.5-.4.5-.4.5-.4.4-.3.9 1-.4.3-.5.4-.5.4-.5.4-.5.4-.5.4-.5.4-.5.4-.5.4-.6.5zm-26 14l-.5-1.3.5-.2.6-.2.6-.2.6-.2.6-.2.6-.2.6-.2.6-.2.6-.2.5-.2.5 1.2-.5.2-.6.2-.6.2-.6.2-.6.2-.6.2-.6.2-.6.2-.6.2-.5.3zm-9.4 2.9l-.3-1.3h.2l.6-.2.6-.2.6-.2.6-.2.6-.2.6-.2.6-.2.6-.2.6-.2.2-.1.4 1.3-.2.1-.6.2-.6.2-.6.2-.6.2-.6.2-.6.2-.6.2-.6.2-.6.2h-.3zm-9.7 2.1l-.2-1.3h.3l.6-.1.6-.1.6-.1.6-.1.6-.1.6-.1.6-.1.6-.1.6-.1.3 1.3-.6.1-.6.1-.6.1-.6.1-.6.1-.6.1-.6.1-.6.1-.6.1h-.4zm-9.8 1.1l-.1-1.3h1l.7-.1.7-.1.7-.1.7-.1.6-.1.6-.1.6-.1.6-.1.2 1.3-.6.1-.7.1-.7.1-.7.1-.7.1-.7.1-.7.1-.7.1h-.8zm-9.9.2v-1.3h6.4l.1 1.3h-6.5zm-9.8-.7l.2-1.3.6.1.6.1.7.1.7.1.7.1.7.1.7.1h1.6l-.1 1.3h-1.6l-.7-.1-.7-.1-.7-.1-.7-.1-.7-.1-.7-.1-.6-.1zm-9.8-1.7l.3-1.3.6.1.6.1.6.1.6.1.6.1.6.1.6.1.6.1.6.1h.2l-.2 1.3h-.3l-.6-.1-.6-.1-.6-.1-.6-.1-.6-.1-.6-.1-.6-.1-.6-.1-.6-.1zm-9.5-2.5l.4-1.3.2.1.6.2.6.2.6.2.6.2.6.2.6.2.6.2.6.2.6.2h.1l-.3 1.3h-.1l-.6-.2-.6-.2-.6-.2-.6-.2-.6-.2-.6-.2-.6-.2-.6-.2-.6-.2-.3-.1zm-9.3-3.5l.5-1.2.5.2.6.2.6.2.6.2.6.2.6.2.6.2.6.2.6.2.5.2-.5 1.3-.5-.2-.6-.2-.6-.2-.6-.2-.6-.2-.6-.2-.6-.2-.6-.2-.6-.2-.5-.3zm-25.2-15.4l.9-1 .4.3.5.4.5.4.5.4.5.4.5.4.5.4.5.4.5.4.5.4-.8 1.1-.5-.4-.5-.4-.5-.4-.5-.4-.5-.4-.5-.4-.5-.4-.5-.4-.5-.4-.5-.4zm-7.4-6.6l.9-1 .3.3.4.4.4.4.4.4.4.4.5.4.5.4.5.4.5.4.5.4.1.1-.9 1-.1-.1-.5-.4-.5-.4-.5-.4-.5-.4-.5-.4-.5-.4-.5-.4-.5-.4-.4-.4v-.3zm-6.6-7.3l1-.9.1.2.4.5.4.5.4.5.4.5.4.5.4.5.4.5.4.5.4.5.2.2-1 .9-.2-.2-.4-.5-.4-.5-.4-.5-.4-.5-.4-.5-.4-.5-.4-.5-.4-.5-.4-.5-.1-.2zm-6-7.9l1.1-.8v.1l.4.5.4.5.4.5.4.5.4.5.4.5.4.5.4.5.4.5.3.4-1.1.8-.3-.4-.4-.5-.4-.5-.4-.5-.4-.5-.4-.5-.4-.5-.4-.5-.4-.5-.4-.6zm-5.2-8.4l1.2-.7.2.4.3.5.3.5.3.5.3.5.3.5.3.5.3.5.3.5.3.5-1.1.7-.3-.5-.3-.5-.3-.5-.3-.5-.3-.5-.3-.5-.3-.5-.3-.5-.3-.6-.3-.3zm-4.3-8.9l1.2-.5.1.2.3.6.3.6.3.6.3.6.3.6.3.6.3.6.3.6.3.6.1.2-1.2.6-.1-.2-.3-.6-.3-.6-.3-.6-.3-.6-.3-.6-.3-.6-.3-.6-.3-.6-.3-.6-.1-.3zm-3.5-9.2l1.3-.4.2.5.2.6.2.6.2.6.2.6.2.6.2.6.2.6.2.6.2.5-1.3.5-.2-.5-.2-.6-.2-.6-.2-.6-.2-.6-.2-.6-.2-.6-.2-.6-.2-.6-.2-.6zm-2.7-9.5l1.3-.3v.1l.1.6.1.6.1.6.2.6.2.6.2.6.2.6.2.6.2.6.1.2-1.3.4-.1-.2-.2-.6-.2-.6-.2-.6-.2-.6-.2-.6-.2-.6-.2-.6-.1-.6.1-.7-.1-.1zm-1.6-9.8l1.3-.2v.2l.1.6.1.6.1.6.1.6.1.6.1.6.1.6.1.6.1.6v.1l-1.3.3v-.1l-.1-.6-.1-.6-.1-.6-.1-.6-.1-.6-.1-.6-.1-.7-.1-.7-.1-.7zm-.8-9.8h1.3v5l.1.7.1.7v.1l-1.3.1v-.1l-.1-.7-.1-.7v-5.1zm.1-9.9l1.3.1v6.4h-1.3v-6.5zm1.1-9.8l1.3.2-.1.5-.1.6-.1.6-.1.6-.1.6-.1.6-.1.6-.1.6-.1.6v.4l-1.3-.1v-.4l.1-.7.1-.7.1-.7.1-.7.1-.7.1-.7.1-.7.1-.6.1.1zm2-9.7l1.3.3-.2.6-.2.6-.1.6-.1.6-.1.6-.1.6-.1.6-.1.6-.1.6-.1.3-1.3-.3.1-.3.1-.6.1-.6.1-.6.1-.5.1-.6.1-.6.2-.6.2-.6.1-.7zm2.9-9.5l1.3.5-.1.2-.2.6-.2.6-.2.6-.2.6-.2.6-.2.6-.2.6-.2.6-.2.6v.2l-1.3-.4.1-.2.2-.6.2-.6.2-.6.2-.6.2-.6.2-.6.2-.6.2-.6.2-.6v-.3zm3.8-9.1l1.2.6-.2.5-.2.6-.3.6-.3.6-.3.6-.3.6-.2.6-.2.6-.2.4-.2.5L39 99l.2-.5.2-.6.2-.6.2-.6.3-.6.3-.6.3-.6.3-.6.3-.6.1-.4zm4.7-8.7l1.2.7-.2.3-.3.5-.3.5-.3.5-.3.5-.3.5-.3.5-.3.5-.3.6-.3.6-.1.1-1.2-.4.1-.2.3-.6.3-.6.3-.6.3-.6.3-.6.3-.6.3-.5.3-.5.3-.5.2-.1zm5.4-8.3l1.1.8-.1.1-.4.5-.4.5-.4.5-.4.5-.4.5-.3.5-.3.5-.3.5-.3.5-.2.3-1.1-.6.2-.3.3-.5.3-.5.4-.5.4-.5.4-.5.4-.5.4-.5.4-.5.4-.5-.1-.3zm6.2-7.7l1 .9-.3.5-.4.5-.4.5-.4.5-.4.5-.4.5-.4.3-.4.5-.4.5-.3.4-1.1-.8.3-.4.4-.5.4-.5.4-.5.4-.5.4-.5.4-.5.4-.5.4-.5.4-.4zm6.9-7l.9 1-.3.3-.4.4-.4.4-.4.4-.4.4-.6.5-.4.4-.4.4-.4.4-.4.4-.1.1-1-.9.1-.1.4-.5.4-.4.4-.4.4-.4.4-.4.4-.4.5-.4.5-.4.5-.4.3-.4zm7.6-6.4l.8 1.1-.2.2-.5.4-.5.4-.5.4-.5.3-.5.4-.5.4-.5.4-.5.4-.3.4-.2.1-.9-1 .2-.2.5-.4.5-.4.5-.4.5-.4.5-.4.5-.4.5-.4.5-.4.5-.4.1-.1zm8.1-5.7l.7 1.1-.1.1-.5.3-.5.3-.5.3-.5.3-.5.3-.5.3-.5.4-.5.4-.5.4-.3.2-.9-.9.3-.2.5-.4.5-.4.5-.4.5-.4.5-.4.5-.3.5-.3.5-.3.5-.3.3-.1zm8.6-4.9l.6 1.2-.5.3-.6.3-.6.3-.6.3-.5.3-.5.3-.5.3-.5.3-.5.3-.5.3-.7-1.2.5-.3.5-.3.6-.3.6-.3.6-.3.6-.3.6-.3.6-.3.6-.3.2-.3zm9-4l.5 1.3-.2.1-.6.2-.6.2-.6.2-.6.2-.6.2-.6.2-.6.3-.6.3-.4.4-.2.1-.6-1.3.2-.1.6-.3.6-.3.6-.3.6-.3.6-.2.6-.2.6-.2.6-.2.6-.2.1-.1zm9.4-3.2l.4 1.3-.5.1-.6.2-.6.2-.6.2-.6.2-.6.2-.6.2-.6.2-.6.2-.5.2-.4-1.3.5-.2.6-.2.6-.2.6-.2.6-.2.6-.2.6-.2.6-.2.6-.2.5-.1zm9.6-2.2l.2 1.3-.6.1-.6.1-.6.1-.6.1-.6.1-.6.1-.6.1-.6.1-.6.1-.3.1-.3-1.3.3-.1.6-.2.6-.1.4.2.6-.1.6-.1.6-.1.6-.1.6-.1.9-.3zm9.8-1.4l.1 1.3h-.1l-.7.1-.7.1-.7.1-.6.1-.6.1-.6.1-.6.1-.6.1-.6.1h-.2l-.2-1.3h.2l.7-.1.7-.1.7-.1.7-.1.7-.1.7-.1.7-.1.7-.1.3-.1zm9.9-.4v1.3h-6.4l-.1-1.3h6.5zm9.8.6l-.1 1.3h-8.5l.1-1.3h8.5zm50.7 204c0 1.3.2 2.9.5 4.8.2 1.3.6 2.3 1 3.1.5.8 1 1.3 1.7 1.6.7.2 1.3.2 1.9-.2.6-.3 1-.8 1.3-1.3.4-.8.7-1.7.8-2.8.1-1.1.1-2.3-.2-3.5-.3-1.3-.7-2.4-1.2-3.3-.4-.6-.9-1.2-1.5-1.6-.3-.2-.5-.3-.5-.4l-.2-.2c-.1-.2-.1-.3-.1-.5s.1-.3.3-.4c.3-.2.6-.1.9.1.4.3.9.8 1.4 1.6 1 1.7 1.6 3.7 1.8 5.8.2 2.1.1 3.9-.5 5.2-.6 1.3-1.4 2.3-2.5 2.9-.9.5-1.7.6-2.5.3s-1.5-.9-2-1.8c-.4-.7-.7-1.5-.9-2.4-.3-1.1-.5-2.9-.7-5.4-.7.4-1.3.8-1.7 1.4-.4.5-.7 1-.8 1.4-.1.4 0 .8.1 1.1.1.1.2.2.5.4s.4.3.5.4c.1.2.1.3.1.5s-.1.3-.3.4c-.2.1-.4.1-.6 0-.2-.1-.4-.3-.6-.5-.2-.4-.4-.9-.4-1.5s.1-1.1.4-1.6c.3-.5.6-1 1.2-1.4.3-.2.8-.6 1.7-1.2.6-.7 1-.9 1.1-1zm-5.2 3.4v.2c-.4.3-.7.7-1 1-.2.3-.5.8-.8 1.6-.8 1.9-1.6 3.4-2.4 4.5.5.2.9.5 1.4.9.4.4 1.3 1.2 2.6 2.7 1.2 1.3 2.1 2 2.8 2.3.7.3 1.3.3 1.9.1.5-.2.7-.6.6-1.2v-.7l.3-.3c.1-.1.3-.1.4 0 .1.1.3.1.3.3.2.4.1.8-.1 1.3-.3.5-.7.9-1.4 1.2-.6.3-1.1.4-1.8.3-.6 0-1.3-.3-2-.7-.7-.4-1.6-1.2-2.6-2.2-1-1-1.7-1.7-2.1-2-.4-.3-.9-.7-1.6-1l.7 4c.2.8.3 1.4.4 1.7.5 0 .9-.1 1.2-.2.1 0 .2-.1.3-.2l.1.5c-.1.1-.2.1-.2.1-.2.1-.5.2-.9.3-.4.1-.7.3-1 .4-.5.2-1.2.7-2.2 1.4l-.1-.4c.5-.4.8-.7 1-1 .1-.3.2-.7.1-1.2-.1-1.1-.4-2.7-.8-4.9l-.8-4.6c-1.1.6-1.9 1.3-2.4 2.1-.4.6-.4 1.1-.2 1.5.1.2.2.3.5.5.2.1.4.3.4.4.1.2.1.3 0 .5s-.2.3-.3.4c-.2.1-.4.1-.6 0-.2-.1-.4-.3-.6-.6-.4-.8-.3-1.7.2-2.8.5-1 1.8-2 3.8-3l.6-.3c.1 1 .1 1.7.2 2.1l.5 3c.4-.4.7-.9 1.1-1.6.4-.7.8-1.4 1.1-2.1.6-1.3.9-2 1-2.3v-.2s-.1-.1-.2 0c-.1 0-.5.2-1.1.4l-.1-.5c.8-.3 1.4-.5 1.9-.8.8-.3 1.3-.6 1.9-.9zm-16.1 7.6c-.7.2-1.3.7-1.8 1.3-.5.6-.7 1.5-.8 2.5-.1 1 .1 2.1.5 3.3.5 1.4 1.1 2.3 2 2.8.8.5 1.7.6 2.6.3.7-.2 1.2-.7 1.7-1.3.4-.6.7-1.5.8-2.6.1-1.1-.1-2.2-.5-3.4-.4-1.3-1.1-2.1-1.9-2.6-.9-.5-1.8-.6-2.6-.3zm.4-.9c.8-.3 1.5-.3 2.3-.2.7.1 1.4.5 2 1 .6.5 1 1.3 1.3 2.1.4 1.2.5 2.4.3 3.8s-.7 2.5-1.4 3.4c-.7.9-1.6 1.5-2.7 1.9-1.3.4-2.4.4-3.5-.1-1-.5-1.8-1.4-2.2-2.7-.4-1.2-.5-2.5-.3-3.9s.7-2.5 1.4-3.4c.7-.9 1.6-1.5 2.8-1.9zm-5 13.2v.6c-.4.2-.8.3-1 .4-.3.1-.7.1-1.3.2-.5.1-.9.2-1.3.3-.6.2-1.3.4-1.9.7v-.6c.6-.2 1.1-.5 1.3-.7.2-.2.3-.5.4-.9.1-.4.1-1.7.1-3.9v-5.6c-.4.1-.7.1-.8.2-1.2.3-2.1.7-2.7 1.1-.6.4-1 .9-1.3 1.5-.2.6-.3 1.1-.1 1.7 0 .2.1.4.2.5.1.1.3.3.6.4.3.2.4.4.5.6 0 .2 0 .3-.1.5s-.2.2-.4.3c-.3.1-.5 0-.7-.2-.3-.3-.6-.8-.7-1.3-.2-.8-.1-1.6.2-2.4.3-.8.8-1.6 1.5-2.2.7-.6 1.7-1.1 2.9-1.3.6-.1 1.5-.3 2.8-.4.9-.1 1.6-.2 2-.3.4-.1.7-.2.8-.4.1-.2.2-.4.1-.6 0 0 0-.1-.1-.3 0-.1-.1-.2-.1-.2 0-.2 0-.3.1-.5.1-.1.2-.2.4-.3.2 0 .4 0 .5.1.2.1.3.3.3.5.1.5 0 1-.5 1.4-.4.5-1.2.9-2.4 1.2-.4.1-.9.2-1.4.3v10.5c.4-.1.8-.1 1.1-.2.1-.3.6-.5 1-.7zm-9.7-5.1l-.5.1c0-.7-.1-1.2-.2-1.5-.1-.5-.3-.9-.6-1.1-.3-.2-.7-.3-1.2-.2-.7.1-1.3.5-1.7 1.1-.4.6-.6 1.2-.5 1.9.1.3.2.6.4.9.2.3.6.6 1.2 1 1.1.7 1.8 1.3 2.1 1.8.4.5.6.9.7 1.4.1.7 0 1.4-.3 2.1-.3.7-.8 1.4-1.6 1.9-.8.6-1.6.9-2.5 1.1-.9.2-1.7.1-2.4-.3s-1.1-.8-1.2-1.3c0-.3 0-.5.1-.7.1-.2.3-.3.5-.4.2 0 .4 0 .6.2.1.1.2.3.4.6.2.4.4.7.5.9.2.2.4.3.7.4.3.1.6.1.9 0 .9-.2 1.7-.6 2.2-1.3.6-.7.8-1.5.7-2.2 0-.3-.1-.5-.3-.7-.1-.2-.3-.5-.6-.8-.2-.2-.6-.5-1.3-1-.6-.4-1-.7-1.2-.9-.3-.3-.4-.5-.6-.8-.1-.3-.2-.6-.3-.8-.1-.6 0-1.2.3-1.9s.7-1.2 1.3-1.7c.6-.5 1.2-.8 2-.9.4-.1.9-.1 1.5-.1h.9c-.1.4-.1.8-.1 1.2 0 .2 0 .9.1 2zm-16.1 10.5l-1.7-10.4c0 1.8-.2 3.4-.5 5s-.7 2.8-1.2 3.7c-.5.9-1 1.5-1.6 1.9-.6.4-1.2.6-1.7.7-.4 0-.6 0-.8-.1-.2-.1-.3-.3-.3-.5s0-.3.2-.5c.1-.1.3-.2.5-.2h.7c.3 0 .5.1.7.1.3 0 .6-.2.9-.4.5-.4.9-1 1.3-1.9.4-.9.7-2.2 1-3.8.3-1.6.4-3.1.3-4.6-1.5.1-2.6.6-3.5 1.4-.7.6-1 1.3-.9 2 0 .3.2.7.6 1.1.2.2.3.4.3.6 0 .2 0 .3-.1.4-.1.1-.2.2-.4.2-.3 0-.5-.1-.7-.4-.3-.4-.5-.8-.5-1.3-.1-.7.1-1.5.6-2.2.4-.7 1.1-1.3 1.9-1.7.8-.4 1.9-.7 3-.8.6-.1 1.1-.2 1.5-.3 0 .6 0 .9.1.9 0 .1 0 .2.1.4l1.2 7.3c1.3-2.9 2.6-5.2 4-7.1.9-1.3 1.8-2.3 2.5-2.8-.3 1.3-.7 2.9-1 5l-.8 4.8c0 .3-.1.7-.2 1.2l-.1 1.1c.5.1 1 .1 1.4.1.3 0 .7-.1 1.1-.2l-.1.6c-.3.1-.6.1-.8.2h-2.3c-.3 0-.7.1-1.1.3.3-1 .5-2.2.8-3.9l.5-3c.2-1.3.4-2.2.6-2.7-.5.6-1.2 1.8-2.1 3.5-.8 1.3-1.6 3-2.5 5.1l-.9 1.2zm-9.7-.6l-.2.6c-.4.1-.8.1-1 .1-.3 0-.7-.1-1.2-.1-.5-.1-.8-.1-1.1-.1-.4 0-1 0-1.8.1l.2-.5c.6-.1 1-.3 1.2-.5.2-.2.4-.9.9-2.3.4-1.4.6-2.3.6-2.7 0-.9-.1-1.8-.4-2.7-.3-.9-.7-1.7-1.2-2.3-1 .3-1.7.6-2.1.9-.4.3-.8.7-1 1.1-.3.4-.4.8-.4 1.2 0 .3.1.6.4.9.2.3.4.5.4.7 0 .2-.1.3-.2.4-.1.1-.2.2-.4.2-.3 0-.5-.1-.7-.4-.2-.4-.3-.8-.3-1.3 0-.7.3-1.4.7-2 .4-.6 1-1.1 1.7-1.5.4-.2 1.1-.5 2.1-.7.4-.1.7-.2 1-.3.5.7.9 1.5 1.2 2.4.3.9.5 2 .6 3.3 1.3-2.5 2.5-4.2 3.6-5.2s2-1.5 2.7-1.5c.2 0 .4.1.5.2.1.1.2.3.2.5s-.1.3-.3.4c-.2.1-.5.2-.9.2-.5 0-.8.1-1.1.2-.5.3-1.1.8-1.8 1.6s-1.4 1.8-2.1 2.9c-.7 1.2-1.2 2.4-1.6 3.7-.4 1.3-.6 2.1-.6 2.5.3.1.6.1.9.1.4.1.9 0 1.5-.1zm-15.8-5.6c-.6 1.6-1.1 2.7-1.5 3.3-.2.4-.5.8-.8 1 1-.1 1.8-.1 2.2 0 .5.1 1.3.3 2.4.7.6.2 1 .4 1.3.4.2 0 .5 0 .7-.1.2-.1.3-.3.3-.5 0-.1 0-.3-.1-.5s-.1-.4-.1-.5c0-.2.1-.3.2-.4.1-.1.3-.1.4-.1.2 0 .4.1.5.3.1.2.1.4.1.7-.1.5-.4 1-.9 1.3-.5.3-1.2.5-2 .3-.4-.1-.9-.2-1.5-.3-2.1-.5-3.4-.8-4.1-.9-.9-.1-1.7-.2-2.5-.2l.2-.5c.9 0 1.4-.2 1.7-.4.4-.3.9-1.4 1.6-3.1l-2.5.9.3-.8 2.5-1c.6-1.5 1.1-2.5 1.4-3 .5-.7 1-1.3 1.6-1.8.6-.4 1.1-.7 1.7-.9.6-.2 1.1-.2 1.5-.1.5.1.9.3 1.2.6.3.3.5.6.4.9 0 .2-.1.3-.2.4-.1.1-.3.1-.4.1-.2 0-.4-.2-.7-.5-.4-.5-.8-.8-1.1-.8-.4-.1-.9.2-1.4.7-.8.8-1.5 2.1-2.2 3.8l3.6-1.4-.3.8-3.5 1.6zm-8.2-.3c.9-2.5 1.6-4.3 2.2-5.4-1 .9-1.7 1.4-2 1.7l-3.3 3.1c.5.1 1.3.3 2.2.5.4 0 .6 0 .9.1zm2.2 4.4l-.2.5c-.2 0-.4-.1-.6-.1-.2-.1-.5-.1-.9-.3-.6-.2-.9-.3-1.1-.4-.3-.1-.7-.1-1.3-.2.3-.4.6-.9.9-1.4.2-.4.4-1 .8-1.9-.7-.2-1.9-.4-3.5-.7-2.2 2.1-3.7 3.4-4.6 3.8-.9.5-1.7.6-2.4.5-.4-.1-.6-.2-.7-.4-.1-.2-.2-.4-.1-.6 0-.2.1-.3.2-.4.1-.1.3-.1.4-.1.1 0 .2.1.4.1.4.2.6.3.7.3.4.1.9 0 1.6-.4 1-.6 2.6-2 4.8-4.1 2.5-2.4 4.5-4.1 5.9-5.2-1.6-.2-2.6-.3-3-.3-.6 0-1 .2-1.4.5-.3.3-.6.6-.6.9v1c0 .1-.1.2-.2.3-.1.1-.3.1-.4.1-.2-.1-.4-.2-.5-.4-.1-.2-.1-.4 0-.8.1-.5.3-.9.7-1.2.3-.4.8-.7 1.3-.8.5-.2 1.1-.3 1.8-.3.4 0 1 .1 1.9.2.8.1 1.2.2 1.4.1.3 0 .6-.1 1-.3-.4.7-.7 1.4-.9 1.9l-2 5.3-1.3 3.8c.4.2.8.4 1.2.5.1.4.4.5.7.5zm-7.3-13.1l-.3.5c-.7-.2-1.2-.2-1.5-.1-.2 0-.3.1-.5.3-.2.2-.9 1.3-2.1 3.3-.4.7-1.4 2.5-3.1 5.4.4.3.9.5 1.6.7l-.3.4c-.2-.1-.6-.2-1.2-.4-.4-.2-.9-.3-1.5-.5-.8-.2-1.5-.4-2.2-.4l.3-.5c.7.1 1.3.1 1.7 0 .1 0 .2-.1.2-.1.1-.1.3-.3.5-.6s1-1.6 2.3-3.9c.4-.7 1.2-2.1 2.5-4.3-.4-.1-1-.2-1.6-.3l.3-.5c.3 0 .6 0 .8.1.3 0 .9.2 1.9.5 1 .2 1.7.3 2.2.4zM92.4 253l-1.2 1.6c-.6.8-1.1 1.5-1.6 1.9-.2.3-.5.4-.8.6.5.4.9.6 1.3.8 1.1.4 2 .4 2.8 0 .8-.4 1.4-1 1.7-1.9.2-.4.2-.8.1-1.1-.1-.4-.3-.7-.6-.9-.2-.3-.8-.6-1.7-1zm0-3.8l.3-.4c.7.2 1.5.4 2.4.5-.5.5-.8 1-1.1 1.3l-1.3 1.8c1.1.4 2 .5 2.7.2.8-.3 1.3-.8 1.6-1.6.2-.5.2-1-.1-1.5-.3-.5-.8-.9-1.6-1.2-1.1-.4-2.2-.6-3.4-.5-1.2.1-2.2.5-3.1 1.1-.9.6-1.5 1.3-1.8 2.2-.1.2-.1.5-.2.7 0 .2 0 .4.1.6 0 .1.1.3.3.6.2.3.3.5.3.6v.4c-.1.1-.1.2-.3.3-.1.1-.3.1-.4 0-.3-.1-.6-.5-.7-1.2-.2-.6-.1-1.3.2-2.1.4-1 1.1-1.9 2.1-2.6 1-.7 2.2-1.1 3.5-1.2 1.3-.1 2.7.1 4 .6 1.1.4 1.8 1 2.2 1.6.4.7.5 1.3.2 1.9-.2.6-.6 1-1.2 1.4-.6.3-1.3.5-2.2.4.5.3.9.6 1.1.9.2.3.4.7.4 1.1 0 .4 0 .8-.2 1.2-.3.7-.7 1.2-1.3 1.6-.6.4-1.4.7-2.3.8-.9.1-1.8 0-2.6-.4-.2-.1-.7-.3-1.5-.7-.4-.2-.7-.3-1.1-.5-.6-.2-1.2-.4-1.7-.5l.3-.4c.6.2 1.2.2 1.5.1.4-.2.9-.7 1.5-1.5l3.5-4.7c.1-.2.2-.4.3-.5v-.3c0-.1-.1-.2-.2-.2 0 .2-.1.2-.2.1zm-18.7 2.5l3.3-5.3c.7-1.2 1.5-2.2 2.3-3.2-.6.2-1.3.6-2.3 1.1-2.9 1.5-5.7 2.8-8.7 3.9.3-.8.7-1.8 1.2-2.8.5-1 1-1.9 1.4-2.7.6-1.1 1.2-1.9 1.8-2.4.6-.5 1.3-1 2.3-1.4-1.1-.5-2.2-.6-3.1-.4-.9.2-1.6.6-1.9 1.2-.1.2-.2.5-.2.8 0 .3 0 .6-.1.7-.1.1-.2.2-.4.3-.1 0-.3 0-.4-.1-.2-.1-.3-.3-.3-.5 0-.3.1-.6.2-1 .3-.5.7-.9 1.3-1.3.6-.4 1.3-.6 1.9-.6.7-.1 1.4 0 2.1.2.4.1 1 .4 1.9.7.3.1.6.2.9.4-2.2 1-3.8 2.4-4.8 4.1-.3.5-.9 1.7-1.8 3.3.6-.2 1.1-.4 1.6-.6.3-.2 1.2-.6 2.7-1.3 2.4-1.2 4.1-2 5.2-2.4.8-.3 1.5-.5 2.4-.7-1.8 1.8-3.8 4.7-6.1 8.7l3.6-1.4c1-.4 2-.9 3.2-1.5 1.1-.6 1.9-1.1 2.5-1.6.3-.3.6-.6.8-.9.2-.3.3-.7.4-1.1 0-.3.1-.5.1-.6.1-.2.2-.3.4-.3s.3 0 .5.1.3.3.3.6c0 .4-.1.8-.3 1.2-.3.6-1 1.2-1.9 1.9-.9.7-2.6 1.6-5 2.6-2.9 1.1-5.2 1.9-7 2.3zm5.7-213.6l-3.2-5.4c-.7-1.2-1.3-2.4-1.7-3.5-.1.6-.1 1.4-.1 2.5 0 3.2-.2 6.4-.6 9.5-.6-.7-1.2-1.5-1.9-2.4-.7-.9-1.3-1.8-1.7-2.5-.7-1-1.1-1.9-1.3-2.7-.2-.7-.2-1.7-.2-2.7-1 .8-1.6 1.6-1.8 2.5-.3.9-.2 1.7.1 2.2.1.2.3.4.6.5.3.2.5.3.5.4.1.1.1.3.1.4 0 .1-.1.3-.2.3-.2.1-.4.1-.6 0-.3-.1-.5-.3-.7-.7-.3-.5-.5-1.1-.5-1.8s.1-1.4.3-2c.3-.6.7-1.2 1.2-1.8.3-.3.8-.7 1.5-1.3.2-.2.5-.4.7-.6-.1 2.4.3 4.5 1.4 6.2.3.5 1 1.6 2.1 3.1.1-.6.1-1.2.2-1.7 0-.4.1-1.4.1-3 .1-2.6.2-4.5.3-5.7.1-.8.3-1.6.5-2.4.8 2.4 2.4 5.6 4.8 9.4l.5-3.9c.1-1 .2-2.2.2-3.5 0-1.3-.1-2.3-.3-2.9-.1-.4-.3-.8-.5-1.1-.2-.3-.5-.6-.8-.9-.2-.2-.4-.3-.4-.4-.1-.1-.1-.3-.1-.5s.1-.3.3-.4c.2-.1.4-.1.7 0 .3.1.6.4.9.8.3.6.6 1.4.8 2.6.2 1.2.2 3-.1 5.6-.3 3.6-.7 6.1-1.1 7.8zm-18.8 7c-1.5-2.2-2.5-3.9-3-5 .1 1.4.1 2.2.2 2.6l.5 4.5c.4-.3 1-.8 1.8-1.5.1-.2.3-.4.5-.6zm4.8.9l.3.5-.4.4c-.2.2-.4.3-.7.5-.5.3-.8.6-.9.7l-.9.9-.6-1.5c-.2-.4-.5-1-1.1-1.8-.6.5-1.5 1.3-2.7 2.3.4 3 .4 5 .3 6-.2 1-.5 1.7-1.1 2.2-.3.2-.5.4-.8.4-.2 0-.4-.1-.6-.2-.1-.2-.2-.4-.2-.5 0-.2.1-.3.2-.4.1-.1.2-.1.3-.2.4-.2.6-.3.7-.4.3-.3.5-.8.6-1.5.1-1.2 0-3.3-.3-6.3-.4-3.4-.6-6.1-.6-7.8-1.1 1.1-1.8 1.9-2 2.2-.3.5-.5.9-.4 1.4 0 .4.1.8.4 1.1.1.1.2.2.4.3.2.1.4.2.4.3.1.1.1.2.1.4s-.1.3-.2.4c-.2.1-.4.2-.6.2-.2 0-.4-.2-.6-.4-.3-.4-.5-.8-.6-1.3-.1-.5-.1-1 .1-1.5s.4-1.1.9-1.6c.2-.3.6-.7 1.3-1.4.5-.5.9-.9 1-1.1.2-.3.3-.6.4-.9.4.7.7 1.4 1 1.9l3 4.8 2.3 3.4c.4-.2.8-.4 1.1-.7.1-.3.3-.5.5-.8zM52.9 59.2l-4.6-4.3c-1-.9-1.9-1.9-2.7-2.9.1.6.3 1.4.6 2.4 1 3.1 1.7 6.2 2.2 9.2-.7-.5-1.6-1-2.5-1.7-.9-.7-1.7-1.3-2.4-1.9-.9-.8-1.6-1.5-2-2.2-.4-.7-.7-1.5-1-2.6-.7 1-1 2-1 3s.3 1.7.8 2.1c.2.2.4.3.7.3.3.1.5.1.6.2.1.1.2.2.2.4s0 .3-.1.4c-.1.2-.3.2-.5.2-.3 0-.6-.2-.9-.4-.4-.4-.8-.9-1-1.6-.2-.7-.3-1.3-.3-2 .1-.7.3-1.4.6-2 .2-.4.5-.9 1.1-1.7.2-.3.4-.5.5-.8.6 2.4 1.6 4.2 3.1 5.5.5.4 1.5 1.2 2.9 2.4-.1-.6-.2-1.1-.3-1.7-.1-.4-.3-1.3-.8-2.9-.7-2.5-1.2-4.4-1.4-5.5-.1-.8-.2-1.6-.2-2.4 1.4 2.1 3.9 4.6 7.4 7.6l-.7-3.8c-.2-1-.5-2.2-.9-3.4-.4-1.2-.7-2.1-1.1-2.7-.2-.4-.5-.7-.8-.9-.3-.2-.6-.4-1-.6-.3-.1-.4-.2-.5-.3-.1-.1-.2-.3-.2-.4 0-.2.1-.3.2-.5.2-.2.4-.3.6-.2.4 0 .7.2 1.1.5.5.4 1 1.2 1.5 2.2.5 1 1 2.8 1.6 5.3.8 3.4 1.2 5.9 1.2 7.7zM33 65.1c-.4.6-.6 1.3-.6 2.1s.3 1.6.9 2.4c.6.9 1.4 1.6 2.4 2.3 1.2.8 2.3 1.1 3.3 1 1-.1 1.7-.6 2.3-1.3.4-.6.6-1.3.5-2 0-.8-.4-1.6-1-2.5-.6-.9-1.5-1.7-2.5-2.4-1.1-.7-2.2-1-3.1-.9-.9.1-1.7.6-2.2 1.3zm-.2-1c.4-.7 1-1.2 1.7-1.5.7-.3 1.4-.5 2.2-.4.8.1 1.6.4 2.4.9 1 .7 1.9 1.6 2.5 2.8.7 1.2 1 2.4 1 3.5s-.3 2.2-1 3.1c-.7 1.1-1.7 1.8-2.8 2-1.1.2-2.3 0-3.4-.8-1.1-.7-2-1.7-2.6-2.9-.7-1.2-1-2.4-1-3.5 0-1 .4-2.1 1-3.2zm3.1 18.8l-5.5-3c-1.2-.7-2.3-1.4-3.3-2.1.2.5.6 1.3 1.2 2.2 1.7 2.8 3.1 5.6 4.4 8.4-.8-.3-1.8-.6-2.9-1.1-1.1-.4-2-.9-2.8-1.3-1.1-.6-1.9-1.1-2.5-1.6-.5-.5-1.1-1.3-1.5-2.3-.4 1.1-.5 2.2-.3 3.1.2.9.7 1.5 1.3 1.8.2.1.5.2.8.2.3 0 .6 0 .7.1l.3.3v.4c-.1.2-.3.3-.5.3-.3 0-.6 0-1-.2-.5-.3-1-.7-1.4-1.3-.4-.6-.6-1.2-.7-1.9-.2-.5-.2-1.2 0-1.9.1-.4.3-1 .6-1.9l.3-.9c1.1 2.2 2.6 3.7 4.4 4.6.6.3 1.7.8 3.4 1.6-.2-.5-.5-1.1-.7-1.5-.2-.3-.7-1.2-1.5-2.6-1.3-2.3-2.2-4-2.7-5-.3-.7-.6-1.5-.8-2.3 1.9 1.7 4.9 3.5 9 5.6L32.6 77c-.4-1-1-2-1.6-3.1-.7-1.1-1.2-1.9-1.7-2.4-.3-.3-.6-.6-1-.7-.3-.2-.7-.3-1.2-.3-.3 0-.5-.1-.6-.1-.2-.1-.3-.2-.3-.4s0-.3.1-.5.3-.3.6-.4c.4 0 .8 0 1.2.3.6.3 1.3.9 2 1.8.8.9 1.7 2.5 2.8 4.8 1.5 2.9 2.5 5.2 3 6.9zm-6.6 10.6l.5.3c-.1.5-.1.8-.2 1.1-.1.3-.3.7-.5 1.3-.2.4-.3.8-.5 1.2-.2.6-.4 1.3-.5 2l-.5-.4c.2-.6.2-1.1.1-1.5-.1-.3-.3-.5-.5-.8-.3-.3-1.4-1-3.2-2.2l-4.5-2.9-.2-.1c-.1.4-.2.6-.3.8-.4 1.1-.6 2.1-.6 2.8 0 .8.2 1.4.6 1.9.4.5.8.8 1.3 1 .2.1.4.1.6.1.1 0 .4-.1.7-.2.3-.1.5-.2.7-.1.2.1.3.2.4.3.1.2.1.3 0 .5-.1.3-.3.4-.6.5-.4.1-.9.1-1.5-.1-.7-.3-1.4-.7-1.9-1.4s-.9-1.5-1-2.5c-.1-.9 0-2 .4-3.2.2-.6.6-1.4 1.1-2.6.4-.8.7-1.4.8-1.8.1-.4.2-.7.1-.9-.1-.2-.2-.3-.4-.4 0 0-.1 0-.3-.1-.1 0-.2 0-.2-.1-.2-.1-.3-.2-.4-.3-.1-.1-.1-.3 0-.5s.2-.3.4-.4c.2-.1.4-.1.6 0 .5.2.8.5 1 1.2.2.6 0 1.5-.4 2.7-.1.4-.3.9-.5 1.3.2.1.9.6 2 1.4l2.9 1.9 1.8 1.2 2 1.3c.2-.4.3-.7.4-1 .1-.4.2-.9.3-1.3zm-9.9 6.4l-.1.5c-.6-.3-1.1-.4-1.5-.5-.5-.1-.9-.1-1.2.1-.4.2-.6.5-.7.9-.2.7-.1 1.4.2 2 .3.7.8 1.1 1.5 1.2.3.1.6.1 1 0 .3-.1.8-.3 1.4-.6 1.1-.6 2-1 2.5-1.2.6-.1 1.1-.1 1.5 0 .7.2 1.3.6 1.8 1.2s.9 1.4 1 2.3c.2.9.1 1.8-.1 2.7-.3.9-.7 1.6-1.3 2-.6.5-1.2.6-1.7.5-.3-.1-.5-.2-.6-.4-.1-.2-.2-.4-.1-.6.1-.2.2-.4.4-.5.1-.1.4-.1.8-.1.5 0 .8 0 1-.1.2-.1.4-.2.6-.5.2-.2.3-.5.4-.8.3-.9.2-1.8-.2-2.6s-1-1.4-1.7-1.6c-.2-.1-.5-.1-.8-.1-.3 0-.6.1-1 .2-.3.1-.7.3-1.4.7-.7.4-1.1.6-1.4.7-.3.1-.7.2-1 .2-.3 0-.6 0-.9-.1-.6-.2-1.1-.5-1.5-1.1-.5-.5-.8-1.2-.9-1.9-.2-.7-.1-1.4.1-2.2.1-.4.3-.8.6-1.4.2-.3.3-.6.4-.8.4.3.7.5 1.1.6.1.6.8.9 1.8 1.3zm-10.6 9.5l.4-1.8 2.1 3.8-.1.6-2.4-2.6zm3.1 5.1l1.2-.1c1.1 0 2-.1 2.8-.2.8-.1 2.7-.4 5.7-.8-.3-.2-1.1-.5-2.2-1-1.5-.7-2.4-1.1-2.8-1.3-1.1-.6-1.9-1.1-2.4-1.5-.5-.4-.8-.9-1-1.3-.2-.5-.2-.9-.1-1.5.1-.4.2-.7.4-.9.2-.2.4-.3.6-.2.2 0 .3.1.4.3.1.1.1.3.1.4 0 .1-.1.2-.2.4-.2.3-.3.5-.3.5 0 .1-.1.2-.1.4-.1.3 0 .6.2.9.3.5 1.1 1.1 2.5 1.8 1.4.8 3.6 1.8 6.8 3.2l1.4.6c-1.7.4-3 .7-3.7.8-1 .2-2.2.3-3.6.5l-3.5.4c.7.3 2 .8 3.7 1.6 1.7.8 2.7 1.3 3 1.4.8.5 1.4.9 1.8 1.3.4.4.7.9.8 1.3.1.4.2.9.1 1.4-.1.6-.3 1.1-.7 1.4-.3.3-.5.4-.8.3-.1 0-.2-.1-.3-.2-.1-.1-.1-.3-.1-.4 0-.2.2-.4.4-.6.5-.3.7-.7.8-1 .1-.4 0-.8-.3-1.2-.4-.6-1.3-1.3-2.8-2.1-1.8-1-4.1-2-7-3.1 0 .2-.1.7-.1 1.3 0 .7.1 1.2.2 1.7s.4.9.7 1.2c.3.3.7.5 1.1.6.2 0 .4.1.6 0 .1 0 .3-.1.6-.2s.5-.1.6-.1c.1 0 .3.1.4.2.1.1.1.3.1.4 0 .2-.2.4-.5.5-.3.1-.7.1-1.2 0-.9-.2-1.5-.5-2.1-1.1-.5-.5-.9-1.2-1-2-.1-.5-.1-1.4 0-2.8-.2-.2-.2-.7-.2-1.2zm5.9 13.7c-2.6-.4-4.5-.8-5.7-1.1 1.1.9 1.7 1.4 2 1.6l3.6 2.6c0-.5.1-1.3.1-2.3v-.8zm3.9-3l.6.1v.6c0 .3 0 .6-.1.9-.1.6-.1 1-.1 1.2 0 .3 0 .7.1 1.3-.5-.2-1-.4-1.6-.6-.4-.1-1.1-.2-2-.4 0 .8-.1 1.9-.1 3.5 2.5 1.7 4 3 4.6 3.8.6.8.9 1.5.9 2.2 0 .4-.1.6-.2.8-.1.2-.3.3-.6.3-.2 0-.3-.1-.4-.2-.1-.1-.2-.2-.2-.4 0-.1 0-.2.1-.4.1-.4.2-.6.2-.8 0-.4-.2-.9-.7-1.5-.8-.9-2.4-2.2-4.9-4-2.8-2-4.9-3.6-6.2-4.8.1 1.6.2 2.6.3 3 .2.6.4 1 .7 1.3.3.3.7.4 1 .4.1 0 .3 0 .5-.1s.4-.1.5-.1c.1 0 .3.1.4.2.1.1.2.2.1.4 0 .2-.1.4-.3.5-.2.1-.4.2-.8.2-.5 0-.9-.2-1.3-.4-.4-.3-.8-.6-1.1-1.1-.3-.5-.5-1-.6-1.7-.1-.4-.1-1-.2-1.9 0-.8-.1-1.3-.1-1.4-.1-.3-.2-.6-.5-.9.8.2 1.5.4 2.1.5l5.6 1 4 .6c.1-.5.2-.9.2-1.3.2-.2.1-.5.1-.8zm-9.1 18l-.4-.1c-.2-.9-.3-1.7-.6-2.4.5.1 1.1.3 1.8.4l2.8.5v-.9c0-.4-.1-.9-.4-1.3-.3-.5-.7-.9-1.3-1.2-.6-.3-1.2-.5-1.9-.5s-1.2.3-1.5.8c-.4.5-.5 1.2-.4 2.2.1 1.1.4 2.2 1 3.2s1.4 1.8 2.3 2.3c.9.5 1.8.7 2.6.7.4 0 .8-.1 1-.3.3-.2.6-.5.8-.9.2-.3.4-.5.6-.5.1 0 .3 0 .4.1.1.1.2.2.2.4 0 .4-.2.8-.7 1.2-.5.4-1.2.6-2 .7-1.5.1-2.9-.4-4.1-1.4-1.7-1.4-2.6-3.3-2.8-5.8-.1-.9 0-1.7.2-2.4.2-.6.5-1.1.9-1.4.4-.3.9-.5 1.4-.5.6 0 1.3.1 1.9.5.6.4 1.2 1 1.6 1.8.4.8.7 1.7.8 2.7v.7l3.1.6 1.5.3c.1-.5.1-1 .1-1.3 0-.5-.2-1-.4-1.5l.6.1c.2.5.3.9.3 1.3v2.8c0 .6.2 1.3.4 1.9l-.5-.1c-.2-.7-.3-1.1-.6-1.3-.3-.3-.9-.6-1.8-.7l-5.9-1.1c-.3 0-.5-.1-.6-.1-.1 0-.2.1-.3.1-.1.1-.1.2-.1.3-.1 0-.1 0 0 .1zm.2 6.7l.1.5c-.3 0-.6 0-.8.1-.3 0-.4.2-.4.4s.1 1 .3 2.4l.3 1.4 4.4.3-.4-2c-.1-.6-.2-1-.3-1.1-.1-.1-.4-.2-.7-.2l-.1-.5c.8.1 1.7.1 2.6.1l.1.5c-.3 0-.5 0-.7.1-.1 0-.1.1-.2.2 0 .1-.1.1-.1.3 0 .2 0 .5.1.8l.3 2c2.3.2 4.1.5 5.4.9-.3-.6-.5-1.1-.6-1.5-.1-.8-.2-1.7-.1-2.9v-1.2c0-.3-.2-.5-.3-.6-.2-.1-.3-.2-.5-.2-.1 0-.3.1-.5.2s-.3.1-.4.2c-.1 0-.3 0-.4-.1-.1-.1-.2-.2-.2-.4s0-.4.1-.5c.1-.2.3-.3.6-.3.5-.1 1.1.1 1.6.5s.8 1 .9 1.8c.1.4.1.9.2 1.6.1 1.4.2 2.5.3 3.2.2.9.4 2 .8 3.3l-.6-.1c-.3-.7-.6-1.1-.7-1.3-.1-.1-.3-.2-.5-.3-.7-.2-2-.4-3.9-.5-1.9-.2-3.9-.3-6.1-.5.1.8.4 1.5.9 2.1.5.6 1.1 1.1 1.7 1.4.7.3 1.3.4 1.9.3.3 0 .5-.1.7-.2.2-.1.5-.3.8-.5.2-.2.4-.3.5-.3.1 0 .3 0 .4.1.1.1.2.2.2.4s0 .5-.3.7c-.3.3-.8.5-1.4.6-1.3.2-2.6-.1-3.9-.9-1.3-.8-2-2.2-2.4-4.2l-.6-3.3c-.2-1.1-.4-2-.7-2.5 1.4-.3 2.2-.3 2.6-.3zm-.1 11.7h.5c.2.7.4 1.2.6 1.4.1.1.3.2.5.3.3.1 1.5.1 3.9.2.8 0 2.8.1 6.2.1 0-.5 0-1-.2-1.7h.5c.1.2.1.6.2 1.2.1.4.2 1 .3 1.5.2.8.4 1.5.7 2.2h-.5c-.3-.7-.5-1.2-.8-1.5l-.2-.2c-.1-.1-.4-.1-.8-.1s-1.9-.1-4.5-.2c-.8 0-2.4-.1-5-.1.1.4.3 1 .5 1.6l-.6-.1c-.1-.3-.2-.5-.3-.8-.1-.3-.3-.9-.5-1.9-.1-.7-.3-1.4-.5-1.9zm4 15.2l1-.6c.9-.6 1.7-1.1 2.3-1.6.7-.5 2.2-1.7 4.5-3.6-.4 0-1.2.1-2.4.2-1.6.2-2.7.3-3.1.3-1.3 0-2.2 0-2.8-.1-.6-.1-1.2-.4-1.5-.7-.4-.3-.6-.7-.8-1.2-.1-.4-.2-.7-.1-1 .1-.3.2-.4.4-.5.2-.1.3 0 .5 0 .2.1.3.2.3.3 0 .1.1.2 0 .4v.6c0 .1 0 .2.1.4.1.3.3.5.6.7.5.3 1.5.4 3.1.3 1.6 0 4.1-.2 7.5-.6l1.5-.2c-1.3 1.2-2.2 2.1-2.8 2.5-.8.6-1.7 1.4-2.9 2.3l-2.8 2.1c.8-.1 2.1-.3 4-.4 1.9-.2 3-.2 3.3-.2.9 0 1.7.1 2.2.3.6.2 1 .4 1.3.7.3.3.6.7.7 1.2.2.6.2 1.1.1 1.6-.1.3-.3.6-.6.7h-.4l-.3-.3c-.1-.2 0-.4.1-.7.2-.5.3-.9.2-1.3-.1-.3-.4-.6-.8-.9-.7-.3-1.8-.5-3.5-.4-2 .1-4.6.3-7.6.8l.6 1.2c.3.6.7 1 1 1.3.4.3.8.5 1.2.6.4.1.8.1 1.2-.1l.6-.3c.1-.1.3-.2.4-.4l.4-.4h.4l.3.3c.1.2 0 .5-.2.7-.2.2-.5.5-1 .6-.8.3-1.6.3-2.3.1-.7-.2-1.4-.6-1.9-1.2-.3-.4-.8-1.2-1.4-2.4-.2-.3-.4-.7-.6-1.1zM222.5 48.2l.4-.2c.7.6 1.4 1 2 1.4-.4.2-1 .5-1.6.9l-2.4 1.5.6.7c.3.3.7.5 1.2.7.5.2 1.1.2 1.8 0s1.2-.5 1.7-1c.4-.5.6-1 .5-1.6-.1-.6-.5-1.2-1.2-1.9-.8-.8-1.8-1.3-2.9-1.6-1.2-.3-2.2-.4-3.2-.1-1 .2-1.8.7-2.4 1.3-.3.3-.5.6-.6.9-.1.3-.1.7 0 1.2.1.4 0 .7-.1.8-.1.1-.2.2-.4.2-.1 0-.3 0-.4-.1-.3-.3-.4-.7-.3-1.3.1-.6.4-1.2 1-1.8 1-1.1 2.3-1.7 4-1.8 2.2-.2 4.2.6 6 2.3.7.6 1.2 1.3 1.5 1.9.3.6.4 1.1.3 1.7-.1.5-.3 1-.6 1.3-.4.5-1 .8-1.7.9-.7.2-1.5.1-2.4-.2-.9-.3-1.7-.8-2.4-1.5l-.5-.5-2.6 1.7c-.4.3-.9.6-1.4.8.3.4.6.8.8 1 .3.3.8.6 1.3.8l-.5.3c-.5-.2-.8-.5-1.1-.7-.2-.2-.6-.6-1-1.1-.3-.4-.6-.7-.9-.9-.5-.4-1-.8-1.6-1.2l.4-.3c.6.4 1 .6 1.3.6.5 0 1.1-.2 1.8-.7l5.1-3.3c.2-.2.4-.3.5-.4.1-.1.1-.2.1-.3 0-.1 0-.2-.1-.3.1 0 0 0 0-.1zm-13.8-5.5c1.8-2 3.1-3.4 4.1-4.2-1.3.4-2.1.7-2.4.8l-4.2 1.6c.4.3 1.1.8 1.9 1.3.2.2.4.4.6.5zm.4 4.9l-.4.4c-.2-.1-.4-.2-.5-.3-.2-.1-.4-.3-.7-.6-.5-.4-.8-.6-.9-.7-.2-.2-.6-.4-1.1-.6.5-.3.9-.6 1.3-1 .3-.3.8-.8 1.4-1.5-.6-.4-1.6-1.1-2.9-2-2.8 1.1-4.7 1.7-5.7 1.8-1 .1-1.8-.1-2.4-.5-.3-.2-.5-.4-.5-.6-.1-.2 0-.4.1-.6.1-.1.2-.2.4-.3.1 0 .3 0 .4.1.1.1.2.1.3.3l.6.6c.4.2.9.3 1.6.2 1.2-.2 3.2-.8 6-2 3.2-1.3 5.7-2.2 7.4-2.6-1.4-.8-2.3-1.3-2.7-1.4-.5-.2-1-.2-1.5-.1-.4.1-.7.3-.9.6-.1.1-.1.3-.2.5s-.1.4-.2.5c-.1.1-.2.2-.4.2s-.3 0-.4-.1c-.2-.1-.3-.3-.3-.5s.1-.5.3-.7c.3-.4.6-.7 1.1-.9.5-.2.9-.3 1.5-.3.5 0 1.1.2 1.8.4.3.1.9.4 1.6.9.7.4 1.1.6 1.3.7.3.1.6.1 1 .1-.6.5-1.1 1-1.5 1.5l-3.9 4.2-2.7 3.1c.3.4.6.7 1 .9.2.1.4.2.7.3zM195.9 33c-1.2 1.3-2 2.1-2.6 2.6-.4.3-.8.5-1.1.7 1 .3 1.7.5 2.1.8.5.3 1.1.8 2 1.6.5.4.8.7 1.1.8.2.1.4.2.7.1.2 0 .4-.2.5-.3.1-.1.1-.3.1-.5s.1-.4.1-.5l.3-.3c.1 0 .3 0 .4.1.2.1.3.3.3.5s0 .5-.2.7c-.3.5-.7.8-1.3.9-.6.1-1.3 0-2-.4-.3-.2-.8-.5-1.3-.8-1.7-1.2-2.9-1.9-3.5-2.2-.8-.4-1.5-.8-2.3-1.1l.4-.4c.8.3 1.4.3 1.8.2.5-.2 1.3-.9 2.6-2.4h-2.6l.5-.6h2.7c1.2-1.2 1.9-2 2.4-2.3.7-.5 1.4-.9 2.1-1.1.7-.2 1.3-.3 1.9-.2.6 0 1.1.2 1.5.4.4.2.8.6.9 1 .2.4.2.7.1.9-.1.2-.2.3-.4.3h-.4c-.2-.1-.3-.3-.4-.7-.2-.6-.5-1-.8-1.2-.4-.2-.9-.2-1.5.1-1.1.5-2.2 1.4-3.4 2.8h3.8l-.5.6-4-.1zm-6.6-10c-.7-.3-1.4-.4-2.2-.2-.8.2-1.5.6-2.3 1.3-.8.7-1.4 1.6-1.9 2.8-.6 1.3-.7 2.4-.5 3.4.3 1 .8 1.6 1.7 2 .6.3 1.3.3 2.1.2.8-.2 1.5-.6 2.3-1.4.8-.7 1.4-1.7 1.9-2.9s.7-2.3.4-3.2c-.1-1-.6-1.6-1.5-2zm1-.3c.7.3 1.3.8 1.8 1.4.5.6.7 1.3.7 2.1s-.1 1.6-.5 2.5c-.5 1.1-1.3 2.1-2.4 2.9-1.1.8-2.2 1.3-3.3 1.5-1.1.2-2.2 0-3.3-.4-1.2-.5-2-1.4-2.4-2.5-.4-1.1-.3-2.3.2-3.5.5-1.2 1.3-2.2 2.4-3 1.1-.8 2.2-1.3 3.3-1.5 1.2-.2 2.3-.1 3.5.5zm-7.4-3.2l-.1.2c-.5 0-1 0-1.4.1-.4.1-.9.3-1.7.6-1.9.8-3.5 1.4-4.8 1.7.2.5.3 1 .4 1.6.1.6.1 1.8.1 3.7 0 1.7.2 2.9.5 3.6.3.7.8 1.2 1.3 1.3.5.2.9 0 1.3-.5.2-.3.4-.5.5-.5.1-.1.3-.1.4 0 .1 0 .3.1.3.3.1.1.1.3 0 .4-.1.4-.5.7-1 .9-.6.2-1.2.2-1.8 0-.6-.2-1.1-.5-1.5-1-.4-.5-.8-1.1-1-1.9-.2-.8-.3-1.9-.4-3.4 0-1.4-.1-2.4-.1-2.9-.1-.5-.2-1.1-.5-1.8l-2.2 3.4c-.4.7-.7 1.2-.9 1.5.4.3.7.5 1 .6.1 0 .2.1.3.1l-.3.4c-.1 0-.2-.1-.2-.1-.2-.1-.5-.2-.8-.3-.4-.2-.7-.3-1-.4-.5-.2-1.4-.3-2.5-.5l.2-.4c.6.1 1.1.1 1.4-.1.3-.1.6-.4.9-.8.6-.9 1.6-2.3 2.7-4.1l2.5-3.9c-1.2-.3-2.3-.4-3.2-.1-.7.2-1.1.5-1.2 1-.1.2 0 .4 0 .7.1.3.1.5 0 .6-.1.2-.2.3-.3.4-.2.1-.3.1-.5 0s-.3-.2-.4-.5c-.1-.2-.1-.5 0-.8.3-.9 1-1.5 2-1.9 1.1-.4 2.7-.3 4.8.4l.6.2c-.6.8-1.1 1.3-1.3 1.7l-1.7 2.6c.5 0 1.1-.1 1.9-.4.7-.2 1.5-.5 2.2-.8 1.3-.5 2.1-.9 2.3-1 .1 0 .1-.1.1-.1s0-.1-.1-.2-.5-.2-1-.4l.3-.5c.8.3 1.4.6 1.9.7.7.3 1.3.4 2 .6zm-17.3-4.3c-.4 0-.9 0-1.3-.1-.7-.1-1.5-.4-2.4-.9-.6-.3-.9-.4-1.1-.5-.3 0-.5 0-.7.1-.2.1-.3.2-.3.4s0 .4.2.6c.2.2.3.4.3.5v.3c0 .2-.1.3-.2.4-.1.1-.3.1-.4.1-.3 0-.5-.2-.6-.5-.1-.3-.2-.6-.1-1 .1-.6.4-1 .9-1.3.5-.3 1-.4 1.7-.3.4.1.9.2 1.4.4 1.2.4 2.1.7 2.7.8.6.1 1.3.1 1.9-.1.2-.1.3-.1.4-.1.1 0 .2.1.2.1.1.1.1.1.1.2 0 .2-.4.5-1.1.9-.7.4-1.4.9-2 1.4l-5.7 4.1-3.3 2.5c1.5-.2 2.5-.2 3.2 0 1 .2 2.1.6 3.1 1.2.6.3 1 .5 1.3.6.3.1.5 0 .7-.1.2-.1.3-.3.3-.5v-.5c0-.2-.1-.4 0-.5 0-.2.1-.3.3-.4.2-.1.3-.2.5-.1.2 0 .3.1.5.3.1.2.1.4.1.7-.1.6-.4 1.1-1 1.4-.6.3-1.2.4-1.8.3-.4-.1-1-.2-1.9-.5-1.1-.3-2.2-.6-3.4-.8-1.4-.3-2.4-.3-2.9-.2-.2 0-.4.1-.5 0-.1 0-.1-.1-.2-.1v-.2c0-.2.2-.4.5-.6.3-.2.9-.6 1.7-1.2.7-.5 1.8-1.3 3.2-2.3l3.4-2.4c.6-.7 1.4-1.3 2.3-2.1zm-10.9.3l-.5-.1c.2-.7.3-1.2.3-1.5.1-.5 0-.9-.3-1.2-.2-.3-.6-.5-1-.6-.7-.1-1.4.1-1.9.5-.6.4-.9 1-1 1.6 0 .3 0 .7.1 1 .1.3.4.7.8 1.3.8 1 1.3 1.8 1.5 2.3.2.5.3 1 .2 1.5-.1.7-.4 1.4-.9 2-.5.6-1.2 1.1-2.1 1.4-.9.3-1.8.4-2.7.3-.9-.1-1.7-.4-2.2-1-.6-.6-.8-1.1-.8-1.6 0-.3.1-.5.3-.7s.4-.2.6-.2c.2 0 .4.1.5.3.1.1.1.4.2.7 0 .5.1.8.3 1 .1.2.3.4.6.6.2.2.5.3.8.3.9.1 1.8-.1 2.5-.6.8-.5 1.2-1.2 1.3-1.9v-.8c-.1-.3-.2-.6-.4-.9-.1-.2-.4-.7-.9-1.3-.5-.6-.8-1-.9-1.2-.2-.3-.3-.6-.3-.9-.1-.3-.1-.6 0-.9.1-.6.3-1.2.8-1.7s1-1 1.7-1.2c.7-.3 1.4-.4 2.2-.3.4 0 .9.2 1.5.4l.9.3c-.2.4-.4.8-.5 1.1-.2.2-.4 1-.7 2zM136.5 18c.3-2.6.5-4.6.8-5.8-.8 1.1-1.3 1.8-1.5 2.1l-2.4 3.8h2.3c.2-.1.5-.1.8-.1zm3.2 3.7l-.1.6h-1.5c-.6-.1-1-.1-1.2-.1-.3 0-.7.1-1.3.1.2-.5.4-1 .5-1.6.1-.4.2-1.1.3-2.1-.8 0-1.9 0-3.5.1-1.6 2.5-2.8 4.2-3.5 4.8-.8.7-1.5 1-2.2 1-.4 0-.6-.1-.8-.2-.2-.1-.3-.3-.3-.5s0-.3.1-.4c.1-.1.2-.2.4-.2h.4c.4.1.7.1.8.1.4 0 .9-.3 1.4-.8.8-.8 2.1-2.5 3.7-5.1 1.8-2.9 3.3-5.1 4.5-6.4-1.6.2-2.6.3-3 .5-.5.2-.9.5-1.2.8-.3.4-.4.7-.4 1.1 0 .1 0 .3.1.5s.1.4.1.5c0 .1-.1.3-.2.4-.1.1-.2.2-.4.2s-.4-.1-.5-.2c-.1-.2-.2-.4-.2-.7 0-.5.1-.9.3-1.4.2-.4.6-.8 1-1.1.4-.3 1-.5 1.7-.7.4-.1 1-.2 1.8-.3.8-.1 1.2-.1 1.4-.2.3-.1.6-.3.9-.5-.2.8-.3 1.5-.4 2.1l-.7 5.6-.4 4c.5.1.9.2 1.3.2.5 0 .8 0 1.1-.1zm-15.4-9.2c-.4.1-.8.2-1.3.3-.7.1-1.6.1-2.6-.1-.6-.1-1-.1-1.2-.1-.3 0-.5.1-.6.2-.1.1-.2.3-.2.4 0 .2.1.3.4.5.2.1.4.3.4.3.1.1.1.2.1.3 0 .2 0 .3-.1.4-.1.1-.2.2-.4.2-.3 0-.5-.1-.7-.3-.2-.2-.3-.5-.4-.9-.1-.6.1-1.1.5-1.5.4-.5.9-.7 1.5-.8.4 0 .9-.1 1.4-.1 1.3 0 2.2 0 2.9-.1.6-.1 1.2-.3 1.8-.7.2-.1.3-.1.3-.2.1 0 .2 0 .2.1.1.1.1.1.1.2 0 .2-.2.6-.8 1.2-.6.6-1.1 1.3-1.6 1.9l-4.2 5.6-2.4 3.3c1.3-.6 2.4-.9 3.1-1 1-.1 2.1 0 3.4.2.7.2 1.1.2 1.4.2.3 0 .5-.1.6-.3.1-.1.2-.3.1-.6 0-.1-.1-.3-.2-.4-.1-.2-.2-.3-.2-.4 0-.2 0-.3.1-.5s.3-.2.4-.3c.2 0 .4 0 .5.2.2.1.3.3.3.6.1.6-.1 1.2-.6 1.6-.4.5-1 .7-1.6.8-.4 0-1 .1-2 .1-1.1 0-2.3.1-3.5.2-1.4.2-2.4.4-2.8.7-.2.1-.3.2-.4.2-.1 0-.1 0-.2-.1-.1 0-.1-.1-.1-.2 0-.2.1-.4.3-.7.2-.3.7-.8 1.3-1.7.5-.7 1.3-1.7 2.4-3.1l2.5-3.3c.9-.5 1.5-1.4 2.1-2.3zm-10.4 3.7l-.5.1c-.1-.7-.2-1.2-.2-1.5-.1-.5-.3-.8-.7-1.1-.3-.2-.7-.3-1.2-.2-.7.2-1.2.6-1.6 1.2-.4.6-.5 1.2-.4 1.9.1.3.2.6.4.9.2.2.6.5 1.2.9 1.1.7 1.8 1.2 2.2 1.6.4.4.6.9.8 1.3.2.7.1 1.4-.2 2.1-.3.7-.8 1.4-1.5 2-.7.6-1.5 1-2.5 1.2-.9.2-1.7.1-2.4-.2-.7-.3-1.1-.7-1.3-1.3-.1-.3 0-.5.1-.7.1-.2.3-.4.5-.4s.4 0 .6.1c.1.1.3.3.4.6.2.4.4.7.6.9.2.2.4.3.7.3.3.1.6.1.9 0 .9-.2 1.6-.7 2.2-1.5.5-.8.7-1.5.5-2.3-.1-.3-.2-.5-.3-.7-.1-.2-.4-.5-.7-.7-.2-.2-.6-.5-1.3-.9-.7-.4-1.1-.7-1.3-.9-.3-.2-.5-.5-.6-.8-.2-.3-.3-.5-.3-.8-.1-.6-.1-1.2.2-1.9.3-.7.6-1.3 1.2-1.7.5-.5 1.2-.8 2-1 .4-.1.9-.1 1.5-.2.3 0 .6 0 .9-.1 0 .4-.1.9-.1 1.2 0 .7.1 1.5.2 2.6zm-15.8-3.7c.3-.1.5-.1.8 0 .2.1.4.3.5.6.1.3.1.5 0 .8-.1.2-.3.4-.6.5-.3.1-.5.1-.8 0-.2-.1-.4-.3-.5-.6-.1-.3-.1-.5 0-.8.2-.2.4-.4.6-.5zm3.1 4.2l-1.2.6c-.7.2-1.5.4-2.5.4-.6 0-1 .1-1.2.1-.3.1-.4.2-.5.4-.1.2-.1.3-.1.5.1.2.2.3.5.4.3.1.4.2.5.2.1.1.1.2.2.3.1.2 0 .3 0 .5-.1.1-.2.3-.3.3-.2.1-.5 0-.8-.1-.3-.2-.4-.4-.6-.8-.2-.5-.1-1.1.1-1.6.3-.5.7-.9 1.3-1.1.4-.1.8-.3 1.4-.4 1.3-.2 2.2-.4 2.8-.6.6-.2 1.1-.5 1.6-1 .1-.1.2-.2.3-.2h.2c.1 0 .1.1.2.1.1.2-.1.6-.5 1.3-.4.7-.8 1.5-1.1 2.2l-3 6.4-1.7 3.8c1.2-.8 2.1-1.4 2.8-1.6 1-.3 2.1-.5 3.3-.5.7 0 1.2 0 1.4-.1.3-.1.5-.2.6-.4.1-.2.1-.4 0-.6 0-.1-.1-.3-.2-.4-.1-.2-.2-.3-.3-.4-.1-.2-.1-.3 0-.5s.2-.3.4-.3c.2-.1.4 0 .6.1.2.1.3.3.4.5.2.6.1 1.2-.2 1.7-.3.5-.8.9-1.4 1.1-.4.1-1 .3-2 .5-1.1.2-2.2.5-3.4 1-1.4.5-2.3.9-2.6 1.2-.2.1-.3.2-.4.3h-.2c-.1 0-.1-.1-.1-.2-.1-.2 0-.4.1-.7.2-.3.5-1 .9-1.9.4-.8.9-2 1.7-3.5l1.8-3.8c.4-1.1.8-2.1 1.2-3.2zm-8 13v.6c-.3.3-.6.4-.9.6-.3.1-.7.3-1.1.4-.5.1-.8.3-1.1.4-.4.2-.9.5-1.6.9v-.5c.5-.4.8-.7.8-.9.1-.2 0-1-.2-2.4s-.4-2.3-.6-2.7c-.4-.8-.9-1.5-1.6-2.2-.7-.7-1.4-1.2-2.1-1.5-.7.7-1.2 1.3-1.5 1.7-.3.5-.4.9-.4 1.4 0 .5 0 .9.1 1.2.1.3.4.5.8.7.3.1.5.3.6.4.1.2.1.3 0 .4 0 .1-.1.2-.3.3-.2.1-.5.1-.8-.1-.4-.2-.7-.6-.9-1-.3-.7-.4-1.4-.3-2.1.1-.7.4-1.5.9-2.1.3-.4.8-.9 1.6-1.6.3-.2.5-.5.7-.7.8.4 1.5.9 2.1 1.6.7.7 1.3 1.6 2 2.7.1-2.8.4-4.9 1-6.3.6-1.4 1.2-2.2 1.8-2.5.2-.1.4-.1.6 0 .2.1.3.2.4.3.1.2.1.3 0 .5s-.3.4-.8.6c-.4.2-.7.4-.8.7-.3.5-.6 1.2-.9 2.2-.3 1-.5 2.2-.6 3.6-.1 1.4 0 2.7.2 4 .2 1.3.4 2.2.5 2.6l.9-.3c.6-.3 1.1-.6 1.5-.9zM246.3 180c2.4 1.1 4.1 2 5.2 2.7-.8-1.1-1.3-1.8-1.5-2.1l-2.8-3.5c-.2.5-.4 1.2-.7 2.2-.1.2-.1.4-.2.7zm-4.6 1.8l-.5-.3c.1-.2.1-.4.2-.6.1-.2.2-.5.3-.9.2-.6.4-.9.4-1.1.1-.3.2-.7.3-1.2.4.3.9.7 1.4 1 .3.2 1 .5 1.9.9.2-.7.6-1.8 1-3.4-1.9-2.3-3-4-3.4-4.9-.4-.9-.5-1.7-.2-2.4.1-.3.3-.6.5-.7.2-.1.4-.2.6-.1.2.1.3.1.4.3.1.1.1.3 0 .4 0 .1-.1.2-.2.3-.2.3-.3.6-.4.7-.1.4 0 .9.3 1.6.5 1.1 1.7 2.8 3.6 5.2 2.2 2.7 3.7 4.8 4.6 6.3.4-1.6.5-2.6.5-3 0-.6-.1-1-.4-1.4-.2-.4-.5-.6-.9-.7h-1c-.1 0-.2-.1-.3-.3-.1-.1-.1-.3 0-.4.1-.2.2-.4.4-.4.2-.1.5-.1.8 0 .4.1.8.4 1.2.8.3.4.6.8.7 1.3.1.5.2 1.1.1 1.8 0 .4-.1 1-.4 1.8-.2.8-.3 1.2-.3 1.4 0 .3.1.6.2 1-.7-.4-1.3-.8-1.9-1l-5.1-2.5-3.7-1.7c-.3.4-.5.8-.6 1.2 0 .4-.1.7-.1 1zm16.3-14.2h-1.2c-1.1 0-2 .1-2.8.1-.8.1-2.7.3-5.7.6.3.2 1.1.5 2.2 1.1 1.5.7 2.4 1.2 2.8 1.4 1.1.6 1.9 1.2 2.3 1.6.5.5.8.9.9 1.4.1.5.2.9 0 1.5-.1.4-.2.7-.5.9-.2.2-.4.2-.6.2-.2 0-.3-.1-.4-.3-.1-.1-.1-.3-.1-.5 0-.1.1-.2.2-.4.2-.3.3-.5.3-.5.1-.1.1-.2.1-.4.1-.3 0-.6-.1-.9-.3-.5-1.1-1.1-2.5-1.9-1.4-.8-3.6-2-6.7-3.4l-1.3-.7c1.8-.4 3-.6 3.7-.7 1-.1 2.2-.3 3.6-.4l3.5-.3c-.7-.3-1.9-.9-3.6-1.8-1.7-.9-2.7-1.4-2.9-1.5-.8-.5-1.4-1-1.7-1.4-.4-.4-.6-.9-.7-1.3-.1-.4-.1-.9 0-1.4.1-.6.4-1.1.7-1.4.3-.2.5-.3.8-.3.1 0 .2.1.3.2.1.1.1.3.1.4 0 .2-.2.4-.5.6-.5.3-.7.6-.8 1-.1.4 0 .8.2 1.2.4.6 1.3 1.4 2.8 2.2 1.8 1 4.1 2.1 6.9 3.4.1-.2.1-.7.1-1.3 0-.7 0-1.2-.2-1.7-.1-.5-.4-.9-.7-1.2-.3-.3-.7-.5-1.1-.6-.2 0-.4-.1-.6-.1-.1 0-.3.1-.6.1-.3.1-.5.1-.6.1-.1 0-.3-.1-.4-.3-.1-.1-.1-.3-.1-.5.1-.2.2-.4.5-.5.3-.1.7-.1 1.2 0 .8.2 1.5.6 2 1.1.5.6.8 1.2 1 2 .1.5.1 1.4-.1 2.8.3.9.3 1.3.3 1.8zm1-11.6v-1.3c.1-.7.3-1.5.7-2.5.2-.6.4-.9.4-1.1 0-.3 0-.5-.1-.7-.1-.2-.2-.2-.4-.3-.2 0-.4.1-.5.2l-.4.4c-.1 0-.2.1-.3 0-.2 0-.3-.1-.4-.2-.1-.1-.1-.3-.1-.4 0-.3.2-.5.4-.6.3-.2.6-.2 1-.2.6.1 1 .3 1.4.8.3.5.5 1 .4 1.6 0 .4-.1.9-.3 1.4-.3 1.2-.6 2.2-.6 2.8-.1.6 0 1.3.2 1.9.1.2.1.3.1.4 0 .1 0 .2-.1.2-.1.1-.1.1-.2.1-.2 0-.5-.4-1-1-.5-.7-1-1.3-1.5-2l-4.4-5.5-2.6-3.1c.2 1.4.3 2.5.2 3.2-.1 1-.5 2.1-1 3.2-.3.6-.5 1.1-.5 1.3 0 .3 0 .5.1.7.1.2.3.3.5.3h.5c.2-.1.4-.1.4-.1.2 0 .3.1.4.2.1.1.2.3.1.5 0 .2-.1.4-.3.5-.2.1-.4.2-.7.1-.6-.1-1.1-.4-1.5-.9-.3-.5-.5-1.1-.4-1.8 0-.4.2-1 .4-2 .3-1.1.5-2.2.6-3.5.2-1.4.2-2.4.1-2.9-.1-.2-.1-.4-.1-.4 0-.1 0-.1.1-.2.1 0 .1-.1.2 0 .2 0 .4.2.6.4.2.3.7.8 1.3 1.7.6.7 1.4 1.7 2.4 3.1l2.6 3.3c.8.8 1.5 1.6 2.3 2.4zm-1.4-10.8v-.5c.5 0 .9.1 1.2.1.9 0 1.6-.2 1.9-.5.4-.4.6-.8.6-1.4 0-.8-.3-1.6-.9-2.4-.6-.8-1.6-1.6-2.9-2.2-1.3-.6-2.7-.9-4.1-1-1.4 0-2.4.2-3.1.8-.7.5-1.1 1.2-1.1 2.1 0 1.1.6 2.2 2 3.2.1.1.2.2.2.3 0 .1 0 .2-.1.2-.1.1-.1.1-.2.1-.2 0-.5-.2-1-.7-.5-.4-.9-1-1.3-1.7-.3-.7-.5-1.3-.5-1.9 0-.8.2-1.5.6-2.1.4-.6 1-1.1 1.7-1.5.7-.3 1.6-.5 2.6-.5 1.4 0 2.8.4 4.2 1.2 1.4.8 2.5 1.7 3.2 2.8.7 1.1 1.1 2.2 1.1 3.3 0 .4-.1.8-.1 1.1 0 .2-.3.8-.7 2-.9-.5-2.1-.7-3.3-.8zm4.5-10.9l-.5-.1c-.1-.7-.2-1.2-.4-1.4l-.4-.4c-.2-.1-1.5-.4-3.8-.8-.8-.1-2.8-.4-6.2-1-.1.5-.1 1 0 1.7l-.5-.1V131c0-.5 0-1-.1-1.6-.1-.8-.2-1.6-.4-2.2l.5.1c.2.7.4 1.2.6 1.6.1.1.1.2.2.2.1.1.4.2.7.3.4.1 1.8.3 4.4.8.7.1 2.4.4 4.9.8 0-.4-.1-1-.3-1.6l.5.1c.1.3.2.5.2.8.1.3.1.9.3 1.9.1.9.2 1.6.3 2.1zm-4.4-8.8l-.1-.5c.3 0 .6 0 .8-.1.9-.1 1.5-.4 1.8-.9.3-.5.5-1.1.4-1.7-.1-.9-.6-1.8-1.3-2.6-.7-.8-1.7-1.5-2.9-1.9-1.2-.4-2.4-.6-3.6-.4-1.2.2-2.1.6-2.6 1.2-.5.7-.7 1.3-.6 2.1l.3 1.2c.2.4.4.7.7 1 1 .2 1.7.2 2.1.2.2 0 .3-.1.4-.2.1-.1.1-.4 0-.7 0-.1-.1-.4-.2-.7h.5c.1.3.2.6.2.8 0 .2.1.5.1.9 0 .3.1.5.1.6 0 .2.1.6.2 1.1.1.2.1.5.1.6h-.5c0-.3-.1-.5-.3-.7-.2-.1-.6-.2-1.2-.3-2.3-.2-3.9-.5-5-.9s-1.8-.9-2.4-1.5c-.5-.6-.8-1.3-.9-2-.1-.6 0-1.2.2-1.6.2-.4.5-.7.8-.7.2 0 .3 0 .5.1.1.1.2.2.2.4s-.1.5-.4.8c-.3.4-.5.6-.6.8-.1.2-.1.4-.1.6.1.4.3.7.6 1 .7.5 2.2 1 4.6 1.3-.3-.4-.5-.8-.7-1.2-.2-.4-.3-.9-.4-1.3-.2-1.1 0-2.1.5-2.8.7-1 1.7-1.6 3.2-1.8 1.3-.2 2.6 0 3.8.5 1.2.5 2.3 1.3 3.2 2.4.9 1.1 1.4 2.1 1.6 3.2.1.6.1 1.3 0 2.1s-.1 1.4 0 1.8c-1-.3-2.1-.3-3.1-.2zm.2-18.1c-.2-.7-.5-1.4-1.1-1.9-.6-.5-1.4-.9-2.4-1-1-.2-2.1-.1-3.3.2-1.4.3-2.4.9-3 1.7-.6.8-.8 1.6-.6 2.6.2.7.5 1.3 1.1 1.8.6.5 1.4.8 2.5 1 1.1.2 2.2.1 3.5-.2 1.3-.3 2.2-.8 2.8-1.6.5-.9.7-1.8.5-2.6zm.8.5c.2.8.2 1.6-.1 2.3-.2.7-.6 1.3-1.2 1.9-.6.5-1.4.9-2.3 1.1-1.2.3-2.4.2-3.8-.1-1.3-.4-2.4-.9-3.2-1.7-.8-.8-1.3-1.7-1.6-2.9-.3-1.3-.1-2.4.5-3.4s1.6-1.6 2.9-1.9c1.3-.3 2.6-.3 3.9.1 1.3.4 2.4.9 3.2 1.7.9.7 1.4 1.7 1.7 2.9zm-6.1-8.2l-.2-.5c.3-.1.6-.2.8-.3.8-.3 1.3-.8 1.5-1.3.2-.6.2-1.2-.1-1.8-.3-.9-1-1.6-1.9-2.2-.9-.6-2-1-3.3-1.1-1.3-.1-2.4 0-3.6.5-1.1.5-1.9 1.1-2.2 1.8-.3.8-.3 1.5-.1 2.1.2.4.4.8.6 1.1.3.3.5.6.9.9 1.1-.1 1.7-.2 2.1-.3.2-.1.2-.2.3-.3 0-.1 0-.4-.1-.6 0-.1-.1-.3-.3-.7l.5-.1c.2.2.3.5.4.8.1.2.2.5.3.8.1.2.2.4.2.6.1.2.2.5.5 1l.3.6-.5.1c-.1-.3-.3-.5-.5-.6-.2-.1-.6-.1-1.2 0-2.3.3-3.9.4-5.1.3-1.1-.1-2-.4-2.6-.8-.6-.5-1.1-1-1.4-1.7-.2-.6-.3-1.1-.2-1.6.1-.5.3-.8.6-.9.2-.1.3-.1.5 0s.3.2.3.3c.1.2 0 .5-.2.9s-.3.7-.4.9c0 .2 0 .4.1.6.2.4.4.7.8.8.8.4 2.4.4 4.8.1-.4-.3-.7-.6-1-1-.3-.4-.5-.8-.7-1.2-.4-1.1-.5-2-.2-2.8.4-1.1 1.3-1.9 2.6-2.5 1.2-.5 2.5-.6 3.8-.5 1.3.2 2.6.7 3.7 1.5s1.9 1.7 2.3 2.7c.2.5.4 1.2.5 2 .1.8.3 1.4.4 1.8-.9 0-2 .2-3 .6zM243.3 86c2.5-.9 4.3-1.5 5.6-1.8-1.3-.2-2.2-.4-2.5-.4l-4.4-.5c.2.5.6 1.2 1 2.1 0 .1.2.3.3.6zm-2 4.5l-.5.2c-.1-.2-.2-.4-.3-.5-.1-.2-.2-.5-.4-.8-.2-.6-.4-.9-.4-1.1-.1-.2-.4-.6-.7-1.1.5-.1 1.1-.1 1.7-.3.4-.1 1.1-.3 2-.7-.3-.7-.9-1.7-1.7-3.1-3-.3-5-.7-5.9-1.1-.9-.4-1.5-.9-1.9-1.5-.2-.3-.2-.6-.2-.8 0-.2.2-.4.4-.5.2-.1.3-.1.4-.1.1 0 .3.1.3.3 0 .1.1.2.1.4.1.4.2.6.2.8.2.4.6.7 1.3.9 1.1.4 3.2.8 6.2 1.1 3.5.4 6 .8 7.8 1.2-.9-1.4-1.4-2.2-1.7-2.5-.4-.4-.8-.7-1.3-.7-.4-.1-.8-.1-1.1.1-.1.1-.2.2-.4.3l-.4.4c-.1.1-.3.1-.4 0-.1 0-.3-.1-.3-.3-.1-.2-.1-.4 0-.6.1-.2.3-.4.6-.5.4-.2.9-.3 1.4-.3.5 0 1 .2 1.5.4.5.3.9.7 1.4 1.2.2.3.6.8 1 1.5s.7 1.1.8 1.2c.2.2.5.4.8.6-.8.2-1.5.4-2.1.6l-5.4 1.9-3.8 1.4c.1.5.3.9.4 1.2.3.3.4.6.6.8zm-2.4-22.6l.4-.1c.4.6 1 1.2 1.7 1.9-.8.2-1.6.4-2.5.7l-2.6.9c-1.9.7-3.4 1.1-4.6 1.1.2.5.4 1 .7 1.3.6 1 1.4 1.7 2.2 2.1.9.4 1.8.6 2.8.5 1-.1 2-.4 2.9-1 1.2-.8 2-1.8 2.2-3 .3-1.2 0-2.4-.7-3.5-.6-1-1.4-1.7-2.5-2.3-1-.6-2.1-.8-3.1-.8-1.1 0-2 .2-2.7.7-.7.5-1 1.1-.9 1.9v.5c0 .1-.1.2-.2.2-.1.1-.3.1-.4.1-.2 0-.3-.1-.4-.2-.2-.3-.2-.7 0-1.2.3-.7.7-1.3 1.3-1.6.9-.6 2-.9 3.3-.9 1.2 0 2.4.3 3.6 1 1.2.7 2.1 1.6 2.9 2.8 1 1.5 1.4 3 1.1 4.4-.2 1.4-.9 2.5-2.2 3.3-1.1.7-2.4 1.1-3.7 1.1-1.3 0-2.5-.3-3.5-.9-1-.6-1.7-1.4-2.3-2.2-.2-.3-.5-.8-.9-1.5-.3-.6-.7-1.2-1-1.7-.2-.2-.4-.6-.8-1.1l.5-.1c.4.5.6.8.7.9.1.1.3.1.5.1.4 0 1-.1 2.1-.4l2.5-.8 3.1-1.1c.2 0 .3-.1.4-.2l.2-.2c0-.1 0-.2-.1-.3.2-.3.1-.3 0-.4zm-4-6.1l-.3-.4c.3-.2.5-.3.6-.5.2-.2.3-.4.2-.6-.1-.2-.6-.9-1.5-1.9l-.9-1.1-4 2 1.3 1.5c.4.5.7.7.9.8.2 0 .4 0 .7-.2l.4.4c-.7.4-1.5.8-2.3 1.3l-.3-.4c.3-.2.4-.3.6-.4.1 0 .1-.1.1-.3 0-.1 0-.2-.1-.3-.1-.2-.3-.4-.5-.6l-1.3-1.5c-2 1-3.7 1.7-5.1 2 .5.3 1 .7 1.3 1 .5.6 1 1.4 1.6 2.4.3.5.5.9.6 1.1.2.2.4.3.6.4.2 0 .4 0 .5-.1.1-.1.2-.2.3-.4.1-.1.2-.3.3-.4.1-.1.3-.1.4-.1.2 0 .3.1.4.2.1.2.2.3.2.5s-.1.4-.3.6c-.4.4-.9.5-1.6.4-.6-.1-1.2-.4-1.7-1-.3-.3-.6-.7-1-1.3-.8-1.2-1.4-2-1.9-2.6-.6-.7-1.4-1.5-2.4-2.4l.5-.2c.7.4 1.1.7 1.2.7h.6c.7-.2 1.9-.7 3.6-1.5 1.7-.8 3.5-1.7 5.4-2.7-.5-.6-1.1-1-1.9-1.3-.7-.3-1.5-.4-2.2-.3-.7.1-1.3.4-1.8.8l-.5.5c-.1.2-.3.5-.4.9-.1.2-.2.4-.3.5-.1.1-.2.1-.4.1s-.3-.1-.4-.2c-.2-.2-.2-.4-.1-.7.1-.4.4-.8.9-1.2 1-.9 2.3-1.3 3.8-1.2 1.5.1 2.9.8 4.2 2.3l2.2 2.5c.8.9 1.4 1.5 1.8 1.8-1 .5-1.6.9-2 1.1zM124.6 186.7c-1.2-.5-2.5-1-3.9-1.4-3.3-1-6.3-1.5-9.2-1.8-3-.2-6-.2-9.3 0-6.3.3-12.4 1.1-18.1 2.6-5.2 1.4-10.1 3.4-14.4 6.2l-.9.5-.3-1c-3.2-9.3-6.2-18.7-9.3-28-2.3-7.2-4.7-14.5-7.2-21.8-2.9 1.3-5.7 2.6-8.5 4l1.9 3.9 4.4 8.8c.9 1.7 1.7 3.5 2.6 5.2 1.2 2.5 2.5 5 3.9 8l.6 1.1c2.4 4.8 4.7 9.5 5.8 11.8.8 1.7 2.2 4.5 3.5 7.3l2.3 4.7c4.6-2.5 9.4-4.9 14.5-6.8 5.4-2 11-3.5 16.9-4.2 6-.7 12.1-.6 18.2 0 2.1.2 4.3.5 6.5.9zm95.6-43.2c-2.3 6.7-4.5 13.3-6.7 19.8-3.3 9.8-6.6 19.6-9.8 29l-.3.8-.8-.3c-4.9-2-9.5-3.9-14.3-5.3-4.8-1.5-9.8-2.5-15.4-3-4-.3-8.8-.6-13.5-.3-4.4.3-8.8 1-12.4 2.7 2.2-.3 4.3-.6 6.5-.8 6-.5 12.1-.5 18.1.3 5.9.8 11.6 2.4 17 4.6 5.1 2 10.1 4.5 14.7 7.2.7-1.7 1.6-3.6 2.4-5.6 1-2.4 2-4.5 2.8-6.5.7-1.6 2-4.5 3.2-7.3.6-1.3 1.1-2.6 2.6-5.9l1-2.3c1.4-3.1 2.7-6.2 4.9-11.1 1.1-2.5 2.1-4.8 3.1-6.8.8-1.8 1.8-3.9 2.8-6.2-1.9-1.1-3.9-2.1-5.9-3zm-47.9-25.9c-2.2 3.1-4.3 5.6-6.4 7.9-2.3 2.4-4.6 4.5-7.2 6.5l-1.2.9-.3.2c-1.2.9-2.4 1.9-3.6 2.8h.1-.1c-5.3 3.9-10.6 7.6-18.3 11.5l-.3.2v-.4c-9.7-4.9-15.6-9.4-22.4-14.5l-.9-.7c-2.6-2-4.8-4-7-6.4-2-2.2-4-4.7-6.2-7.7l.1 6.6c2.4 3.3 4.5 6 6.6 8.4 2.1 2.4 4.3 4.4 6.9 6.3.9.7 1.3 1 1.7 1.3 6.5 4.9 12.3 9.3 21.7 14 9.8-4.9 15.9-9.4 22.7-14.6l1-.7c2.6-2 4.8-4 6.9-6.3 2.1-2.3 4.2-5 6.6-8.4l-.4-6.9zm3.4-10.6c-.2-.2-.3-.3-.5-.4l-1-.1-37.8 21.2-68.3-39.8.1 2 66.7 38.7 1.3.4 39.5-22zm1-1.9l1 .8L206.1 90l-.2-1.3-29.2 16.4zm.6 18c-.3-.1-.5-.2-.8-.3h-2.6v2c-2.5 3.5-4.6 6.3-6.8 8.7-2.2 2.4-4.5 4.5-7.2 6.6l-1 .7c-7 5.3-13.2 10-23.3 14.9v.4l-.4-.2c-9.8-4.8-15.9-9.4-22.6-14.5l-1.8-1.3c-2.7-2-5-4.1-7.2-6.6-2.2-2.4-4.3-5.2-6.8-8.7v-2c-1.6 0-3.2.1-4.9.3-13.9 1.4-26.7 7.5-39 13.4l-1 .5c3 8.8 5.9 17.6 8.7 26.4 2.9 8.9 5.8 17.9 8.9 27 4.3-2.6 9-4.5 14-5.8 5.8-1.6 12-2.4 18.4-2.7 3.4-.1 6.5-.2 9.5 0s6.1.8 9.5 1.8c2.9.9 5.4 2 7.7 3.3 2.2 1.3 4.1 2.8 6.1 4.5h2c.3-.2.6-.5.9-.8 1.4-1.3 3.3-2.9 7.6-5.1 4-2 8.8-2.9 13.7-3.2 4.8-.3 9.7 0 13.7.3 5.7.5 10.8 1.6 15.8 3.1 4.6 1.4 9.1 3.1 13.7 5.1 3.3-9.6 6.4-18.9 9.6-28.2 2.9-8.8 5.9-17.5 8.7-25.9l-1-.5c-12.2-5.9-25.1-12.1-39-13.4h-.5v1.1c.1.7.2 1.3.2 1.8.1.8.2 1.3.2 1.8.1 1 .2 1.8 0 2.4.1 1.1.1 1.8 0 2.4-.3 1.1-.9 1.5-2.5 2.4-.5.3-1 .6-1.8 1.1l-1.1-1.7c.7-.4 1.3-.8 1.8-1.1.8-.4 1.2-.7 1.4-.9-.6.3-1.4.6-2.4.9l-.6-1.9c.9-.3 1.6-.6 2-.8-.3.1-.6.3-1 .4l-.4.2-.7-1.9.4-.2c.7-.3 1.3-.5 1.7-.7l-.7-1.1c-.4.2-.7.5-1 .7l-1.1-1.6c.4-.2.6-.4.9-.6l-.4-.4c1.5-.9 2.1-1.6 2.5-2.1zm2.1-.2zm-.6-13.6c.7.2 1.3.5 1.9 1.1.6.6 1 1.5 1.1 2.6.1.9.1 1.7.1 2.6v1c0 1.1 0 2-.1 2.9-.1.7-.3 1.4-.7 1.9 14.1 1.4 27 7.6 39.3 13.6l1.6.8.6.3-.2.7-1.8 5.1c2.4 1.1 4.7 2.2 7 3.3l.7.3-.3.7c-.9 2.1-1.9 4.3-3.1 6.9-1.1 2.5-2.2 4.8-3.1 6.8-1.1 2.5-3 6.8-4.9 11.1l-1 2.3c-.3.6-1.5 3.3-2.6 5.9-.9 2-1.8 4-3.2 7.3-1.1 2.4-2 4.6-2.8 6.5-.8 1.9-1.8 4.1-2.8 6.4l-.4.8-.8-.5c-4.9-2.8-10-5.4-15.3-7.5-5.3-2.1-10.9-3.7-16.7-4.5-5.9-.8-11.9-.8-17.8-.3-3.7.3-7.4.9-11 1.6-1.7 1.1-2.7 2-3.6 2.8-.4.4-.8.7-1.2 1.1l-.2.2h-3.1l-.2-.2c-1.6-1.4-3.2-2.7-4.9-3.8-3.8-.8-7.6-1.4-11.4-1.8-5.9-.6-11.9-.7-17.8 0-5.8.7-11.3 2.1-16.5 4.1-5.2 2-10.2 4.4-15 7.1l-.7.4-.4-.8-2.6-5.4c-1-2.1-2-4.1-3.5-7.3-2.7-5.6-4.3-8.7-5.8-11.8l-.6-1.1c-1.2-2.4-2.5-5.1-3.9-8-.9-1.7-1.7-3.5-2.6-5.2-1.3-2.7-2.8-5.7-4.4-8.8-.6-1.1-1.1-2.2-2.3-4.6l-.4-.7.7-.4c3.1-1.5 6.2-2.9 9.4-4.4-.4-1.2-.8-2.4-1.2-3.7l-.2-.7.6-.3 1.6-.8c12.4-6 25.3-12.2 39.5-13.6 1.7-.2 3.3-.3 5-.3l-.1-4.1v-2.3l.1-7.6-29-16.7-.1-.1v-.1l-.1-2.4v-.2l.2-.1 6.4-2.4 62.1-24.4 69.3 27 .5.2h.1l.5.2-.5.3.3 1.6v.2l-.2.1L178 106c.9.9.7 2.2.8 3.3zm-2 .2c.4-.2.9-.3 1.3-.3h.5c-.1-1.2.1-2.6-.9-3.1l-1.2-.9-.3.1-.4-.2c-6.4-2.9-25.3-10.8-35.2-15 .4-.4.6-1 .6-1.5 0-1.8-2.2-3.2-4.9-3.2s-4.9 1.4-4.9 3.2c0 1.8 2.2 3.2 4.9 3.2 1.1 0 2.2-.3 3-.7l35.3 15-.2.1h.8c1.2.2 1.5 2.2 1.6 3.3zm-1.3 1c.3-.3.7-.6 1.1-.8-.1-.8-.2-1.6-.6-2.2l-2.1 1.2-.1 8.2v.2l.1 4.3h1c-.3-.5-.5-1.1-.5-1.8v-.3c0-.9-.1-1.8-.1-2.7 0-.8 0-1.7.1-2.6v-.6c.1-1.4.5-2.3 1.1-2.9zm.9 5.4v.3c0 1.1 0 1.9.1 2.7v.3c0 .6.2 1 .5 1.3.4.4.8.6 1.2.6.3 0 .7-.2 1.1-.5.3-.3.6-.8.6-1.4.1-.8.1-1.7.1-2.7v-.5c-.5.3-1.1.5-1.7.5-.8.1-1.4-.2-1.9-.6zm62.1 76l1.6 5.4h5.6l-.2.2-4.3 3.3 1.6 5.4.1.3-.3-.2-4.3-3.3-4.3 3.3-.3.2.1-.3 1.6-5.4-4.3-3.3-.2-.2h5.6l1.6-5.4.1-.3.3.3zm-204.2 0l1.6 5.4h5.6l-.2.2-4.3 3.3 1.6 5.4.1.3-.3-.2-4.3-3.3-4.3 3.3-.3.2.1-.3 1.6-5.4-4.3-3.3-.2-.2h5.6l1.6-5.4.1-.3.3.3zm141.1 6.2H96.7v24h78.7v-24zm-77 25.6l5.6 4v-4h-5.6zm-3.3-19.2H71.2l11.9 11.4.1.1.5.5-.5.5-.1.1-11.9 11.4h31.1l-6.6-4.8h-.6v-19.2zm73 23.2l5.6-4h-5.6v4zm32.8-23.2H177v19.3h-.6l-6.6 4.8h15.8l.1-.1.2-.1.1.2h14.9L189 217.1l-.1-.1-.5-.5.5-.5.1-.1 11.9-11.4zm-31.1 25.6h-2.3l-1.1-.2v-6.2h-60.8v6.2l-1.1.2h-2.4c10.5 3.9 21.9 6 33.8 6s23.3-2.1 33.9-6zm20.1 0h-4.4l-.2.1-.6.3-.6.3-.6.3-.6.3-.6.3-.6.3-.6.3-.2.1-.6-1.2.2-.1.6-.3.6-.3.6-.3.1-.1h-7.3c-12.1 5.1-25.3 8-39.3 8-13.9 0-27.2-2.9-39.3-8h-7.3l.1.1.6.3.6.3.6.3.6.3.2.1-.6 1.2-.2-.1-.6-.3-.6-.3-.6-.3-.6-.3-.6-.3-.6-.3-.6-.3-.6-.3-.2-.1h-4.4c15.8 9.3 34.2 14.6 53.9 14.6 20 0 38.4-5.3 54.3-14.6zm9.9-5l3.7 3.6.2.2 1.3 1.2h-11.2c-16.7 10.5-36.5 16.6-57.8 16.6-21.2 0-41-6.1-57.8-16.6H67l1.3-1.2.2-.2 3.4-3.3-.3.3c-4.5-3.3-8.7-6.9-12.6-10.8C39.4 195.2 27.3 168 27.3 138s12.2-57.2 31.9-76.9C78.8 41.4 106 29.3 136 29.3s57.2 12.2 76.9 31.9c19.7 19.7 31.9 46.9 31.9 76.9s-12.2 57.2-31.9 76.9c-3.9 3.9-8.1 7.5-12.6 10.8l-.5-.7zm-5.8-5.5l4.8 4.6c4.5-3.3 8.7-6.9 12.6-10.8 19.3-19.3 31.3-46 31.3-75.5s-11.9-56.1-31.3-75.5c-19.3-19.3-46-31.3-75.5-31.3S79.8 43.2 60.5 62.5c-19.3 19.3-31.3 46-31.3 75.5s11.9 56.1 31.3 75.5c3.9 3.9 8.2 7.6 12.7 10.8l4.8-4.6c-4.6-3.3-8.9-6.9-12.9-10.9C47 190.7 35.8 165.6 35.8 138S47 85.3 65.1 67.2c18.1-18.1 43.2-29.3 70.8-29.3 27.6 0 52.7 11.2 70.8 29.3C224.8 85.3 236 110.4 236 138s-11.2 52.7-29.3 70.8c-3.9 3.9-8.1 7.6-12.7 10.8zm-17-16.7h28.1l-1.3 1.2-.2.2-12.8 12.2 3 2.9-1.3-1.2c4.6-3.2 8.9-6.9 12.9-10.8 17.8-17.8 28.7-42.3 28.7-69.4s-11-51.6-28.7-69.4c-17.8-17.8-42.3-28.7-69.4-28.7-27.1 0-51.6 11-69.4 28.7-17.7 17.8-28.7 42.3-28.7 69.4s11 51.6 28.7 69.4c4 4 8.3 7.6 12.9 10.9l1.8-1.7-12.8-12.2-.2-.2L67 203h28.1v-6.4H177v6.3zm-27.7 7.2c-.2 1.1-.3 2.1-.3 2.8 0 1.2.2 2 .5 2.5.4.5.8.8 1.3.8.6 0 1-.3 1.4-.8.4-.7.7-1.8.7-3.1 0-1.1-.2-1.9-.5-2.4s-.7-.7-1.1-.7c-.3 0-.6.1-.9.2-.4.1-.7.4-1.1.7zm7.1-6.8l-.1.7c-1.2.1-2.3.3-3.1.7-.9.4-1.6 1-2.2 1.7-.6.7-1.1 1.7-1.4 2.9.4-.3.8-.6 1.2-.8s.8-.2 1.3-.2c.8 0 1.5.3 2 .9.5.6.8 1.4.8 2.5 0 1.5-.4 2.8-1.3 3.8-.8.9-1.8 1.3-2.9 1.3-1 0-1.8-.4-2.5-1.2-.6-.8-1-1.8-1-3.2 0-1.6.4-3.2 1.3-4.6.8-1.5 2-2.6 3.3-3.4 1.2-.7 2.8-1.1 4.6-1.1zm-13.3 6.7c.2-1.1.3-2.1.3-2.8 0-1.2-.2-2-.5-2.5-.4-.5-.8-.8-1.3-.8-.6 0-1 .3-1.4.8-.4.7-.7 1.8-.7 3.1 0 1.1.2 1.9.5 2.4s.7.7 1.1.7c.3 0 .6-.1.9-.2.4-.1.7-.4 1.1-.7zm-7 6.8l.1-.6c1.2 0 2.2-.3 3.1-.7.9-.4 1.6-1 2.2-1.7.6-.7 1.1-1.7 1.4-2.9-.4.3-.8.6-1.2.8-.4.2-.8.3-1.3.3-.8 0-1.5-.3-2-.9-.5-.6-.8-1.4-.8-2.5 0-1.5.4-2.8 1.3-3.8.8-.9 1.8-1.3 2.9-1.3 1 0 1.8.4 2.5 1.2.6.8 1 1.8 1 3.2 0 1.6-.4 3.2-1.3 4.6-.8 1.5-2 2.6-3.3 3.4-1.3.5-2.9.9-4.6.9zm-2.9-6.8c.2-1.1.3-2.1.3-2.8 0-1.2-.2-2-.5-2.5-.4-.5-.8-.8-1.3-.8-.6 0-1 .3-1.4.8-.4.7-.7 1.8-.7 3.1 0 1.1.2 1.9.5 2.4s.7.7 1.1.7c.3 0 .6-.1.9-.2.4-.1.7-.4 1.1-.7zm-7 6.8l.1-.6c1.2 0 2.2-.3 3.1-.7.9-.4 1.6-1 2.2-1.7.6-.7 1.1-1.7 1.4-2.9-.4.3-.8.6-1.2.8-.4.2-.8.3-1.3.3-.8 0-1.5-.3-2-.9-.5-.6-.8-1.4-.8-2.5 0-1.5.4-2.8 1.3-3.8.8-.9 1.8-1.3 2.9-1.3 1 0 1.8.4 2.5 1.2.6.8 1 1.8 1 3.2 0 1.6-.4 3.2-1.3 4.6-.8 1.5-2 2.6-3.3 3.4-1.3.5-2.9.9-4.6.9zm-2.2-13.6h.4l-1.5 5.9-1.3 5.5c-.1.5-.2.8-.2.9 0 .1.1.2.2.3.1.1.4.1.8.2.3 0 .7.1 1 .1l-.2.5c-1.6-.2-2.7-.3-3.3-.3-.9 0-1.9.1-3 .3l.2-.5c.4-.1.8-.2 1.3-.3.5-.1.8-.2 1-.4.2-.3.5-.9.8-1.9l1.2-4.5c.4-1.7.6-2.7.6-2.9 0-.3-.1-.4-.3-.4-.2 0-.9.3-2.2.9l-.2-.5c1.9-.9 3.1-1.5 3.5-1.8.3-.3.8-.7 1.2-1.1zM136 2c25.4 0 49.1 7 69.4 19.1 21 12.5 38.4 30.6 50.1 52.1 5.3 9.8 9.5 20.3 12.3 31.3 2.7 10.7 4.2 21.9 4.2 33.5 0 37.5-15.2 71.5-39.8 96.2-24.7 24.6-58.7 39.8-96.2 39.8s-71.5-15.2-96.2-39.8C15.2 209.5 0 175.5 0 138s15.2-71.5 39.8-96.2C64.4 17.2 98.4 2 136 2zm18.5 33.1l.6.1.6.1.6.1.6.1.6.1.6.1.6.1.3.2.6.1.6.1.4.1m-.1 0l-.3 1.3-.4-.1-.6-.1-.6-.1-.6-.1-.6-.1-.6-.1-.6-.1-.6-.1-.6-.1-.6-.1-.6-.1.2-1.3h-6.2l-.2 1.3h6.2" fill="#f9f9f9"/></svg>